<?xml version="1.0" standalone="no"?>
<!DOCTYPE svg PUBLIC "-//W3C//DTD SVG 1.1//EN" "http://www.w3.org/Graphics/SVG/1.1/DTD/svg11.dtd" >
<svg xmlns="http://www.w3.org/2000/svg" xmlns:xlink="http://www.w3.org/1999/xlink" version="1.1">
<metadata>
Created by FontForge 20170104 at Sun Feb 26 08:48:07 2017
 By myTaste
Copyright 2013 Adobe Systems Incorporated. All rights reserved.
</metadata>
<defs>
<font id="iCielAltus" horiz-adv-x="356" >
  <font-face 
    font-family="iCiel Altus"
    font-weight="400"
    font-stretch="normal"
    units-per-em="1000"
    panose-1="0 0 0 0 0 0 0 0 0 0"
    ascent="800"
    descent="-200"
    x-height="497"
    cap-height="693"
    bbox="-366.344 -196.513 840.414 1004"
    underline-thickness="50"
    underline-position="-100"
    stemh="42"
    stemv="48"
    unicode-range="U+0009-FB06"
  />
<missing-glyph horiz-adv-x="0" 
 />
    <glyph glyph-name="uniFB00" unicode="ff" horiz-adv-x="455" 
d="M266 448v3c-71 0 -109 0 -114 -1l-3 -100l2 -78v-137c0 -11 1 -31 4 -60c3 -28 4 -49 3 -62c-5 -5 -14 -8 -26 -9c-13 -1 -21 0 -26 5c-3 43 -3 101 -2 176c1 89 1 148 0 179c-1 19 -1 47 -1 84c-14 -1 -27 -1 -40 -1l-12 12c-1 0 -1 13 -1 40c0 -1 18 -2 54 -2v16
c0 59 5 99 15 118c17 30 55 49 114 57c3 4 4 -1 5 -16c1 -14 -1 -23 -5 -27c-37 -8 -60 -19 -69 -33c-10 -15 -15 -44 -15 -88c0 -12 0 -21 1 -27l117 -1v17c-1 63 3 106 14 127c17 33 55 53 115 61c3 4 4 -1 5 -16c1 -14 -1 -23 -5 -27c-35 -8 -59 -22 -70 -42
c-11 -19 -15 -49 -14 -92c0 -12 0 -21 1 -27c23 0 42 0 55 1c6 1 9 -6 10 -23s0 -26 -5 -27l-40 3c-5 0 -11 0 -18 -1l-3 -100l2 -78v-137c0 -11 1 -31 4 -60c3 -28 4 -49 3 -62c-5 -5 -14 -8 -26 -9c-13 -1 -21 0 -26 5c-3 43 -3 101 -2 176c1 89 1 148 0 179
c-1 19 -1 47 -1 84z" />
    <glyph glyph-name="uniFB03" unicode="ffi" horiz-adv-x="580" 
d="M267 123l1 328c-72 0 -111 0 -116 -1l-3 -100l2 -78v-137c0 -11 1 -31 4 -60c3 -28 4 -49 3 -62c-5 -5 -14 -8 -26 -9c-13 -1 -21 0 -26 5c-3 43 -3 101 -2 176c1 89 1 148 0 179c-1 19 -1 47 -1 84c-14 -1 -27 -1 -40 -1l-12 12c-1 0 -1 13 -1 40c0 -1 18 -2 54 -2v16
c0 59 5 99 15 118c17 30 55 49 114 57c3 4 4 -1 5 -16c1 -14 -1 -23 -5 -27c-37 -8 -60 -19 -69 -33c-10 -15 -15 -44 -15 -88c0 -12 0 -21 1 -27l118 -1l-1 52c0 49 12 85 37 108c31 30 86 45 163 44l1 1c3 0 4 -7 4 -21c0 -13 -2 -20 -5 -23c-57 -2 -98 -13 -122 -33
c-21 -17 -32 -44 -32 -81c0 -25 0 -41 1 -46l54 -1l118 3c13 0 21 -4 25 -13l-4 -119l6 -359c-7 -5 -16 -8 -27 -8s-19 4 -25 11l2 157l-4 281l-125 2c-5 0 -11 0 -18 -1v-16c0 -9 -1 -24 -2 -43c-1 -17 -2 -30 -1 -41l2 -215c0 -11 1 -31 4 -60c2 -29 3 -49 3 -62
c-6 -6 -17 -9 -32 -9c-10 0 -17 2 -20 5c-2 37 -3 75 -3 114z" />
    <glyph glyph-name="uniFB04" unicode="ffl" horiz-adv-x="563" 
d="M495 350l2 -78v-137c0 -9 1 -30 2 -62c1 -29 2 -51 1 -65c-5 -5 -14 -8 -27 -9s-21 0 -26 5c-3 42 -3 102 0 179c3 87 4 147 3 181v149c0 103 0 150 -1 140c-59 -4 -98 -16 -119 -37c-17 -17 -26 -48 -29 -92c-1 -6 0 -15 1 -27c23 0 42 0 55 1c6 1 9 -6 10 -23
s0 -26 -5 -27l-40 3c-5 0 -11 0 -18 -1l-3 -100l2 -78v-137c0 -11 1 -31 4 -60c3 -28 4 -49 3 -62c-5 -5 -14 -8 -26 -9c-13 -1 -21 0 -26 5c-3 43 -3 101 -2 176c1 89 1 148 0 179v86h-104l-3 -100l2 -78v-137c0 -11 1 -31 4 -60c3 -28 4 -49 3 -62c-5 -5 -14 -8 -26 -9
c-13 -1 -21 0 -26 5c-3 43 -3 101 -2 176c1 89 1 148 0 179c-1 19 -1 47 -1 84c-14 -1 -27 -1 -40 -1l-12 12c-1 0 -1 13 -1 40c0 -1 18 -2 54 -2v16c0 59 5 99 15 118c17 30 55 49 114 57c3 4 4 -1 5 -16c1 -14 -1 -23 -5 -27c-37 -8 -60 -19 -69 -33
c-10 -15 -15 -44 -15 -88c0 -12 0 -21 1 -27c45 0 81 0 106 1v15c-1 65 12 111 41 138c37 36 104 50 202 42c2 -41 1 -97 -2 -167c-1 -12 -1 -27 0 -46l1 -46z" />
    <glyph glyph-name="f_f_f" unicode="fff" horiz-adv-x="617" 
d="M50 499c0 -1 18 -2 54 -2v16c0 59 5 99 15 118c17 30 55 49 114 57c3 4 4 -1 5 -16c1 -14 -1 -23 -5 -27c-37 -8 -60 -19 -69 -33c-10 -15 -15 -44 -15 -88c0 -12 0 -21 1 -27l117 -1v17c-1 63 3 106 14 127c17 33 55 53 115 61c3 4 4 -1 5 -16c1 -14 -1 -23 -5 -27
c-35 -8 -59 -22 -70 -42c-11 -19 -15 -49 -14 -92c0 -12 0 -21 1 -27h120v16c-1 63 3 106 14 127c17 33 55 53 115 61c3 4 4 -1 5 -16c1 -14 -1 -23 -5 -27c-35 -8 -59 -22 -70 -42c-11 -19 -15 -49 -14 -92c0 -12 0 -21 1 -27c23 0 42 0 55 1c6 1 9 -6 10 -23s0 -26 -5 -27
l-40 3c-5 0 -11 0 -18 -1l-3 -100l2 -78v-137c0 -11 1 -31 4 -60c3 -28 4 -49 3 -62c-5 -5 -14 -8 -26 -9c-13 -1 -21 0 -26 5c-3 43 -3 101 -2 176c1 89 1 148 0 179c-1 19 -1 47 -1 84v1l-99 2c-5 0 -11 0 -18 -1l-3 -100l2 -78v-137c0 -11 1 -31 4 -60c3 -28 4 -49 3 -62
c-5 -5 -14 -8 -26 -9c-13 -1 -21 0 -26 5c-3 43 -3 101 -2 176c1 89 1 148 0 179c-1 19 -1 47 -1 84v3c-71 0 -109 0 -114 -1l-3 -100l2 -78v-137c0 -11 1 -31 4 -60c3 -28 4 -49 3 -62c-5 -5 -14 -8 -26 -9c-13 -1 -21 0 -26 5c-3 43 -3 101 -2 176c1 89 1 148 0 179
c-1 19 -1 47 -1 84c-14 -1 -27 -1 -40 -1l-12 12c-1 0 -1 13 -1 40z" />
    <glyph glyph-name="f_f_j" unicode="ffj" horiz-adv-x="552" 
d="M50 499c0 -1 18 -2 54 -2v16c0 59 5 99 15 118c17 30 55 49 114 57c3 4 4 -1 5 -16c1 -14 -1 -23 -5 -27c-37 -8 -60 -19 -69 -33c-10 -15 -15 -44 -15 -88c0 -12 0 -21 1 -27h125v16c-1 63 3 106 14 127c17 33 55 53 115 61c3 4 4 -1 5 -16c1 -14 -1 -23 -5 -27
c-35 -8 -59 -22 -70 -42c-11 -19 -15 -49 -14 -92c0 -12 0 -21 1 -27l18 1v-1h117c7 2 13 2 19 0l7 1c3 1 6 -2 8 -9l2 -3l-1 -7c1 -9 1 -17 0 -24c1 -30 0 -77 -3 -141c-1 -12 -1 -27 0 -46l1 -46l-3 -84l2 -78c-3 -104 -20 -170 -51 -199c-26 -17 -70 -26 -131 -29
c-11 12 -13 25 -7 40c54 5 90 14 108 29c20 26 31 110 34 251v149c0 107 0 156 -1 146v4c-72 0 -111 0 -117 -1l-3 -100l2 -78v-137c0 -11 1 -31 4 -60c3 -28 4 -49 3 -62c-5 -5 -14 -8 -26 -9c-13 -1 -21 0 -26 5c-3 43 -3 101 -2 176c1 89 1 148 0 179c-1 19 -1 47 -1 84
v3c-76 0 -117 0 -122 -1l-3 -100l2 -78v-137c0 -11 1 -31 4 -60c3 -28 4 -49 3 -62c-5 -5 -14 -8 -26 -9c-13 -1 -21 0 -26 5c-3 43 -3 101 -2 176c1 89 1 148 0 179c-1 19 -1 47 -1 84c-14 -1 -27 -1 -40 -1l-12 12c-1 0 -1 13 -1 40z" />
    <glyph glyph-name="f_f_t" unicode="fft" horiz-adv-x="597" 
d="M50 499c0 -1 18 -2 54 -2v16c0 59 5 99 15 118c17 30 55 49 114 57c3 4 4 -1 5 -16c1 -14 -1 -23 -5 -27c-37 -8 -60 -19 -69 -33c-10 -15 -15 -44 -15 -88c0 -12 0 -21 1 -27l117 -1v17c-1 63 3 106 14 127c17 33 55 53 115 61c3 4 4 -1 5 -16c1 -14 -1 -23 -5 -27
c-35 -8 -59 -22 -70 -42c-11 -19 -15 -49 -14 -92c0 -12 0 -21 1 -27h111v3c-1 13 -1 32 -1 57c0 22 2 36 6 43c4 6 14 9 29 9c7 0 12 -1 17 -4l-1 -25l1 -80l53 1c3 0 5 -3 7 -10c3 -7 4 -15 3 -26s-2 -16 -5 -17l-40 3h-18c0 -29 -1 -63 -2 -100l2 -107l-1 -14v-143
c0 -27 8 -41 25 -41c4 0 10 1 18 3c8 1 14 2 17 2c6 0 9 -12 9 -35c0 -11 -17 -16 -50 -16c-45 0 -68 20 -68 60l1 339c-1 20 -1 37 -1 52l-110 -1l-3 -100l2 -78v-137c0 -11 1 -31 4 -60c3 -28 4 -49 3 -62c-5 -5 -14 -8 -26 -9c-13 -1 -21 0 -26 5c-3 43 -3 101 -2 176
c1 89 1 148 0 179c-1 19 -1 47 -1 84v3c-71 0 -109 0 -114 -1l-3 -100l2 -78v-137c0 -11 1 -31 4 -60c3 -28 4 -49 3 -62c-5 -5 -14 -8 -26 -9c-13 -1 -21 0 -26 5c-3 43 -3 101 -2 176c1 89 1 148 0 179c-1 19 -1 47 -1 84c-14 -1 -27 -1 -40 -1l-12 12c-1 0 -1 13 -1 40z
" />
    <glyph glyph-name="f_f_y" unicode="ffy" horiz-adv-x="790" 
d="M725 138l2 -78c-3 -104 -20 -170 -51 -199c-26 -17 -70 -26 -131 -29c-11 12 -13 25 -7 40c54 5 90 14 108 29c16 23 26 70 30 143c-65 -49 -122 -58 -171 -28l-35 42c0 241 -1 372 -2 393c-82 0 -126 0 -132 -1l-3 -100l2 -78v-137c0 -11 1 -31 4 -60c3 -28 4 -49 3 -62
c-5 -5 -14 -8 -26 -9c-13 -1 -21 0 -26 5c0 35 -1 108 -3 219c-1 96 -2 170 -1 222c-5 0 -10 0 -15 1c-73 0 -112 0 -119 -1l-3 -100l2 -78v-137c0 -11 1 -31 4 -60c3 -28 4 -49 3 -62c-5 -5 -14 -8 -26 -9c-13 -1 -21 0 -26 5c-3 43 -3 101 -2 176c1 89 1 148 0 179
c-1 19 -1 47 -1 84c-14 -1 -27 -1 -40 -1l-12 12c-1 0 -1 13 -1 40c0 -1 18 -2 54 -2v16c-1 61 3 100 14 118c16 27 54 44 115 52c3 4 4 -1 5 -16c1 -14 -1 -23 -5 -27c-37 -8 -60 -19 -70 -33c-11 -15 -15 -42 -14 -83c0 -12 0 -21 1 -27h138v16c-1 63 3 106 14 127
c17 33 55 53 115 61c3 4 4 -1 5 -16c1 -14 -1 -23 -5 -27c-35 -8 -59 -22 -70 -42c-11 -19 -15 -49 -14 -92c0 -12 0 -21 1 -27h145c30 -1 45 -10 44 -27l1 -51c1 -25 0 -48 -1 -67c0 -19 -2 -67 -5 -142l3 -139c23 -17 52 -21 86 -12c26 6 50 17 71 33l2 60v149
c0 13 -2 46 -6 101c-3 40 -2 71 1 93c17 11 34 13 51 4c3 -66 4 -128 1 -185c-1 -12 -1 -27 0 -46l1 -46z" />
    <glyph glyph-name="f_j" unicode="fj" horiz-adv-x="377" 
d="M266 447v4c-70 0 -108 0 -114 -1l-3 -100l2 -78v-137c0 -11 1 -31 4 -60c3 -28 4 -49 3 -62c-5 -5 -14 -8 -26 -9c-13 -1 -21 0 -26 5c-3 43 -3 101 -2 176c1 89 1 148 0 179c-1 19 -1 47 -1 84c-14 -1 -27 -1 -40 -1l-12 12c-1 0 -1 13 -1 40c0 -1 18 -2 54 -2v16
c-1 63 3 106 14 127c17 33 55 53 115 61c3 4 4 -1 5 -16c1 -14 -1 -23 -5 -27c-35 -8 -59 -22 -70 -42c-11 -19 -15 -49 -14 -92c0 -12 0 -21 1 -27c60 0 105 0 135 1c15 -1 24 -3 27 -7s4 -14 5 -31c1 -31 0 -79 -3 -146c-1 -12 -1 -27 0 -46l1 -46l-3 -84l2 -78
c-3 -104 -20 -170 -51 -199c-26 -17 -70 -26 -131 -29c-11 12 -13 25 -7 40c54 5 90 14 108 29c20 26 31 110 34 251v149c0 107 0 156 -1 146z" />
    <glyph glyph-name="f_r" unicode="fr" horiz-adv-x="491" 
d="M275 227v222l-105 2c-5 0 -11 0 -18 -1l-3 -100l2 -78v-137c0 -11 1 -31 4 -60c3 -28 4 -49 3 -62c-5 -5 -14 -8 -26 -9c-13 -1 -21 0 -26 5c-3 43 -3 101 -2 176c1 89 1 148 0 179c-1 19 -1 47 -1 84c-14 -1 -27 -1 -40 -1l-12 12c-1 0 -1 13 -1 40c0 -1 18 -2 54 -2v16
c-1 63 3 106 14 127c17 33 55 53 115 61c3 4 4 -1 5 -16c1 -14 -1 -23 -5 -27c-35 -8 -59 -22 -70 -42c-11 -19 -15 -49 -14 -92c0 -12 0 -21 1 -27h145c11 1 20 -3 28 -11v-48c10 22 27 39 52 50c23 11 45 14 68 11c5 -23 3 -40 -6 -49c-21 -1 -41 -6 -61 -15
c-29 -13 -47 -33 -52 -58l-1 -229c1 -29 2 -57 2 -86v-60c-7 -4 -16 -5 -27 -3s-19 6 -24 12c-1 14 0 35 1 63l1 117l-1 18c-1 7 -1 13 0 18z" />
    <glyph glyph-name="f_t" unicode="ft" horiz-adv-x="471" 
d="M289 451v1c-65 -1 -111 -2 -137 -2l-3 -100l2 -78v-137c0 -11 1 -31 4 -60c3 -28 4 -49 3 -62c-5 -5 -14 -8 -26 -9c-13 -1 -21 0 -26 5c-3 43 -3 101 -2 176c1 89 1 148 0 179c-1 19 -1 47 -1 84c-14 -1 -27 -1 -40 -1l-12 12c-1 0 -1 13 -1 40c0 -1 18 -2 54 -2v16
c-1 63 3 106 14 127c17 33 55 53 115 61c3 4 4 -1 5 -16c1 -14 -1 -23 -5 -27c-35 -8 -59 -22 -70 -42c-11 -19 -15 -49 -14 -92c0 -12 0 -21 1 -27c27 0 73 1 138 2v1c-1 13 -1 32 -1 57c0 22 2 36 6 43c4 6 14 9 29 9c7 0 12 -1 17 -4l-1 -25l1 -80l53 1c6 0 9 -10 9 -29
c0 -13 -2 -20 -5 -21l-40 3c-5 0 -11 0 -17 -1c0 -29 -1 -63 -2 -102l2 -107l-1 -14v-143c0 -27 8 -41 25 -41c4 0 10 1 18 3c8 1 14 2 17 2c6 0 9 -12 9 -35c0 -11 -17 -16 -50 -16c-45 0 -68 20 -68 60l1 339c-1 20 -1 37 -1 52z" />
    <glyph glyph-name="f_t_y" unicode="fty" horiz-adv-x="803" 
d="M294 451l-142 -1l-3 -100l2 -78v-137c0 -11 1 -31 4 -60c3 -28 4 -49 3 -62c-5 -5 -14 -8 -26 -9c-13 -1 -21 0 -26 5c-3 43 -3 101 -2 176c1 89 1 148 0 179c-1 19 -1 47 -1 84c-14 -1 -27 -1 -40 -1l-12 12c-1 0 -1 13 -1 40c0 -1 18 -2 54 -2v16c-1 63 3 106 14 127
c17 33 55 53 115 61c3 4 4 -1 5 -16c1 -14 -1 -23 -5 -27c-35 -8 -59 -22 -70 -42c-11 -19 -15 -49 -14 -92c0 -12 0 -21 1 -27h143v3c-1 13 -1 32 -1 57c0 22 2 36 6 43c4 6 14 9 29 9c7 0 12 -1 17 -4l-1 -25l1 -83l190 -1c7 -24 8 -72 4 -144c0 -19 -2 -67 -5 -142
l3 -139c23 -17 52 -21 86 -12c26 6 50 17 71 33l2 60v149c0 13 -2 46 -6 101c-3 40 -2 71 1 93c17 11 34 13 51 4c3 -66 4 -128 1 -185c-1 -12 -1 -27 0 -46l1 -46l-3 -84l2 -78c-3 -104 -20 -170 -51 -199c-26 -17 -70 -26 -131 -29c-11 12 -13 25 -7 40c54 5 90 14 108 29
c16 23 26 70 30 143c-65 -49 -122 -58 -171 -28l-35 42c0 241 -1 372 -2 393h-139c0 -29 -1 -63 -2 -100l2 -107l-1 -14v-143c0 -27 8 -41 25 -41c4 0 10 1 18 3c8 1 14 2 17 2c6 0 9 -12 9 -35c0 -11 -17 -16 -50 -16c-45 0 -68 20 -68 60l1 339c-1 20 -1 37 -1 52z" />
    <glyph glyph-name="f_y" unicode="fy" horiz-adv-x="616" 
d="M541 138l2 -78c-3 -104 -20 -170 -51 -199c-26 -17 -70 -26 -131 -29c-11 12 -13 25 -7 40c54 5 90 14 108 29c16 23 26 70 30 143c-65 -49 -122 -58 -171 -28l-35 42c0 241 -1 372 -2 393c-82 0 -126 0 -132 -1l-3 -100l2 -78v-137c0 -11 1 -31 4 -60c3 -28 4 -49 3 -62
c-5 -5 -14 -8 -26 -9c-13 -1 -21 0 -26 5c-3 43 -3 101 -2 176c1 89 1 148 0 179c-1 19 -1 47 -1 84c-14 -1 -27 -1 -40 -1l-12 12c-1 0 -1 13 -1 40c0 -1 18 -2 54 -2v16c-1 63 3 106 14 127c17 33 55 53 115 61c3 4 4 -1 5 -16c1 -14 -1 -23 -5 -27
c-35 -8 -59 -22 -70 -42c-11 -19 -15 -49 -14 -92c0 -12 0 -21 1 -27h145c30 -1 45 -10 44 -27l1 -51c1 -25 0 -48 -1 -67c0 -19 -2 -67 -5 -142l3 -139c23 -17 52 -21 86 -12c26 6 50 17 71 33l2 60v149c0 13 -2 46 -6 101c-3 40 -2 71 1 93c17 11 34 13 51 4
c3 -66 4 -128 1 -185c-1 -12 -1 -27 0 -46l1 -46z" />
    <glyph glyph-name="t_r" unicode="tr" horiz-adv-x="505" 
d="M288 227v225l-116 2c-5 0 -11 0 -17 -1c0 -29 -1 -63 -2 -102l2 -107l-1 -14v-143c0 -27 8 -41 25 -41c4 0 10 1 18 3c8 1 14 2 17 2c6 0 9 -12 9 -35c0 -11 -17 -16 -50 -16c-45 0 -68 20 -68 60l1 339c-1 20 -1 37 -1 52c-15 -1 -28 -1 -40 -1l-12 12c-2 0 -3 4 -3 13
c0 8 1 17 2 27c0 -1 17 -2 52 -2c-1 13 -1 32 -1 57c0 22 2 36 6 43c4 6 14 9 29 9c7 0 12 -1 17 -4l-1 -25l1 -80l172 1l9 -6v-57c10 22 27 39 52 50c23 11 45 14 68 11c5 -23 3 -40 -6 -49c-21 -1 -41 -6 -61 -15c-29 -13 -47 -33 -52 -58l-1 -229c1 -29 2 -57 2 -86v-60
c-7 -4 -16 -5 -27 -3s-19 6 -24 12c-1 14 0 35 1 63l1 117l-1 18c-1 7 -1 13 0 18z" />
    <glyph glyph-name="t_t" unicode="tt" horiz-adv-x="468" 
d="M291 451v1l-119 2c-5 0 -11 0 -17 -1c0 -29 -1 -63 -2 -102l2 -107l-1 -14v-143c0 -27 8 -41 25 -41c4 0 10 1 18 3c8 1 14 2 17 2c6 0 9 -12 9 -35c0 -11 -17 -16 -50 -16c-45 0 -68 20 -68 60l1 339c-1 20 -1 37 -1 52c-15 -1 -28 -1 -40 -1l-12 12c-2 0 -3 4 -3 13
c0 8 1 17 2 27c0 -1 17 -2 52 -2c-1 13 -1 32 -1 57c0 22 2 36 6 43c4 6 14 9 29 9c7 0 12 -1 17 -4l-1 -25l1 -80l135 1c-1 13 -1 31 -1 56c0 22 2 36 6 43c4 6 14 9 29 9c7 0 12 -1 17 -4l-1 -25l1 -80l53 1c6 0 9 -10 9 -29c0 -13 -2 -20 -5 -21l-40 3c-5 0 -11 0 -17 -1
c0 -29 -1 -63 -2 -102l2 -107l-1 -14v-143c0 -27 8 -41 25 -41c4 0 10 1 18 3c8 1 14 2 17 2c6 0 9 -12 9 -35c0 -11 -17 -16 -50 -16c-45 0 -68 20 -68 60l1 339c-1 20 -1 37 -1 52z" />
    <glyph glyph-name="t_t_y" unicode="tty" horiz-adv-x="796" 
d="M52 502c0 -1 17 -2 52 -2c-1 13 -1 32 -1 57c0 22 2 36 6 43c4 6 14 9 29 9c7 0 12 -1 17 -4l-1 -25l1 -80l135 1c-1 13 -1 31 -1 56c0 22 2 36 6 43c4 6 14 9 29 9c7 0 12 -1 17 -4l-1 -25l1 -80l158 1c19 -6 29 -16 29 -29v-2c3 -36 3 -75 0 -118c0 -19 -2 -67 -5 -142
l3 -139c23 -17 52 -21 86 -12c26 6 50 17 71 33l2 60v149c0 13 -2 46 -6 101c-3 40 -2 71 1 93c17 11 34 13 51 4c3 -66 4 -128 1 -185c-1 -12 -1 -27 0 -46l1 -46l-3 -84l2 -78c-3 -104 -20 -170 -51 -199c-26 -17 -70 -26 -131 -29c-11 12 -13 25 -7 40c54 5 90 14 108 29
c16 23 26 70 30 143c-65 -49 -122 -58 -171 -28l-35 42c0 241 -1 373 -2 394l-115 2c-5 0 -11 0 -17 -1c0 -29 -1 -63 -2 -102l2 -107l-1 -14v-143c0 -27 8 -41 25 -41c4 0 10 1 18 3c8 1 14 2 17 2c6 0 9 -12 9 -35c0 -11 -17 -16 -50 -16c-45 0 -68 20 -68 60l1 339
c-1 20 -1 37 -1 52v1l-119 2c-5 0 -11 0 -17 -1c0 -29 -1 -63 -2 -102l2 -107l-1 -14v-143c0 -27 8 -41 25 -41c4 0 10 1 18 3c8 1 14 2 17 2c6 0 9 -12 9 -35c0 -11 -17 -16 -50 -16c-45 0 -68 20 -68 60l1 339c-1 20 -1 37 -1 52c-15 -1 -28 -1 -40 -1l-12 12
c-2 0 -3 4 -3 13c0 8 1 17 2 27z" />
    <glyph glyph-name="t_y" unicode="ty" horiz-adv-x="608" 
d="M543 138l2 -78c-3 -104 -20 -170 -51 -199c-26 -17 -70 -26 -131 -29c-11 12 -13 25 -7 40c54 5 90 14 108 29c16 23 26 70 30 143c-65 -49 -122 -58 -171 -28l-35 42c0 241 -1 373 -2 394l-114 2c-5 0 -11 0 -17 -1c0 -29 -1 -63 -2 -102l2 -107l-1 -14v-143
c0 -27 8 -41 25 -41c4 0 10 1 18 3c8 1 14 2 17 2c6 0 9 -12 9 -35c0 -11 -17 -16 -50 -16c-45 0 -68 20 -68 60l1 339c-1 20 -1 37 -1 52c-15 -1 -28 -1 -40 -1l-12 12c-2 0 -3 4 -3 13c0 8 1 17 2 27c0 -1 17 -2 52 -2c-1 13 -1 32 -1 57c0 22 2 36 6 43c4 6 14 9 29 9
c7 0 12 -1 17 -4l-1 -25l1 -80l157 1c6 1 14 -2 25 -9c7 -23 8 -70 4 -140c0 -19 -2 -67 -5 -142l3 -139c23 -17 52 -21 86 -12c26 6 50 17 71 33l2 60v149c0 13 -2 46 -6 101c-3 40 -2 71 1 93c17 11 34 13 51 4c3 -66 4 -128 1 -185c-1 -12 -1 -27 0 -46l1 -46z" />
    <glyph glyph-name=".notdef" horiz-adv-x="0" 
 />
    <glyph glyph-name="NULL" horiz-adv-x="0" 
 />
    <glyph glyph-name="NULL" horiz-adv-x="0" 
 />
    <glyph glyph-name="nonmarkingreturn" horiz-adv-x="340" 
 />
    <glyph glyph-name="space" unicode="&#x9;" horiz-adv-x="333" 
 />
    <glyph glyph-name="space" unicode=" " horiz-adv-x="333" 
 />
    <glyph glyph-name="uni001D" horiz-adv-x="340" 
 />
    <glyph glyph-name="exclam" unicode="!" horiz-adv-x="160" 
d="M56 692c-1 0 1 1 6 2l18 3c18 3 28 1 30 -5l-8 -151c-2 -28 -3 -64 -4 -107c-1 -42 -1 -66 -2 -72c-1 -12 -2 -54 -3 -127c0 -67 -1 -102 -3 -106c-1 -4 -7 -7 -16 -9c-9 -1 -15 0 -17 4c-1 57 -2 86 -1 87s0 115 -3 342l-3 122c0 11 2 17 6 17zM59 81c25 0 37 0 36 1
c3 -2 5 -13 6 -34s1 -35 -2 -40c-5 -8 -20 -9 -43 -4c-3 1 -4 14 -3 39c2 25 4 38 6 38z" />
    <glyph glyph-name="quotedbl" unicode="&#x22;" horiz-adv-x="216" 
d="M82 530c-10 -7 -19 -9 -28 -7c-1 14 -2 38 -3 73l-1 64l3 37c5 3 12 3 22 2c9 -1 14 -4 15 -8c2 -23 -1 -76 -8 -161zM157 530c-10 -7 -19 -9 -28 -7c-1 14 -2 38 -3 73l-1 64l3 37c5 3 12 3 22 2c9 -1 14 -4 15 -8c2 -23 -1 -76 -8 -161z" />
    <glyph glyph-name="numbersign" unicode="#" horiz-adv-x="412" 
d="M274 646c23 5 39 5 49 0c0 -7 -2 -26 -5 -57c0 -19 -2 -38 -5 -58c-3 -15 -6 -47 -11 -94c16 1 31 1 45 1c7 1 11 -6 13 -22c1 -16 0 -25 -5 -26l-58 3c1 3 -2 -24 -9 -79c-1 -13 -3 -35 -4 -64c16 0 30 0 42 1l15 -12c1 0 2 -13 2 -40c-17 1 -38 2 -63 2v-3
c-10 -107 -17 -172 -22 -193c-12 -7 -27 -7 -45 -1l6 83l12 115h-23c-17 0 -36 0 -55 -1c-7 -69 -12 -135 -14 -196c-23 -5 -40 -5 -50 0c0 7 2 26 5 57c0 24 2 43 5 58c1 10 3 23 4 40l4 40h-44c-7 -1 -11 6 -13 23c-1 17 0 26 5 27l57 -3c7 40 11 70 14 90c0 13 1 31 3 53
c-18 -1 -33 -1 -46 -1l-14 12c-2 0 -3 13 -3 38c0 -1 22 -2 66 -3c10 124 19 194 28 210c11 7 25 7 43 1c-1 3 -3 -25 -7 -83l-14 -128h74c7 70 13 140 18 210zM176 391l-18 -143c34 0 60 0 78 1l15 143c-15 -1 -40 -1 -75 -1z" />
    <glyph glyph-name="dollar" unicode="$" horiz-adv-x="354" 
d="M149 229l1 73c-16 12 -28 22 -36 30c-29 27 -49 63 -60 108c-3 9 -4 50 -4 123c0 49 8 85 25 110l72 22c0 10 1 27 2 51c18 11 31 14 39 7c1 -12 2 -30 2 -54c19 0 42 -3 69 -9c11 -31 17 -78 19 -142c3 -71 -3 -116 -17 -136c-19 0 -29 0 -30 1c3 144 2 222 -4 235
c-10 9 -23 13 -38 12l-3 -84v-204c-1 -7 -1 -18 -1 -33l99 -78c24 -93 27 -158 10 -195c-2 -6 -11 -17 -28 -32c-16 -16 -27 -25 -33 -27c-18 -4 -33 -6 -46 -7l-1 -46c-4 -5 -11 -8 -20 -11c-11 -3 -18 -2 -21 3c-1 16 0 34 2 54c-25 2 -44 7 -57 15c-21 13 -33 46 -34 97
c-1 19 -1 55 -1 106c0 13 2 20 7 19l30 -10c7 -8 9 -24 6 -48c-1 -7 1 -38 4 -93c1 -19 17 -30 48 -33c1 5 1 11 1 19v57c0 39 -1 72 -2 100zM242 231c-16 17 -35 33 -57 48c1 -99 2 -174 2 -225c13 1 25 2 36 5c35 51 42 109 19 172zM108 624c-15 -93 -9 -172 16 -235
l28 -23v76c0 37 -1 86 -3 148c-1 29 -2 50 -2 61c-19 -8 -32 -17 -39 -27z" />
    <glyph glyph-name="percent" unicode="%" horiz-adv-x="592" 
d="M256 688c13 -66 11 -133 -6 -200c-22 -20 -54 -30 -95 -30c-39 -1 -73 8 -102 25c-7 79 -3 142 11 188c18 15 50 23 97 26c43 3 75 0 95 -9zM98 645c-19 -45 -19 -93 0 -142c55 -15 94 -10 117 13c15 47 15 95 0 143c-53 14 -92 9 -117 -14zM534 227
c13 -66 11 -133 -6 -200c-22 -20 -54 -30 -95 -30c-39 -1 -73 8 -102 25c-7 79 -3 142 11 188c18 15 50 23 97 26c43 3 75 0 95 -9zM376 184c-19 -45 -19 -93 0 -142c55 -15 94 -10 117 13c15 47 15 95 0 143c-53 14 -92 9 -117 -14zM360 696h6c16 5 31 5 44 0
c-1 -10 -6 -31 -15 -63c-7 -31 -13 -51 -16 -62c-5 -14 -11 -34 -18 -61s-13 -46 -17 -59c-13 -37 -25 -76 -37 -118l-15 -63c-7 -28 -12 -49 -16 -63l-17 -52c-31 -101 -48 -154 -51 -159c-12 -5 -25 -6 -38 -1c-1 7 7 37 22 90c2 9 6 23 13 42c6 19 10 33 13 43
c5 15 13 45 23 90l13 44c5 17 9 32 12 43c2 5 4 13 6 24c2 10 4 17 5 21l14 41c2 5 4 12 7 22l6 21c-1 -5 4 9 15 41c7 20 14 50 21 89c7 41 14 71 20 90z" />
    <glyph glyph-name="ampersand" unicode="&#x26;" horiz-adv-x="486" 
d="M252 634c-16 17 -38 25 -67 22s-52 -14 -69 -34c-20 -39 -25 -76 -16 -111c14 -49 28 -76 42 -83c5 -1 17 3 35 10c17 7 27 10 29 9c4 -1 6 -7 7 -18c0 -11 -2 -17 -6 -20c-27 -20 -46 -35 -56 -44c-18 -17 -33 -61 -46 -133c-15 -78 -11 -131 10 -160
c21 -13 51 -20 88 -19c44 1 81 13 111 36c15 65 10 133 -13 202c-29 3 -50 -4 -64 -23c-12 -15 -16 -33 -13 -54c-2 -5 -9 -6 -21 -3c-13 3 -20 8 -22 15c0 46 14 77 42 94c21 12 57 18 107 19c35 1 56 9 61 24c-2 -5 -1 15 3 60c7 9 21 10 41 4c1 -47 -3 -80 -12 -97
c-13 -24 -42 -37 -85 -38c36 -115 42 -196 17 -241c-43 -40 -102 -57 -177 -51c-69 5 -108 23 -117 54c-13 47 -14 106 -5 177c9 67 25 120 46 158c-30 37 -47 81 -51 132s6 97 30 136c13 25 49 39 106 41c59 3 97 -9 115 -34c8 -34 5 -68 -8 -102c-20 -3 -33 0 -38 8
c2 23 1 45 -4 64z" />
    <glyph glyph-name="quotesingle" unicode="'" horiz-adv-x="149" 
d="M90 530c-15 -7 -27 -9 -36 -7c-1 14 -2 38 -3 73l-1 64l3 37c5 3 13 3 26 2c12 -1 18 -4 19 -8c2 -23 -1 -76 -8 -161z" />
    <glyph glyph-name="parenleft" unicode="(" horiz-adv-x="352" 
d="M295 719c9 -12 7 -24 -4 -35c-61 -37 -112 -99 -153 -186c-25 -47 -35 -118 -30 -214c2 -35 8 -72 18 -112c24 -88 80 -164 167 -229c11 -14 11 -28 0 -42c-65 15 -124 67 -177 156c-4 10 -11 25 -20 44s-16 34 -20 43c-23 67 -31 139 -24 216c7 76 27 142 60 198
c37 56 67 94 90 115c25 27 56 43 93 46z" />
    <glyph glyph-name="parenright" unicode=")" horiz-adv-x="350" 
d="M56 719c37 -3 67 -19 92 -46c23 -21 53 -59 90 -115c33 -56 52 -122 59 -198c7 -77 0 -149 -23 -216c-4 -9 -11 -24 -20 -43s-16 -34 -20 -44c-53 -89 -111 -141 -176 -156c-11 14 -11 28 0 42c87 65 142 141 166 229c10 40 16 77 18 112c5 96 -5 167 -30 214
c-41 87 -92 149 -152 186c-11 11 -13 23 -4 35z" />
    <glyph glyph-name="asterisk" unicode="*" horiz-adv-x="276" 
d="M153 699l4 -104l63 29c7 -17 8 -27 3 -31c-5 -8 -21 -22 -50 -41l39 -83c-11 -19 -19 -26 -26 -20l-48 73l-52 -73c-19 3 -28 10 -27 21l47 82l-54 42c-4 7 0 19 12 36l54 -34l8 96c1 5 10 7 27 7z" />
    <glyph glyph-name="plus" unicode="+" 
d="M159 174c-1 0 -1 41 -1 124l-93 -2l-12 12c-3 0 -4 7 -3 20c1 4 1 8 1 12c1 4 1 5 1 3s35 -3 106 -3c-1 53 -2 92 -2 116c-1 6 6 11 21 14s24 3 25 -2l-2 -47c0 -24 0 -51 1 -81c49 1 81 2 94 2c6 1 9 -6 10 -21s0 -23 -5 -24l-40 3l-58 -1l3 -129c-7 -3 -23 -2 -46 4z
" />
    <glyph glyph-name="comma" unicode="," horiz-adv-x="159" 
d="M102 -7c-6 -28 -18 -54 -37 -79c-9 3 -13 8 -12 13c15 38 22 60 19 65c-7 2 -14 5 -19 8c-5 31 -4 50 3 58c31 7 47 8 49 2c7 -17 6 -40 -3 -67z" />
    <glyph glyph-name="hyphen" unicode="-" 
d="M50 348c0 -2 39 -3 117 -3l126 2c6 1 9 -6 10 -23s0 -26 -5 -27l-40 3l-195 -4l-12 12c-1 0 -1 13 -1 40z" />
    <glyph glyph-name="period" unicode="." horiz-adv-x="159" 
d="M100 1c-15 -6 -31 -6 -47 -1c-5 31 -4 50 3 58c31 7 47 8 49 2c7 -16 5 -36 -5 -59z" />
    <glyph glyph-name="slash" unicode="/" horiz-adv-x="354" 
d="M251 712h7c17 6 33 6 46 0c-1 -9 -6 -34 -16 -73c-7 -34 -13 -58 -17 -71c-5 -15 -11 -38 -18 -69l-19 -69c-15 -49 -28 -94 -39 -136c-4 -16 -9 -40 -16 -72c-7 -33 -13 -57 -17 -73c-1 -6 -4 -16 -8 -29l-9 -30c-33 -117 -51 -178 -54 -183c-13 -6 -27 -6 -40 -1
c0 5 8 40 23 104c3 11 7 27 14 48s11 37 14 48l24 104l26 101c2 7 4 16 6 27c3 13 5 21 6 25c-1 -3 4 12 15 47c2 5 4 14 7 25l6 24l16 48c7 23 14 56 22 101c8 48 15 83 21 104z" />
    <glyph glyph-name="zero" unicode="0" horiz-adv-x="355" 
d="M302 639l3 -174v-108c0 -23 -1 -57 -2 -101s-2 -78 -2 -102c0 -7 1 -17 2 -30c1 -14 2 -24 2 -31c0 -65 -48 -98 -144 -98c-33 0 -58 8 -73 24l-31 52c-3 121 -5 263 -5 425c0 14 -1 35 -2 63l10 76c31 43 80 65 146 65c27 0 48 -7 63 -20c5 -4 10 -10 17 -19zM102 599
c-3 -15 -4 -27 -4 -34l2 -42c1 -25 2 -44 2 -57s-1 -32 -2 -57s-2 -44 -2 -57c0 -18 1 -43 4 -76s4 -57 4 -73l-1 -61c0 -67 16 -101 47 -101c25 0 47 5 67 15c22 11 35 26 39 45c-1 100 -2 171 -2 214c0 107 3 208 8 301c-8 23 -32 34 -73 34c-51 0 -81 -17 -89 -51z" />
    <glyph glyph-name="one" unicode="1" horiz-adv-x="219" 
d="M159 350l2 -78v-137c0 -11 1 -31 4 -60c3 -28 4 -49 3 -62c-5 -5 -14 -8 -26 -9c-13 -1 -21 0 -26 5c-3 43 -3 101 -2 176c1 89 1 148 0 179l-2 246c-23 -24 -43 -21 -62 8c-3 -2 19 20 66 67l1 4c15 10 31 11 46 4l1 -26c1 -29 0 -76 -3 -141c-1 -12 -1 -27 0 -46l1 -46
z" />
    <glyph glyph-name="two" unicode="2" horiz-adv-x="355" 
d="M69 653c43 38 90 55 141 50c43 -3 68 -14 73 -32c17 -25 25 -61 25 -110c0 -113 -2 -178 -7 -195c-11 -45 -31 -81 -60 -108c-35 -33 -66 -71 -91 -113c-31 -51 -37 -84 -18 -99c38 -9 95 -6 171 10c5 -3 5 -21 -2 -56c-123 0 -195 1 -215 4c-29 29 -30 70 -2 123
c23 44 72 107 147 188c32 81 38 185 19 312c-11 24 -36 33 -75 28c-38 -6 -60 -20 -67 -41c-6 -20 -9 -73 -9 -158c-3 -8 -10 -11 -21 -10c-10 1 -17 4 -21 9c-12 101 -8 167 12 198z" />
    <glyph glyph-name="three" unicode="3" horiz-adv-x="355" 
d="M229 650l-162 -2c-6 -7 -11 -1 -14 18s-2 28 3 29l221 1l14 -21c-3 -4 -7 -11 -12 -22s-9 -19 -12 -24c-5 -9 -25 -39 -58 -89c-30 -45 -49 -75 -57 -90c31 1 58 -5 80 -19c50 -32 74 -88 73 -169c-1 -65 -12 -113 -32 -143c-41 -61 -105 -100 -193 -117
c-9 0 -16 7 -20 20c-5 13 -2 23 8 29c53 17 88 31 103 44c29 23 47 41 55 53c19 28 29 65 30 110c1 27 -6 54 -19 79c-14 27 -32 45 -53 55c-4 1 -31 5 -82 11l-9 40c8 16 31 51 70 105c37 50 59 84 66 102z" />
    <glyph glyph-name="four" unicode="4" horiz-adv-x="350" 
d="M201 693c6 15 23 17 51 4c3 -43 2 -100 -2 -171c-1 -12 -1 -27 0 -46l1 -46l-3 -84l2 -78c-1 -3 -1 -7 -1 -12l42 3c9 -2 11 -18 7 -49l-48 -1v-78c0 -11 1 -31 4 -62c3 -30 4 -52 3 -65c-5 -5 -14 -8 -26 -9c-13 -1 -21 0 -26 5c-3 45 -3 114 -2 208c-46 0 -89 1 -129 2
l-24 28l8 43c8 34 34 110 78 227c42 113 64 174 65 181zM203 364v176l-1 26c-45 -119 -78 -218 -98 -296l6 -14c29 0 60 1 93 2c1 36 1 71 0 106z" />
    <glyph glyph-name="five" unicode="5" horiz-adv-x="359" 
d="M84 700h210c10 0 10 -13 0 -40c-1 -3 -31 -5 -88 -6c-57 0 -86 -2 -86 -6c-1 -13 -4 -44 -11 -91c-6 -45 -9 -76 -10 -94l51 -15c24 -7 41 -13 51 -17c53 -23 87 -73 102 -152c13 -73 7 -126 -18 -160c-46 -61 -113 -100 -201 -117c-9 0 -16 7 -20 20c-5 13 -2 23 8 29
c61 19 98 33 111 44c59 49 82 106 70 172c-9 54 -45 96 -108 125l-79 37l-15 22c-2 123 9 206 33 249z" />
    <glyph glyph-name="six" unicode="6" 
d="M284 451c15 -19 22 -86 21 -200c-2 -96 -6 -161 -12 -194c-7 -33 -44 -52 -110 -57c-65 -4 -101 8 -107 35c-29 59 -34 202 -15 428c15 117 27 179 34 186c53 40 113 57 180 50c2 -3 3 -10 3 -23s-1 -20 -4 -21c-58 2 -103 -11 -134 -40c-17 -23 -28 -74 -31 -152
c38 37 79 46 122 27c21 -9 39 -22 53 -39zM243 71c17 48 23 142 16 283c-1 22 -3 36 -5 43c-8 29 -32 45 -72 47c-41 1 -68 -18 -79 -57c-13 -107 -10 -214 9 -321c7 -17 29 -24 66 -23s58 11 65 28z" />
    <glyph glyph-name="seven" unicode="7" horiz-adv-x="354" 
d="M250 647c-61 8 -111 8 -151 1l2 -39c-6 -3 -15 -3 -26 0c-10 2 -17 5 -20 9c-3 23 -5 45 -5 64c13 7 56 12 127 15c73 3 113 -1 119 -10c17 -83 1 -170 -50 -261c-85 -152 -127 -226 -126 -222c-5 -14 -6 -50 -5 -109c1 -57 0 -88 -3 -93c-2 -3 -10 -5 -24 -4
s-21 3 -21 6c-5 135 0 216 14 243c7 13 24 43 53 92c29 47 50 85 65 114c50 96 67 161 51 194z" />
    <glyph glyph-name="eight" unicode="8" horiz-adv-x="363" 
d="M306 72c-13 -49 -56 -74 -129 -74c-65 0 -105 25 -119 74c-5 32 -8 67 -8 105c0 103 12 179 37 228c-21 52 -31 102 -31 149c0 38 7 75 20 110c17 24 55 36 114 36c51 0 83 -10 97 -31c16 -39 24 -80 24 -124c0 -59 -13 -107 -38 -146c27 -55 40 -134 40 -237
c0 -36 -2 -66 -7 -90zM138 378c-28 -21 -42 -89 -42 -202c0 -55 8 -93 23 -113c15 -11 35 -16 61 -16c33 0 56 4 69 13c13 19 19 54 19 104c0 117 -13 186 -38 209c-17 5 -39 8 -64 8c-15 0 -24 -1 -28 -3zM124 638l-17 -21c-3 -23 -5 -49 -5 -78c0 -50 14 -86 43 -107
c8 -4 32 -6 71 -6c21 4 35 20 44 47c5 14 7 27 7 38c0 28 -3 67 -8 118c-7 21 -31 31 -73 31c-21 0 -41 -7 -62 -22z" />
    <glyph glyph-name="nine" unicode="9" 
d="M71 250c-15 19 -22 86 -21 200c2 96 6 161 12 194c7 33 44 52 110 57c65 4 101 -8 107 -35c29 -59 34 -202 15 -428c-15 -117 -27 -179 -34 -186c-53 -40 -113 -57 -180 -50c-2 3 -3 10 -2 23s2 20 5 21c61 -2 107 11 138 40c12 17 20 67 24 152
c-38 -37 -78 -46 -121 -27c-21 9 -39 22 -53 39zM112 630c-17 -48 -23 -142 -16 -283c1 -22 3 -36 5 -43c8 -29 32 -45 72 -47c41 -1 68 18 79 57c13 107 10 214 -9 321c-7 17 -29 24 -66 23s-58 -11 -65 -28z" />
    <glyph glyph-name="colon" unicode=":" horiz-adv-x="159" 
d="M100 440c-15 -6 -31 -6 -47 -1c-5 31 -4 50 3 58c31 7 47 8 49 2c7 -16 5 -36 -5 -59zM100 5c-15 -6 -31 -6 -47 -1c-5 31 -4 50 3 58c31 7 47 8 49 2c7 -16 5 -36 -5 -59z" />
    <glyph glyph-name="semicolon" unicode=";" horiz-adv-x="159" 
d="M102 -7c-6 -28 -18 -54 -37 -79c-9 3 -13 8 -12 13c15 38 22 60 19 65c-7 2 -14 5 -19 8c-5 31 -4 50 3 58c31 7 47 8 49 2c7 -17 6 -40 -3 -67zM100 440c-15 -6 -31 -6 -47 -1c-5 31 -4 50 3 58c31 7 47 8 49 2c7 -16 5 -36 -5 -59z" />
    <glyph glyph-name="less" unicode="&#x3c;" horiz-adv-x="355" 
d="M291 506c7 -3 12 -10 13 -22s-1 -20 -6 -25c-13 -7 -37 -25 -73 -54s-64 -49 -83 -58l-31 -33v-18c47 -43 107 -85 180 -124c7 -11 10 -24 7 -40c-3 -17 -7 -21 -14 -14c-104 63 -159 96 -164 99c-39 26 -61 45 -67 58c-7 37 -4 61 9 73c111 85 187 137 229 158z" />
    <glyph glyph-name="equal" unicode="=" 
d="M50 288c0 -2 39 -3 117 -3l126 2c6 1 9 -6 10 -23s0 -26 -5 -27l-40 3l-195 -4l-12 12c-1 0 -1 13 -1 40zM50 403c0 -2 39 -3 117 -3l126 2c6 1 9 -6 10 -22s0 -25 -5 -26l-40 3l-195 -4l-12 12c-1 0 -1 13 -1 38z" />
    <glyph glyph-name="greater" unicode="&#x3e;" horiz-adv-x="355" 
d="M64 506c42 -21 118 -73 229 -158c13 -12 16 -36 9 -73c-6 -13 -28 -32 -67 -58c-5 -3 -60 -36 -164 -99c-7 -7 -11 -3 -14 14c-3 16 0 29 7 40c73 39 133 81 180 124v18l-31 33c-19 9 -47 29 -83 58s-60 47 -73 54c-5 5 -7 13 -6 25s6 19 13 22z" />
    <glyph glyph-name="question" unicode="?" horiz-adv-x="361" 
d="M96 473c-3 -6 -8 -9 -17 -9s-16 4 -20 13c-9 30 -10 98 -3 203c12 16 46 23 101 22c59 -1 100 -15 123 -41c19 -21 28 -54 28 -100l2 -64c1 -29 2 -53 1 -72c-3 -56 -14 -93 -34 -112c-5 -4 -14 -9 -26 -16c-14 -7 -24 -13 -29 -17c-22 -15 -33 -35 -33 -60l-5 -27l1 -61
c-3 -6 -9 -10 -20 -11s-19 0 -26 3c-1 71 2 116 9 135c7 20 31 44 72 71c17 12 29 24 37 35v228c-11 29 -30 48 -57 59c-26 10 -56 10 -89 1c-21 -37 -26 -97 -15 -180zM182 1c-15 -6 -31 -6 -47 -1c-5 31 -4 50 3 58c31 7 47 8 49 2c7 -16 5 -36 -5 -59z" />
    <glyph glyph-name="at" unicode="@" horiz-adv-x="493" 
d="M393 106l-26 -22c-54 1 -85 25 -94 70l-53 -39l-38 12c-12 33 -18 87 -19 163c-1 69 3 120 11 155c6 25 20 47 41 67c24 23 49 34 75 33l38 -47c2 -121 0 -201 -7 -238c-15 -77 -4 -117 35 -121c26 21 39 82 40 181l2 54c1 31 -1 62 -5 93c0 15 -5 47 -16 95
c-11 49 -19 76 -25 83c-15 19 -47 22 -96 10c-44 -11 -76 -27 -96 -47c-37 -88 -56 -165 -58 -231c-1 -63 0 -115 4 -156c7 -87 22 -151 45 -192c1 -4 16 -15 43 -33c29 -20 43 -29 42 -28c5 -3 28 3 68 20c44 18 68 27 71 28c11 -1 19 -11 25 -31l-149 -70l-61 23
c-20 6 -40 19 -60 38c-27 26 -45 56 -52 89c-23 96 -32 196 -27 300c5 123 30 222 74 297c85 36 169 46 254 30c29 -53 48 -118 59 -197c13 -103 6 -215 -21 -336zM211 422c-3 -131 -2 -218 5 -259c31 17 52 44 62 79l12 236c-13 12 -29 10 -47 -7c-15 -13 -25 -30 -32 -49z
" />
    <glyph glyph-name="A" unicode="A" horiz-adv-x="345" 
d="M204 698c8 -33 15 -86 21 -159c7 -83 13 -137 18 -163c11 -63 16 -89 15 -79c21 -191 33 -286 36 -283c-1 -13 -18 -16 -53 -11c-1 3 -2 16 -4 38l-7 69c-8 69 -16 122 -24 158c-7 1 -22 1 -44 0l-42 -3c-8 -68 -13 -111 -14 -129c-3 -29 -4 -69 -4 -119
c0 -8 -7 -12 -20 -11l-32 1c14 175 28 317 43 427c24 176 35 262 33 258c29 11 55 13 78 6zM130 314l68 5c0 25 -3 78 -10 158c-7 84 -11 137 -12 160c-1 3 -4 5 -9 4s-9 -4 -10 -7c-3 -20 -7 -66 -12 -138c-5 -79 -10 -139 -15 -182z" />
    <glyph glyph-name="B" unicode="B" horiz-adv-x="351" 
d="M64 7c-4 14 -6 87 -6 220l-6 71c-2 41 -2 118 0 229c2 92 1 142 -2 150c74 20 140 26 199 17c7 -5 13 -27 18 -68c9 -69 11 -116 7 -143c-1 -3 -2 -21 -4 -53c-2 -30 -4 -47 -5 -50c-7 -21 -13 -35 -18 -40l-27 -16c3 -5 14 -15 34 -30c21 -17 32 -27 35 -30
c23 -79 20 -159 -10 -238l-52 -23h-39c-33 0 -75 1 -124 4zM96 636c3 -206 4 -307 3 -304c47 3 80 15 101 36c23 23 34 69 35 138c1 63 -6 109 -19 139c-47 11 -87 8 -120 -9zM250 108c1 11 0 31 -1 59c0 34 -4 55 -11 64c-19 29 -41 52 -66 70l-37 -9
c-17 -4 -27 -10 -30 -19c1 1 0 -13 -2 -41c-1 -16 -1 -41 1 -76c3 -43 4 -78 4 -105c49 -7 82 -9 101 -6c25 11 38 32 41 63z" />
    <glyph glyph-name="C" unicode="C" horiz-adv-x="351" 
d="M286 463c-16 0 -26 4 -31 11c-2 11 -1 42 2 92c2 31 -4 61 -17 91c-46 5 -87 -6 -123 -35c-5 -20 -13 -103 -23 -250c-1 -31 0 -67 2 -106c1 -43 2 -77 2 -101c5 -55 8 -84 11 -87c15 -19 59 -23 130 -11l11 26c2 5 4 27 6 65c2 33 5 51 10 52l24 9c7 2 10 -14 10 -48
c0 -65 -2 -103 -6 -115c-5 -15 -19 -27 -40 -34c-63 -18 -106 -24 -131 -17c-12 3 -27 10 -45 21c-19 47 -28 81 -27 100v303c0 63 7 136 20 217c21 25 58 42 112 51c57 10 96 4 117 -19c-1 -111 -6 -183 -14 -215z" />
    <glyph glyph-name="D" unicode="D" horiz-adv-x="357" 
d="M52 449l-2 217l19 32c83 1 143 -12 179 -37c18 -12 34 -34 48 -67c5 -33 8 -88 8 -165c3 -52 3 -94 2 -125c-2 -31 -2 -57 -1 -78l1 -74c-10 -47 -21 -80 -34 -99c-26 -39 -68 -56 -127 -52c-61 3 -91 4 -91 5c-1 4 -2 152 -2 443zM96 502l3 -94l3 -357
c66 -5 110 9 131 41c15 24 24 75 27 152c0 55 -1 97 -2 126c3 70 2 133 -5 189c-1 32 -21 55 -60 69c-31 11 -61 14 -90 11c-3 -10 -5 -39 -8 -88c1 -6 2 -14 1 -24c-1 -12 -1 -20 0 -25z" />
    <glyph glyph-name="E" unicode="E" horiz-adv-x="332" 
d="M287 659c-7 0 -66 -6 -178 -19c-1 -14 -3 -47 -8 -100c-4 -43 -6 -81 -5 -112c2 -40 3 -61 4 -63c4 -14 24 -20 59 -19c49 1 76 1 81 0c9 -15 5 -27 -12 -38c-74 -6 -108 -8 -102 -6c-5 -2 -9 -4 -10 -6c-1 -3 -4 -5 -7 -6c-2 -4 -4 -52 -6 -145c-1 -31 1 -58 7 -81
c15 -10 57 -13 126 -10c7 0 18 2 34 6c13 3 24 3 31 2c2 -5 2 -20 0 -43l-74 -12c-43 -5 -69 -7 -77 -6c-10 1 -26 3 -47 7c-23 3 -38 5 -45 6c-2 17 -3 41 -4 73c-1 39 -2 65 -3 79c-1 6 -1 22 0 47l2 47c-2 27 -3 81 -3 162c0 16 1 41 2 76c1 34 2 60 2 78c0 50 2 81 7 92
c40 23 117 31 232 26c6 -1 7 -6 3 -15c-6 -15 -9 -22 -9 -20z" />
    <glyph glyph-name="F" unicode="F" horiz-adv-x="344" 
d="M288 653c-97 3 -158 -5 -181 -24c-10 -21 -14 -88 -11 -201c2 -40 3 -61 4 -63c-4 13 43 9 140 -13c5 -7 6 -15 3 -24s-7 -16 -14 -20c-5 -1 -26 -1 -61 0c-26 0 -45 -2 -57 -6l-9 -23c-8 -19 -9 -63 -2 -134c1 -13 2 -28 1 -45c0 -18 0 -31 1 -38l4 -51
c-27 -8 -45 -10 -52 -7c-2 16 -3 42 -2 78c1 40 0 68 -1 84c-1 6 -1 22 0 47l2 47c-2 27 -3 81 -3 162l2 157c0 51 3 84 8 97c45 18 126 24 241 19c7 -1 9 -7 4 -20c-4 -13 -10 -21 -17 -22z" />
    <glyph glyph-name="G" unicode="G" horiz-adv-x="357" 
d="M291 405c-5 1 -11 2 -17 5c-7 3 -11 5 -14 6c-2 11 -1 42 2 92c3 41 -3 91 -17 149c-51 6 -94 -6 -131 -35c-7 -26 -10 -64 -10 -113c0 -71 -1 -118 -2 -139c-1 -15 -1 -86 -1 -215l6 -68c28 -35 71 -47 129 -38l13 19c19 51 24 110 15 177c-5 1 -14 1 -29 2
c-12 0 -21 1 -26 3c-1 1 -1 7 0 18l1 23c62 -4 91 -4 87 1c2 -2 3 -27 3 -74c0 -117 0 -177 -1 -179c-5 -15 -19 -27 -40 -34c-46 -14 -109 -7 -190 22c-11 53 -17 88 -16 104c1 20 1 59 -2 117c-2 48 -1 85 3 112c-1 -6 -1 17 -1 69c0 96 4 168 12 217c21 25 60 42 118 51
c60 10 101 4 122 -19c-2 -152 -7 -243 -14 -273z" />
    <glyph glyph-name="H" unicode="H" 
d="M299 677c-5 -132 -7 -246 -7 -342c0 -57 3 -141 8 -252c3 -47 3 -73 0 -80c-27 -3 -47 -1 -58 6l3 82c3 40 4 72 4 97l2 54c1 24 1 44 0 59c-7 -1 -29 0 -64 2c-27 1 -46 0 -59 -5l-28 -26c-1 -2 -1 -29 -1 -81l2 -79c0 -13 -1 -31 -3 -54c-2 -27 -3 -46 -3 -57
c-16 -3 -30 2 -42 14c-3 41 -2 99 1 173c3 83 4 141 3 176c-3 65 -4 115 -4 149c0 104 2 164 5 180c15 9 30 9 47 0c2 -13 0 -69 -5 -167c-1 -12 -1 -27 0 -46l1 -46c0 -48 2 -77 6 -86c20 -4 68 -3 143 4c-3 27 -2 56 3 89c3 22 2 63 -3 124c-4 53 -3 95 4 125
c1 7 10 8 25 4c15 -3 22 -9 20 -17z" />
    <glyph glyph-name="I" unicode="I" horiz-adv-x="157" 
d="M96 350l2 -78v-137c0 -11 1 -31 4 -60c3 -28 4 -49 3 -62c-5 -5 -14 -8 -26 -9c-13 -1 -21 0 -26 5c-3 43 -3 101 -2 176c1 89 1 148 0 179v149c0 105 1 163 3 176c15 10 31 11 46 4c2 -41 1 -97 -2 -167c-1 -12 -1 -27 0 -46l1 -46z" />
    <glyph glyph-name="J" unicode="J" horiz-adv-x="352" 
d="M53 229c7 10 22 14 44 12c1 -11 2 -35 1 -74c-1 -31 1 -54 6 -69c2 -9 9 -19 22 -32c10 -9 27 -15 51 -17c25 -3 43 1 53 10c11 9 17 27 18 54c1 7 1 19 0 36c0 17 0 29 1 38c2 52 3 137 3 254c0 15 -1 38 -2 67s-2 51 -2 65c0 79 0 119 1 121l47 6c3 -2 5 -11 4 -26
l-1 -300c0 -112 0 -163 1 -153c-1 -5 -1 -12 -1 -21l-1 -54c0 -26 0 -46 -1 -61c0 -17 -1 -29 -2 -35l-21 -40c-29 -9 -64 -11 -103 -8c-47 4 -80 16 -99 37c-9 11 -16 43 -20 95c-3 47 -3 79 1 95z" />
    <glyph glyph-name="K" unicode="K" horiz-adv-x="399" 
d="M326 6c-22 -12 -39 -13 -52 -4c-7 5 -16 25 -28 59c-3 16 -5 27 -8 32c-48 122 -71 180 -68 175c-16 33 -27 62 -34 89c-21 -27 -32 -42 -33 -45s-1 -36 -1 -100l2 -202c-5 -9 -21 -13 -50 -11c-1 10 -1 119 -1 327l-3 243c0 15 0 34 1 56l1 51c10 17 27 24 50 19
c1 -24 0 -63 -3 -118c-3 -54 -4 -95 -3 -122v-73c23 33 57 85 100 154c47 75 80 127 100 156c5 4 12 6 23 7c13 1 23 -3 30 -11c1 2 -27 -42 -83 -131c-15 -21 -32 -49 -53 -82l-46 -71l85 -201c35 -79 55 -128 62 -148c9 -25 13 -41 12 -49z" />
    <glyph glyph-name="L" unicode="L" horiz-adv-x="322" 
d="M96 350v-215c0 3 2 -21 6 -73c3 -1 6 -4 11 -8l111 2l61 8c8 -2 11 -11 10 -28c-2 -17 -4 -25 -7 -23l-13 -10l-38 -1c-16 -1 -29 -1 -39 0c-47 0 -75 0 -86 -1h-38c-10 -1 -17 0 -21 4c-3 43 -3 102 -2 178c1 90 1 150 0 181v149c0 105 1 163 3 176c16 11 33 12 51 3
c1 -10 -2 -65 -7 -166c-1 -12 -1 -27 0 -46l1 -46z" />
    <glyph glyph-name="M" unicode="M" horiz-adv-x="567" 
d="M477 686l35 -42c0 -383 2 -594 5 -635c-21 -15 -38 -17 -53 -8c-7 26 -9 75 -5 147c0 19 2 134 5 344l-3 139c-42 28 -93 22 -154 -19v-603c-4 -3 -12 -4 -25 -5c-14 -1 -24 1 -29 5c0 81 0 127 1 139c0 19 2 134 5 344l-3 139c-43 29 -95 22 -156 -19
c-1 -28 -2 -48 -2 -60l2 -78v-339c0 -11 1 -31 4 -60c3 -28 4 -49 3 -62c-5 -5 -14 -8 -27 -9s-22 0 -27 5c-3 43 -3 135 -1 277c1 156 2 249 1 280v121c14 17 29 21 46 12l2 -42c65 50 122 60 171 29l27 -33c68 53 127 64 178 33z" />
    <glyph glyph-name="N" unicode="N" horiz-adv-x="360" 
d="M270 685l35 -42c0 -382 2 -593 5 -634c-21 -15 -38 -17 -53 -8c-7 26 -9 75 -5 147c0 19 2 134 5 343l-3 139c-43 29 -95 22 -156 -19c-1 -28 -2 -48 -2 -60l2 -416c0 -11 1 -31 4 -60c3 -28 4 -49 3 -62c-5 -5 -14 -8 -26 -9c-13 -1 -21 0 -26 5c-3 43 -3 136 -2 277
c1 157 1 250 0 279v121c14 17 29 21 46 12l2 -42c65 50 122 60 171 29z" />
    <glyph glyph-name="O" unicode="O" horiz-adv-x="352" 
d="M297 645c2 -30 2 -71 1 -122c-2 -51 -2 -94 1 -129c1 -21 1 -48 0 -82c-1 -41 -2 -68 -2 -81l-1 -77c0 -5 1 -18 3 -38c1 -16 1 -28 0 -37c1 5 -6 -9 -19 -43c-3 -1 -10 -6 -19 -15c-9 -8 -17 -13 -24 -15c-55 -17 -99 -18 -132 -3c-13 6 -30 26 -51 60
c-1 14 -1 45 -1 94c-1 39 -2 72 -3 99s0 69 1 128c1 53 1 95 -1 125c0 67 2 107 6 119c3 15 16 30 39 43c18 13 47 24 86 34c13 3 36 -1 68 -12c10 -4 26 -20 48 -48zM99 599c-3 -17 -3 -39 -2 -68c3 -46 2 -98 -1 -155c-1 -23 -1 -53 2 -89c3 -41 5 -69 5 -84
c0 -63 1 -102 4 -117c7 -34 29 -48 64 -43c42 4 70 23 84 58c-7 164 -6 336 4 515c-9 25 -35 36 -80 34c-46 -3 -73 -20 -80 -51z" />
    <glyph glyph-name="P" unicode="P" horiz-adv-x="352" 
d="M96 636c3 -206 4 -307 3 -304c63 3 104 15 124 36c23 23 35 69 36 139c1 64 -5 111 -18 141c-56 13 -104 9 -145 -12zM270 330c-33 -17 -71 -29 -114 -38c-31 -7 -48 -13 -51 -19c1 1 0 -13 -2 -41c-1 -16 -1 -41 1 -76c3 -43 4 -78 4 -105l3 -51l-61 8c4 31 6 106 6 223
c0 14 -1 36 -4 67c-2 41 -2 118 0 229c2 92 1 142 -2 150c85 23 159 29 224 20c11 -7 18 -28 23 -62c14 -109 11 -194 -9 -255c-11 -32 -17 -49 -18 -50z" />
    <glyph glyph-name="Q" unicode="Q" horiz-adv-x="353" 
d="M298 663c1 -18 2 -108 2 -269l-1 -82c-1 -35 -2 -62 -1 -81l-1 -77c0 -5 1 -18 3 -38c1 -16 1 -28 0 -37c1 5 -6 -9 -19 -43c-3 -1 -8 -5 -15 -11c-8 -7 -14 -12 -18 -15c32 -17 49 -31 52 -43c-1 -7 -5 -15 -12 -25c-8 -10 -15 -15 -20 -16c-25 39 -50 64 -76 74
c-40 -3 -69 -2 -87 3c-17 5 -34 21 -51 48c-1 15 -1 48 -1 100c-1 43 -2 78 -3 105c-1 28 1 71 4 128c3 54 4 96 2 125c0 67 2 107 6 119c3 18 14 32 33 43c18 13 47 25 87 34c13 3 36 -1 68 -12c24 -9 40 -19 48 -30zM103 615c-5 -31 -7 -59 -6 -84c3 -46 2 -98 -1 -155
c-1 -23 -1 -53 2 -89c3 -41 5 -69 5 -84c0 -69 2 -116 7 -142c17 -15 37 -21 61 -18c25 2 56 16 91 42c-3 59 -3 170 -2 333c1 128 -1 200 -6 215c-7 18 -29 25 -68 20s-66 -18 -83 -38z" />
    <glyph glyph-name="R" unicode="R" horiz-adv-x="337" 
d="M97 636c3 -206 4 -307 3 -304c47 3 80 15 101 36c23 23 34 69 35 138c1 63 -6 109 -19 139c-47 11 -87 8 -120 -9zM223 6l-9 56c-17 77 -27 137 -30 178c-1 27 -5 47 -11 61l-37 -9c-17 -4 -27 -10 -30 -19c1 1 0 -13 -2 -41l-4 -117c1 -43 3 -71 5 -86
c3 -20 -16 -29 -55 -28v54c0 25 1 53 3 86c1 32 2 61 2 86c0 32 -1 56 -2 71c-2 41 -2 118 0 229c2 92 1 142 -2 150c71 19 132 25 185 17c19 -13 31 -35 35 -68c9 -71 12 -118 8 -143l-6 -53c-3 -30 -6 -47 -7 -50c-7 -21 -13 -35 -18 -40l-27 -16l10 -45
c27 -143 43 -220 48 -232s5 -22 -1 -31c-6 -7 -24 -11 -55 -10z" />
    <glyph glyph-name="S" unicode="S" horiz-adv-x="354" 
d="M259 690c11 -31 17 -78 19 -142c3 -71 -3 -116 -17 -136c-19 0 -29 0 -30 1c3 144 2 222 -4 235c-13 13 -34 16 -63 9c-26 -7 -45 -18 -56 -33c-15 -93 -9 -172 16 -235l160 -128c24 -93 27 -158 10 -195c-2 -6 -11 -17 -28 -32c-16 -16 -27 -25 -33 -27
c-61 -13 -108 -10 -143 8c-21 13 -33 46 -34 97c-1 19 -1 55 -1 106c0 13 2 20 7 19l30 -10c7 -8 9 -24 6 -48c-1 -7 1 -38 4 -93c2 -34 42 -43 121 -27c35 51 42 109 19 172c-15 17 -37 34 -64 53c-31 21 -52 37 -64 48c-29 27 -49 63 -60 108c-3 9 -4 50 -4 123
c0 49 8 85 25 110c76 23 137 29 184 17z" />
    <glyph glyph-name="T" unicode="T" horiz-adv-x="351" 
d="M57 696l245 3c3 -25 -1 -41 -13 -48l-74 3c-10 0 -16 -3 -18 -8c-1 -4 -2 -17 -2 -38l2 -249c0 -35 2 -83 6 -145c4 -61 6 -115 6 -161c0 -35 -2 -53 -6 -54c-7 -3 -17 -2 -30 3c-12 4 -18 8 -18 11c0 21 1 54 2 99l1 72c0 39 -1 104 -4 195s-5 162 -5 212l1 52
c0 5 -13 7 -39 6c-30 -2 -46 -2 -49 -1c-13 15 -14 31 -5 48z" />
    <glyph glyph-name="U" unicode="U" horiz-adv-x="357" 
d="M305 666c-2 -23 -3 -58 -2 -105c1 -49 0 -85 -1 -108c-2 -52 -2 -81 0 -87c-3 -26 -3 -67 0 -124c2 -60 2 -104 0 -131c-3 -12 -4 -21 -4 -26v-21c1 -8 0 -14 -1 -18c-6 -16 -23 -29 -50 -39c-25 -7 -52 -9 -82 -5c-28 3 -45 6 -52 9c-5 1 -15 11 -30 28
c-14 18 -21 28 -22 31c-7 18 -9 35 -8 50s2 36 1 64c-1 31 -1 53 0 67c1 32 0 76 -1 131c-1 66 -2 110 -2 132l-1 127c0 30 2 47 6 52c15 3 31 0 48 -11c-3 -47 -4 -112 -2 -195c2 -106 3 -174 2 -205c-2 -101 -2 -159 1 -173c7 -22 18 -37 32 -44c17 -9 47 -14 91 -15
l20 18c4 84 6 186 6 306c0 144 -2 249 -7 315c9 9 20 9 35 1c13 -8 20 -16 23 -24z" />
    <glyph glyph-name="V" unicode="V" horiz-adv-x="355" 
d="M94 694c-1 -7 3 -54 10 -140c3 -31 8 -72 17 -125c10 -61 16 -101 19 -122c7 -40 10 -72 10 -96c0 -17 1 -31 3 -42c3 -14 5 -26 6 -36l14 -17l63 404c9 61 19 119 32 176c17 1 27 -1 32 -8c3 -31 0 -71 -10 -122c-3 -13 -5 -33 -8 -59l-9 -62l-10 -47
c-3 -23 -5 -39 -7 -50c-3 -22 -7 -54 -14 -96c-7 -43 -12 -77 -15 -100c-1 -11 -4 -27 -9 -50c-5 -21 -7 -36 -8 -47c-1 -35 -7 -53 -16 -55l-36 10c-11 2 -22 5 -32 10c-1 21 -5 57 -12 107c-6 50 -10 88 -12 114c-1 9 -2 22 -5 39s-4 30 -5 38c-29 247 -43 374 -42 379
c15 9 29 8 44 -3z" />
    <glyph glyph-name="W" unicode="W" horiz-adv-x="415" 
d="M213 315l-9 -15c-7 -25 -17 -79 -31 -161c-13 -71 -23 -116 -31 -136c-10 -2 -24 1 -43 9c-17 7 -28 13 -33 19c-5 137 -7 227 -6 268c1 50 -1 116 -5 198c-4 81 -6 143 -5 186c24 7 39 11 45 10c3 -3 5 -14 7 -32c2 -21 2 -54 -1 -101c-3 -73 -4 -125 -1 -156
c5 -62 5 -114 0 -155l1 -168l16 -11c11 26 21 66 30 121l18 120l19 68c15 20 30 28 43 23c7 -21 14 -54 21 -97l36 -236l28 22c4 19 5 78 3 177c0 13 1 32 2 59c1 26 2 45 2 58c0 15 -1 42 -2 79c-2 33 -3 59 -2 78c0 19 -1 43 -2 72c-2 29 -3 52 -3 69c17 9 35 12 54 9
c0 -8 -1 -26 -2 -55c-2 -29 -3 -51 -3 -66c0 -60 0 -86 -1 -77l2 -74c-1 -33 -2 -58 -1 -76c2 -97 -2 -196 -13 -298c-5 -6 -15 -14 -31 -25c-17 -12 -30 -18 -37 -17c-11 1 -19 12 -23 33l-24 128z" />
    <glyph glyph-name="X" unicode="X" 
d="M287 693c9 -11 13 -22 13 -32c-13 -33 -28 -85 -46 -156c-19 -71 -34 -122 -47 -155c18 -45 36 -99 55 -160c5 -19 12 -50 21 -94c9 -41 16 -72 22 -92c2 1 -12 0 -41 -4c-11 29 -24 77 -41 145c-17 67 -31 117 -43 150c-9 -27 -23 -74 -42 -143
c-17 -60 -32 -108 -46 -143c-2 1 -9 0 -22 -2l-19 -3c-3 17 2 43 15 79l35 113c8 21 20 59 36 114c9 33 11 59 4 78c-37 95 -64 173 -80 235c-8 29 -11 52 -10 68c0 -7 10 -6 30 2c6 1 10 -5 13 -17c5 -21 9 -37 14 -48c9 -21 20 -57 32 -107s23 -86 33 -108
c4 12 13 42 28 91c12 41 22 72 31 93l12 30c5 12 8 21 10 28c5 18 7 27 8 28c5 9 13 12 25 10z" />
    <glyph glyph-name="Y" unicode="Y" horiz-adv-x="349" 
d="M296 689c2 -2 3 -6 3 -12c0 -9 -2 -19 -6 -28c-13 -33 -27 -89 -43 -168s-30 -135 -43 -168l-9 -16c-1 -6 -1 -16 -1 -29c0 -21 1 -53 2 -96s2 -74 2 -92c0 -45 -1 -69 -2 -70c-19 -7 -33 -9 -40 -6s-10 33 -10 90l2 156c0 26 -2 45 -6 57c-3 7 -31 113 -84 316
c-7 26 -11 44 -11 55c0 7 11 12 33 17c14 0 23 -22 28 -67l60 -257l11 8c15 50 32 124 49 221c11 65 22 97 33 97c9 0 19 -3 32 -8z" />
    <glyph glyph-name="Z" unicode="Z" horiz-adv-x="357" 
d="M280 695l23 -45l-15 -45c-11 -31 -26 -72 -47 -122c-25 -62 -41 -102 -48 -120c-50 -131 -80 -224 -90 -277l25 -36c51 -12 106 -9 166 9c11 -9 13 -24 7 -44c-17 -9 -60 -13 -130 -13c-57 0 -89 1 -94 2l-27 67c6 60 28 140 67 240c31 77 47 115 46 112l87 195
c1 3 -1 10 -7 19s-9 15 -8 18c-67 -1 -107 -4 -120 -9c-19 -7 -35 -10 -47 -7l-14 36c7 13 44 21 109 26c63 4 102 2 117 -6z" />
    <glyph glyph-name="bracketleft" unicode="[" horiz-adv-x="259" 
d="M96 350l2 -78v-81c0 -9 2 -48 5 -115s5 -105 5 -113c45 -2 77 -3 95 -3c6 -30 6 -46 1 -48c-35 -17 -86 -18 -151 -4c-3 43 -3 119 -2 227c1 123 1 199 0 229v149c0 120 1 186 3 199c5 3 29 5 73 6s69 -1 76 -4c4 -26 4 -40 0 -43l-102 -14v-27c0 -42 -1 -77 -3 -104
c-1 -12 -1 -27 0 -46l1 -46z" />
    <glyph glyph-name="backslash" unicode="\" horiz-adv-x="361" 
d="M103 712c6 -20 14 -55 25 -104c9 -44 18 -78 25 -101l16 -48c2 -5 4 -13 7 -24l6 -25c11 -35 16 -50 15 -47c1 -4 3 -12 6 -25c2 -11 4 -20 6 -27l26 -101l24 -104c3 -11 7 -27 14 -48s11 -37 14 -48c15 -64 23 -99 23 -104c-16 -7 -32 -6 -47 1c-3 5 -21 66 -54 183
l-17 59l-33 145c-11 42 -24 87 -39 136c-5 16 -11 39 -18 69c-8 31 -14 54 -19 69c-4 13 -10 37 -17 71c-10 39 -15 64 -16 73c16 7 34 7 53 0z" />
    <glyph glyph-name="bracketright" unicode="]" horiz-adv-x="259" 
d="M160 272l2 78l-3 84l1 46c1 19 1 34 0 46c-2 27 -3 62 -3 104v27l-102 14c-4 3 -4 17 0 43c7 3 32 5 76 4s68 -3 73 -6c2 -13 3 -79 3 -199v-149c-1 -30 0 -106 1 -229c1 -108 0 -184 -3 -227c-65 -14 -116 -13 -151 4c-5 2 -5 18 1 48c18 0 50 1 95 3c0 8 2 46 5 113
s5 106 5 115v81z" />
    <glyph glyph-name="asciicircum" unicode="^" horiz-adv-x="314" 
d="M264 401c-1 -4 -10 -16 -25 -35c-10 19 -23 56 -38 109c-18 60 -30 99 -37 116c-39 -92 -67 -166 -84 -223c-20 0 -30 8 -29 24c3 9 35 103 98 282l30 8l59 -186c15 -37 24 -69 26 -95z" />
    <glyph glyph-name="underscore" unicode="_" 
d="M300 -49c-25 -1 -65 -1 -119 0c-56 1 -98 1 -126 0c-7 12 -7 28 -1 48c83 1 166 1 249 0c9 -9 8 -25 -3 -48z" />
    <glyph glyph-name="grave" unicode="`" horiz-adv-x="231" 
d="M50 684c9 9 21 15 34 18l19 -8c44 -61 70 -103 78 -128c-11 -4 -20 -6 -28 -7c-71 88 -106 130 -103 125z" />
    <glyph glyph-name="a" unicode="a" horiz-adv-x="364" 
d="M67 402v53c0 12 18 23 54 34c35 10 72 15 111 15c26 0 41 -1 46 -2c17 -3 27 -13 30 -29l-2 -235c0 -85 3 -162 8 -229c-9 -7 -23 -11 -41 -11c-11 0 -17 14 -18 41c-37 -28 -73 -42 -110 -42c-18 0 -38 4 -60 11c-23 15 -35 56 -35 121c0 77 13 122 38 136
c5 3 37 12 94 27c43 11 69 26 79 44l-6 109c-11 7 -29 10 -55 10c-50 0 -82 -9 -95 -26v-36c-2 -7 -6 -10 -13 -10c-17 0 -25 6 -25 19zM256 148c0 11 2 54 7 131c-9 -11 -31 -21 -67 -32c-39 -11 -63 -20 -72 -27c-17 -12 -26 -44 -26 -97c0 -49 9 -77 26 -84
c52 0 95 15 130 45c0 27 1 48 2 64z" />
    <glyph glyph-name="b" unicode="b" horiz-adv-x="373" 
d="M61 353l-2 81c0 7 0 12 1 15l-1 119c0 11 -1 31 -4 60c-3 28 -4 49 -3 62c5 5 14 8 26 9c13 1 21 0 26 -5c3 -45 3 -115 2 -209c39 16 77 20 114 12c31 -7 54 -21 69 -41c21 -28 33 -69 34 -123c1 -17 0 -41 -1 -71c-1 -35 -2 -59 -2 -71c0 -17 -8 -59 -24 -124
c-10 -31 -40 -51 -91 -62c-45 -9 -88 -9 -131 1c-7 0 -12 1 -17 4c-2 41 -1 97 2 167c1 12 1 27 0 46l-1 46zM105 412l2 -292c1 -26 1 -47 0 -63c2 -2 8 -5 19 -10c52 -15 92 -3 119 37c9 23 17 72 24 148c0 117 -11 185 -32 204c-12 10 -30 17 -55 20c-31 4 -54 -2 -70 -17
z" />
    <glyph glyph-name="c" unicode="c" horiz-adv-x="365" 
d="M298 352c-17 0 -27 3 -32 8l2 38c2 21 2 34 0 39c-2 4 -9 9 -21 14c-52 15 -92 3 -119 -37c-9 -23 -17 -72 -24 -148c0 -117 11 -185 32 -204c12 -10 30 -17 55 -20c31 -4 54 2 70 17l16 65l25 6c7 2 10 -9 10 -34c0 -39 -2 -60 -6 -63c-47 -29 -93 -41 -138 -34
c-38 5 -66 19 -84 43c-21 28 -33 69 -34 123c-1 17 0 41 1 71c1 35 2 59 2 71c0 17 8 59 24 124c10 33 46 55 109 64c59 9 101 3 126 -16c-1 -61 -5 -103 -14 -127z" />
    <glyph glyph-name="d" unicode="d" horiz-adv-x="371" 
d="M312 353l3 -84l-1 -46c-1 -19 -1 -34 0 -46c3 -70 4 -126 2 -167c-5 -3 -11 -4 -18 -4c-43 -10 -86 -10 -131 -1c-51 11 -81 31 -90 62c-16 65 -24 107 -24 124c0 12 -1 36 -2 71c-1 30 -2 54 -1 71c1 54 13 95 34 123c15 20 38 34 69 41c36 8 74 4 113 -12
c-1 103 -1 172 1 209c5 5 13 6 26 5c12 -1 21 -4 26 -9c1 -14 0 -35 -2 -62c-2 -30 -3 -50 -3 -60l-1 -88c-1 -13 -1 -24 0 -31c0 -37 0 -69 -1 -96zM267 163v249l-6 27c-16 15 -39 21 -70 17c-25 -3 -43 -10 -55 -20c-21 -19 -32 -87 -32 -204c7 -76 15 -125 24 -148
c27 -40 67 -52 119 -37c11 5 17 8 18 10c-1 17 0 43 1 80z" />
    <glyph glyph-name="e" unicode="e" 
d="M272 70c9 -3 15 -12 18 -29c-40 -27 -75 -41 -106 -43c-27 -1 -61 7 -100 25c-23 32 -34 104 -34 215c-1 115 13 192 41 231c15 21 48 33 98 35c51 2 83 -10 96 -36c33 -69 33 -156 0 -261l-29 -21c-69 -13 -121 -19 -156 -17c1 -47 11 -85 29 -116c51 -17 98 -11 143 17
zM251 431c-13 17 -32 25 -57 24s-49 -10 -72 -27c-23 -56 -32 -127 -27 -212c43 -1 87 2 132 9l24 14c15 55 15 119 0 192z" />
    <glyph glyph-name="f" unicode="f" horiz-adv-x="291" 
d="M50 499c0 -1 18 -2 54 -2v16c-1 63 3 106 14 127c17 33 55 53 115 61c3 4 4 -1 5 -16c1 -14 -1 -23 -5 -27c-35 -8 -59 -22 -70 -42c-11 -19 -15 -49 -14 -92c0 -12 0 -21 1 -27c23 0 42 0 55 1c6 1 9 -6 10 -23s0 -26 -5 -27l-40 3c-5 0 -11 0 -18 -1l-3 -100l2 -78
v-137c0 -11 1 -31 4 -60c3 -28 4 -49 3 -62c-5 -5 -14 -8 -26 -9c-13 -1 -21 0 -26 5c-3 43 -3 101 -2 176c1 89 1 148 0 179c-1 19 -1 47 -1 84c-14 -1 -27 -1 -40 -1l-12 12c-1 0 -1 13 -1 40z" />
    <glyph glyph-name="g" unicode="g" horiz-adv-x="368" 
d="M312 138l1 -78c-3 -105 -20 -171 -50 -199c-26 -17 -70 -26 -131 -29c-7 7 -10 15 -10 25c0 6 1 11 3 15c54 5 90 14 108 29c15 19 24 57 28 112c-26 -11 -51 -16 -74 -16c-91 0 -137 62 -137 187c0 14 1 35 2 62c1 28 2 48 2 61c0 17 8 59 24 124c7 21 26 38 57 50
c28 11 59 17 94 17c31 0 56 -5 75 -14c8 0 13 -8 14 -23c-1 6 -1 -6 -1 -37l-3 -129l1 -73zM267 152l-2 253c0 16 0 28 1 36c-10 10 -28 15 -55 15c-44 0 -73 -19 -87 -57c-6 -17 -12 -61 -19 -133c0 -118 11 -186 32 -204c15 -14 40 -21 73 -21c22 0 39 6 52 18l3 12z" />
    <glyph glyph-name="h" unicode="h" horiz-adv-x="361" 
d="M270 484l35 -42c0 -248 2 -392 5 -433c-21 -15 -38 -17 -53 -8c-7 26 -9 75 -5 147c0 19 2 67 5 142l-3 139c-43 29 -95 22 -156 -19c-1 -28 -2 -48 -2 -60l2 -78v-137c0 -11 1 -31 4 -60c3 -28 4 -49 3 -62c-5 -5 -14 -8 -26 -9c-13 -1 -21 0 -26 5c-3 43 -3 101 -2 176
c1 89 1 148 0 179v149c0 105 1 163 3 176c15 10 31 11 46 4c2 -41 1 -97 -2 -167c-1 -17 0 -40 1 -71c65 50 122 60 171 29z" />
    <glyph glyph-name="i" unicode="i" horiz-adv-x="161" 
d="M58 168l-4 315c7 12 16 17 29 16c11 -1 19 -6 23 -13l-4 -119l6 -359c-5 -5 -13 -7 -23 -8c-13 -1 -22 2 -29 11zM108 587c-1 -3 -10 -5 -26 -5c-17 0 -26 3 -28 8c-5 21 -5 40 0 55c13 14 31 15 55 3c-1 5 -1 -15 -1 -61z" />
    <glyph glyph-name="j" unicode="j" horiz-adv-x="177" 
d="M115 587c-1 -3 -10 -5 -26 -5c-17 0 -26 3 -28 8c-5 21 -5 40 0 55c13 14 31 15 55 3c-1 5 -1 -15 -1 -61zM61 447v36c7 12 16 17 29 16c11 -1 19 -6 23 -13l-1 -26c1 -31 0 -79 -3 -146c-1 -12 -1 -27 0 -46l1 -46l-3 -84l2 -78c-3 -104 -20 -170 -51 -199
c-26 -17 -70 -26 -131 -29c-11 12 -13 25 -7 40c54 5 90 14 108 29c20 26 31 110 34 251v149c0 107 0 156 -1 146z" />
    <glyph glyph-name="k" unicode="k" 
d="M257 9c-7 23 -25 68 -52 133c-25 59 -41 103 -49 132c-3 9 -6 19 -10 29l-24 -37c2 3 -6 -7 -25 -30l1 -101c0 -11 1 -31 4 -62c3 -30 4 -52 3 -65c-5 -5 -14 -8 -26 -9c-13 -1 -21 0 -26 5c-3 43 -3 102 -2 179c1 90 1 150 0 181v149c0 105 1 163 3 176
c15 10 31 11 46 4c2 -41 1 -97 -2 -167c-1 -12 -1 -27 0 -46l1 -46l-3 -84l1 -40c14 21 40 58 78 109c35 47 59 82 74 105c5 7 15 11 31 10c15 -1 23 -4 24 -9c-14 -23 -55 -82 -124 -175c8 -15 16 -36 25 -63c10 -34 27 -81 50 -141c24 -61 41 -107 50 -138
c-2 -5 -10 -9 -23 -10c-14 -1 -22 3 -25 11z" />
    <glyph glyph-name="l" unicode="l" horiz-adv-x="157" 
d="M96 350l2 -78v-137c0 -11 1 -31 4 -62c3 -30 4 -52 3 -65c-5 -5 -14 -8 -26 -9c-13 -1 -21 0 -26 5c-3 43 -3 102 -2 179c1 90 1 150 0 181v149c0 105 1 163 3 176c15 10 31 11 46 4c2 -41 1 -97 -2 -167c-1 -12 -1 -27 0 -46l1 -46z" />
    <glyph glyph-name="m" unicode="m" horiz-adv-x="567" 
d="M477 484l35 -42c0 -248 2 -392 5 -433c-21 -15 -38 -17 -53 -8c-7 26 -9 75 -5 147c0 19 2 67 5 142l-3 139c-42 28 -93 22 -154 -19v-401c-4 -3 -12 -4 -25 -5c-14 -1 -24 1 -29 5c0 81 0 127 1 139c0 19 2 67 5 142l-3 139c-43 29 -95 22 -156 -19
c-1 -28 -2 -48 -2 -60l2 -78v-137c0 -11 1 -31 4 -60c3 -28 4 -49 3 -62c-5 -5 -14 -8 -27 -9s-22 0 -27 5c-3 42 -3 101 -1 176c1 87 2 146 1 179v121c14 17 29 21 46 12l2 -42c65 50 122 60 171 29l27 -33c68 53 127 64 178 33z" />
    <glyph glyph-name="n" unicode="n" horiz-adv-x="360" 
d="M270 484l35 -42c0 -248 2 -392 5 -433c-21 -15 -38 -17 -53 -8c-7 26 -9 75 -5 147c0 19 2 67 5 142l-3 139c-43 29 -95 22 -156 -19c-1 -28 -2 -48 -2 -60l2 -78v-137c0 -11 1 -31 4 -60c3 -28 4 -49 3 -62c-5 -5 -14 -8 -26 -9c-13 -1 -21 0 -26 5c-3 43 -3 101 -2 176
c1 89 1 148 0 179v121c14 17 29 21 46 12l2 -42c65 50 122 60 171 29z" />
    <glyph glyph-name="o" unicode="o" horiz-adv-x="353" 
d="M302 446c1 -8 2 -25 2 -52c1 -21 2 -49 2 -82l-1 -81c0 -97 0 -147 -1 -152c1 5 -6 -9 -19 -43c-3 -1 -10 -6 -19 -15c-9 -8 -17 -13 -24 -15c-55 -17 -99 -18 -132 -3c-13 6 -30 26 -51 60c-1 14 -1 45 -1 94c-1 39 -2 72 -3 99v54c-8 47 -7 86 4 117c3 16 16 31 41 45
c18 13 47 24 86 34c13 3 36 -1 68 -12c10 -4 26 -20 48 -48zM104 400c-2 -18 -1 -84 3 -197l5 -117c7 -34 29 -48 64 -43c27 3 44 5 51 8c12 5 22 18 30 39c1 19 1 129 1 328c-9 25 -34 36 -77 33s-69 -20 -77 -51z" />
    <glyph glyph-name="p" unicode="p" horiz-adv-x="369" 
d="M53 -20v391c0 60 -1 90 -3 90c29 29 72 42 129 37c52 -4 87 -17 104 -40c21 -28 33 -69 34 -123c1 -17 0 -41 -1 -71c-1 -35 -2 -59 -2 -71c0 -17 -8 -59 -24 -124c-9 -27 -33 -46 -74 -58c-35 -11 -74 -14 -116 -9v-9c0 -105 -1 -163 -3 -176c-15 -10 -31 -11 -46 -4
c-2 41 -1 97 2 167zM100 142v-1c0 -1 0 -1 1 -1l-1 -9c1 -16 1 -40 1 -72c2 -2 8 -5 19 -10c52 -15 92 -3 119 37c9 23 17 72 24 148c0 117 -11 185 -32 204c-11 9 -30 15 -57 18c-32 3 -56 -3 -73 -18l-1 -148c-1 -61 -1 -111 0 -148z" />
    <glyph glyph-name="q" unicode="q" horiz-adv-x="364" 
d="M310 310l-2 -335c3 -70 4 -126 2 -167c-15 -7 -31 -6 -46 4c-2 23 -3 82 -3 176v22c-39 -14 -76 -17 -111 -8c-30 7 -52 21 -66 40c-21 28 -33 69 -34 123c-1 17 0 41 1 71c1 35 2 59 2 71c0 17 8 59 24 124c12 33 44 55 97 65c51 9 96 3 135 -18c4 -9 5 -24 3 -46
c1 -20 1 -61 -2 -122zM261 137c1 32 1 84 0 155c-1 67 -1 118 0 153l-14 6c-52 15 -92 3 -119 -37c-9 -23 -17 -72 -24 -148c0 -117 11 -185 32 -204c12 -10 30 -17 55 -20c30 -4 53 1 69 16c-1 18 0 44 1 79z" />
    <glyph glyph-name="r" unicode="r" horiz-adv-x="256" 
d="M52 227v207c0 15 1 33 2 54c23 13 39 16 46 7v-57c10 22 27 39 52 50c23 11 45 14 68 11c5 -23 3 -40 -6 -49c-21 -1 -41 -6 -61 -15c-29 -13 -47 -33 -52 -58l-1 -229c1 -29 2 -57 2 -86v-60c-7 -4 -16 -5 -27 -3s-19 6 -24 12c-1 14 0 35 1 63l1 117l-1 18
c-1 7 -1 13 0 18z" />
    <glyph glyph-name="s" unicode="s" horiz-adv-x="358" 
d="M262 500c11 -22 18 -57 20 -104c3 -51 -3 -84 -18 -98c-21 0 -32 0 -33 1c3 100 2 154 -3 162c-14 9 -35 12 -63 7c-27 -5 -45 -13 -56 -24c-13 -63 -8 -118 16 -163l162 -92c25 -67 29 -114 11 -142c-2 -5 -11 -13 -28 -24s-29 -18 -35 -19c-60 -9 -108 -8 -145 5
c-21 10 -33 34 -34 71c-1 14 -1 40 -1 77c0 9 3 14 8 13l29 -7c5 -3 7 -15 7 -34c0 -30 1 -50 4 -59c7 -25 48 -31 123 -19c34 34 40 72 19 115c-16 13 -38 26 -65 39c-31 15 -53 27 -65 35c-29 20 -50 46 -61 78c-3 7 -4 37 -4 90c0 35 8 62 25 79c75 18 137 22 187 13z
" />
    <glyph glyph-name="t" unicode="t" horiz-adv-x="273" 
d="M52 502c0 -1 17 -2 52 -2c-1 13 -1 32 -1 57c0 22 2 36 6 43c4 6 14 9 29 9c7 0 12 -1 17 -4l-1 -25l1 -80l53 1c6 0 9 -10 9 -29c0 -13 -2 -20 -5 -21l-40 3c-5 0 -11 0 -17 -1c0 -29 -1 -63 -2 -102l2 -107l-1 -14v-143c0 -27 8 -41 25 -41c4 0 10 1 18 3
c8 1 14 2 17 2c6 0 9 -12 9 -35c0 -11 -17 -16 -50 -16c-45 0 -68 20 -68 60l1 339c-1 20 -1 37 -1 52c-15 -1 -28 -1 -40 -1l-12 12c-2 0 -3 4 -3 13c0 8 1 17 2 27z" />
    <glyph glyph-name="u" unicode="u" horiz-adv-x="360" 
d="M90 16l-35 42c0 248 -2 392 -5 433c21 15 38 17 53 8c7 -26 9 -75 5 -147c0 -19 -2 -67 -5 -142l3 -139c44 -31 96 -24 155 19l3 60l-2 78v137c0 11 -1 31 -4 60c-3 28 -4 49 -3 62c5 5 14 8 26 9c13 1 21 0 26 -5c3 -43 4 -101 3 -176c-1 -89 -2 -148 -1 -179v-121
c-14 -17 -29 -21 -46 -12c-1 13 -2 27 -2 41c-66 -48 -123 -57 -171 -28z" />
    <glyph glyph-name="v" unicode="v" horiz-adv-x="357" 
d="M50 485c1 5 10 9 25 12s24 2 26 -3c4 -32 12 -77 24 -135l28 -145l19 -113c3 6 8 26 16 59c9 35 14 56 16 61c7 31 17 76 28 136c13 67 22 113 28 138c5 6 13 7 24 2c10 -5 18 -11 23 -20c-3 -15 -12 -60 -26 -136c-10 -54 -20 -98 -31 -133c-5 -19 -13 -50 -24 -93
c-10 -37 -19 -70 -28 -99c-7 -9 -23 -11 -50 -8l-27 117c-3 21 -8 48 -15 82l-17 82c-2 12 -9 44 -21 97c-9 40 -15 73 -18 99z" />
    <glyph glyph-name="w" unicode="w" horiz-adv-x="530" 
d="M480 485c-5 -47 -15 -113 -29 -198l-15 -81c-7 -34 -11 -61 -14 -82l-25 -116c-25 -3 -40 -1 -47 8c-9 29 -18 62 -27 99c-11 45 -19 76 -24 92c-11 36 -22 86 -32 150c-11 -55 -23 -105 -36 -150c-5 -16 -13 -47 -24 -92c-9 -37 -18 -70 -27 -99c-7 -9 -22 -11 -47 -8
l-25 116c-3 21 -7 48 -14 82l-15 81c-15 85 -24 151 -29 197c1 5 9 10 24 13c14 3 22 3 24 -2c9 -72 23 -166 42 -282l16 -113c3 5 8 25 17 58c9 35 15 55 17 60l55 266c4 8 11 12 20 11s15 -4 20 -11l55 -266c2 -5 8 -25 17 -60c9 -33 14 -53 17 -58l17 113
c23 147 37 242 42 283c2 5 10 5 24 2s22 -8 23 -13z" />
    <glyph glyph-name="x" unicode="x" horiz-adv-x="355" 
d="M285 501c9 -9 13 -16 13 -23c-13 -24 -28 -62 -46 -114c-18 -53 -33 -91 -45 -114c15 -27 33 -65 54 -114c15 -39 30 -84 43 -134c-7 -9 -21 -10 -41 -3c-35 72 -62 143 -83 212c-10 -20 -24 -54 -42 -103c-16 -43 -31 -77 -45 -102c-4 -3 -18 -4 -41 -4
c-4 17 -1 36 10 57l35 81c9 21 21 48 35 82c10 24 12 43 5 56c-27 49 -52 105 -75 168c-9 22 -12 38 -11 49c0 3 5 5 15 6c9 1 15 1 18 0c-4 2 5 -15 28 -51c9 -15 19 -41 30 -77c10 -35 20 -61 31 -77c5 11 13 32 24 65c10 30 19 52 27 66c7 15 14 31 20 47
c8 21 22 30 41 27z" />
    <glyph glyph-name="y" unicode="y" horiz-adv-x="364" 
d="M310 138l2 -78c-3 -104 -20 -170 -51 -199c-26 -17 -70 -26 -131 -29c-11 12 -13 25 -7 40c54 5 90 14 108 29c16 23 26 70 30 143c-65 -49 -122 -58 -171 -28l-35 42c0 248 -2 392 -5 433c21 15 38 17 53 8c7 -26 9 -75 5 -147c0 -19 -2 -67 -5 -142l3 -139
c23 -17 52 -21 86 -12c26 6 50 17 71 33l2 60v149c0 13 -2 46 -6 101c-3 40 -2 71 1 93c17 11 34 13 51 4c3 -66 4 -128 1 -185c-1 -12 -1 -27 0 -46l1 -46z" />
    <glyph glyph-name="z" unicode="z" horiz-adv-x="359" 
d="M281 497l24 -35c-1 -5 -3 -11 -8 -20l-6 -12c-11 -21 -30 -57 -59 -108l-53 -97c-37 -65 -60 -119 -71 -161l23 -22c20 -3 40 -5 61 -5c34 0 68 3 103 10c11 -7 15 -18 10 -31c0 -2 -1 -4 -3 -6c-16 -6 -54 -9 -114 -9h-30c-45 0 -72 1 -81 2l-27 49c5 44 27 101 66 171
l17 28c0 -1 9 14 26 43c21 35 50 82 86 143c-3 11 -8 18 -15 21h-25c-35 0 -65 -2 -89 -6c-21 -5 -38 -7 -51 -6c-7 1 -11 13 -12 34c12 15 65 22 160 22c38 0 61 -2 68 -5z" />
    <glyph glyph-name="braceleft" unicode="{" horiz-adv-x="260" 
d="M112 -18l11 -30c24 -11 51 -16 81 -15c5 -3 6 -14 5 -33c-5 -4 -25 -3 -59 2c-33 5 -53 10 -60 14c-16 10 -25 28 -28 53c9 212 20 310 34 295c-2 4 -17 11 -46 21v24c29 10 44 17 46 21c-14 -15 -25 83 -34 295c3 25 12 43 28 53c7 4 27 9 60 14c34 5 54 6 59 2
c1 -19 0 -30 -5 -33c-30 1 -57 -4 -81 -15l-11 -30c16 -58 25 -93 28 -106c10 -45 15 -73 16 -86c3 -59 -2 -96 -17 -111c3 4 -4 -2 -19 -17c8 -5 14 -10 19 -15c15 -15 20 -52 17 -111c-1 -13 -6 -41 -16 -86c-3 -13 -12 -48 -28 -106z" />
    <glyph glyph-name="bar" unicode="|" horiz-adv-x="161" 
d="M53 407c-2 189 -2 300 0 331c5 5 13 8 26 11s22 2 27 -3c1 -13 -1 -35 -4 -64c-3 -31 -4 -51 -4 -62v-56c0 -45 1 -79 3 -100l-2 -56c-24 -13 -39 -14 -46 -1zM97 279v-27c0 -37 1 -86 3 -148c3 -53 3 -105 0 -155c-23 -11 -40 -14 -50 -7c1 -9 2 50 2 176v151
c3 12 18 15 45 10z" />
    <glyph glyph-name="braceright" unicode="}" horiz-adv-x="260" 
d="M136 -48l11 30c-16 58 -25 93 -28 106c-10 45 -15 73 -16 86c-3 59 2 96 17 111c5 5 11 10 19 15c-15 15 -22 21 -19 17c-15 15 -20 52 -17 111c1 13 6 41 16 86c3 13 12 48 28 106l-11 30c-24 11 -51 16 -81 15c-5 3 -6 14 -5 33c5 4 25 3 60 -2c33 -5 52 -10 59 -14
c16 -10 25 -28 28 -53c-9 -212 -20 -310 -34 -295c2 -4 17 -11 46 -21v-24c-29 -10 -44 -17 -46 -21c14 15 25 -83 34 -295c-3 -25 -12 -43 -28 -53c-7 -4 -26 -9 -59 -14c-35 -5 -55 -6 -60 -2c-1 19 0 30 5 33c30 -1 57 4 81 15z" />
    <glyph glyph-name="asciitilde" unicode="~" horiz-adv-x="430" 
d="M161 315l-96 -22c-15 9 -19 22 -12 39l91 35c25 -1 51 -6 79 -15l57 -17l82 23c20 -19 23 -33 8 -41l-92 -32z" />
    <glyph glyph-name="exclamdown" unicode="&#xa1;" horiz-adv-x="160" 
d="M104 7c1 0 -1 -1 -6 -2l-18 -3c-18 -3 -28 -1 -30 5l8 151c2 28 3 64 4 108c1 41 1 65 2 71c1 12 2 54 3 127c0 67 1 102 3 106c1 4 7 7 16 9c9 1 15 0 17 -4c1 -57 2 -86 1 -87s0 -115 3 -342l3 -122c0 -11 -2 -17 -6 -17zM101 618c-25 0 -37 0 -36 -1c-3 2 -5 13 -6 34
s-1 35 2 40c5 8 20 9 43 4c3 -1 4 -14 3 -39c-2 -25 -4 -38 -6 -38z" />
    <glyph glyph-name="cent" unicode="&#xa2;" horiz-adv-x="365" 
d="M172 585c15 8 27 11 37 8c1 -5 1 -27 1 -68c-1 -7 -1 -16 -1 -28c48 3 82 -3 103 -18c-1 -61 -5 -103 -14 -127c-17 0 -27 3 -32 8l2 38c2 21 2 34 0 39c-2 4 -9 9 -21 14c-15 4 -29 6 -40 5v-53c0 -22 -1 -40 -2 -54c-1 -15 -2 -35 -2 -59v-56c-2 -67 -3 -107 -2 -121
l-3 -50v-22c27 -3 48 3 63 18l16 65l25 6c7 2 10 -9 10 -34c0 -39 -2 -60 -6 -63c-35 -22 -70 -34 -107 -36c1 -39 0 -69 -5 -90c-9 -8 -19 -10 -30 -6l1 98c-37 5 -64 19 -81 43c-21 28 -33 69 -34 123c-1 17 0 41 1 71c1 35 2 59 2 71c0 17 8 59 24 124c9 30 42 50 97 61
c0 21 -1 52 -2 93zM136 62c5 -5 14 -9 29 -14l1 23c1 10 1 24 0 42v44c0 37 1 86 3 147l5 146c-19 -7 -34 -19 -46 -36c-9 -23 -17 -72 -24 -148c0 -117 11 -185 32 -204z" />
    <glyph glyph-name="sterling" unicode="&#xa3;" horiz-adv-x="404" 
d="M161 20l-96 -22c-15 9 -19 22 -12 39l22 8l53 105c1 36 -7 86 -22 150c-15 -1 -28 -1 -39 -1l-12 12c-1 0 -1 13 -1 40c0 -1 13 -2 39 -2c-29 104 -43 175 -43 212c0 49 8 85 25 110c5 15 31 23 79 24c55 1 108 -13 159 -42c20 -31 24 -97 12 -198c-4 -5 -11 -8 -21 -9
c-11 -1 -18 2 -21 10c0 96 -3 149 -9 158c-9 13 -32 22 -71 27c-41 5 -66 0 -75 -15c-29 -64 -25 -157 10 -278l159 2c6 1 9 -6 10 -23s0 -26 -5 -27l-40 3l-110 -2c22 -73 31 -129 27 -169l-32 -60c23 -2 44 -7 64 -16c22 -9 36 -15 43 -16l82 23c20 -19 23 -33 8 -41
l-92 -32z" />
    <glyph glyph-name="currency" unicode="&#xa4;" horiz-adv-x="359" 
d="M250 505l28 35c15 1 26 -8 31 -27l-26 -49c15 -102 13 -201 -7 -296l23 -53c-8 -21 -16 -29 -24 -25c-2 3 -7 9 -14 18l-14 18c-41 -30 -86 -32 -136 -6l-25 -34c-5 -3 -11 -1 -18 4s-12 11 -13 18l28 48c-16 98 -16 197 0 298l-33 58c7 21 19 28 37 19l26 -36
c38 21 84 25 137 10zM129 429c-21 -83 -21 -173 0 -268c43 -22 78 -17 105 15c25 93 25 187 1 282c-13 13 -31 18 -52 14c-23 -5 -41 -19 -54 -43z" />
    <glyph glyph-name="yen" unicode="&#xa5;" horiz-adv-x="360" 
d="M50 369c0 -2 27 -3 81 -3c-9 32 -21 77 -35 134l-30 123c-7 26 -11 44 -11 55c0 7 11 12 33 17c14 0 23 -22 28 -67l60 -257l11 8c15 50 32 124 49 221c11 65 22 97 33 97c9 0 19 -3 32 -8c2 -2 3 -6 3 -12c0 -9 -2 -19 -6 -28c-12 -31 -24 -77 -37 -138
c-16 -77 -27 -125 -32 -144l64 1c6 1 9 -6 10 -22s0 -25 -5 -26l-40 3c-12 0 -26 0 -43 -1l-3 -9l-9 -16c-1 -5 -1 -12 -1 -21c49 1 81 2 95 2c6 1 9 -6 10 -23s0 -26 -5 -27l-40 3l-60 -1c0 -13 1 -39 2 -78c1 -31 2 -55 2 -72c0 -45 -1 -69 -2 -70c-19 -7 -33 -9 -40 -6
s-10 33 -10 90l2 135l-89 -2l-12 12c-1 0 -1 13 -1 40c0 -2 34 -3 101 -3c-1 15 -3 25 -5 31c-3 5 -4 9 -5 14l-82 -2l-12 12c-1 0 -1 13 -1 38z" />
    <glyph glyph-name="brokenbar" unicode="&#xa6;" horiz-adv-x="161" 
d="M101 464l-5 -128l1 -84c0 -37 1 -86 3 -148c3 -53 3 -105 0 -155c-23 -11 -40 -14 -50 -7c1 -9 2 50 2 176c0 120 0 188 1 204c1 32 0 102 -1 210c-2 95 -2 163 1 206c5 5 13 8 26 11s22 2 27 -3c1 -13 -1 -35 -4 -64c-3 -31 -4 -51 -4 -62v-56c0 -45 1 -79 3 -100z" />
    <glyph glyph-name="section" unicode="&#xa7;" horiz-adv-x="352" 
d="M250 655c-59 14 -112 7 -158 -20c-3 -45 -2 -79 3 -104c3 -15 8 -26 14 -33c13 -15 60 -37 143 -67c13 -5 23 -10 28 -16c12 -15 17 -53 15 -116c-18 -16 -40 -26 -67 -29c45 -38 66 -56 65 -54c5 -1 8 -33 8 -97c0 -65 -4 -97 -11 -98c-21 -14 -59 -21 -116 -21
c-58 -1 -96 7 -115 23c-10 34 -9 63 4 86c7 6 16 5 26 -2v-55c43 -19 101 -18 176 2c1 17 -1 46 -6 87c-6 46 -13 72 -20 78c-7 7 -32 18 -75 34s-72 32 -87 49c-12 37 -12 74 -1 113c2 7 10 12 23 17s22 7 26 5c-29 19 -46 31 -51 36c-15 5 -23 39 -24 101
c0 62 9 97 27 106c19 9 56 14 112 17c55 2 85 -1 89 -8c14 -23 18 -47 11 -71l-3 -21c-9 -4 -19 -4 -28 0c-1 30 -4 49 -8 58zM114 398c0 -37 1 -63 4 -80c9 -2 23 -7 42 -14c17 -6 28 -9 33 -10c33 7 56 12 68 15c2 23 0 50 -6 79c-7 1 -21 7 -44 16c-22 9 -37 14 -45 15
c-31 -12 -49 -19 -52 -21z" />
    <glyph glyph-name="dieresis" unicode="&#xa8;" horiz-adv-x="270" 
d="M100 638c-15 -6 -31 -6 -47 -1c-5 31 -4 50 3 58c31 7 47 8 49 2c7 -16 5 -36 -5 -59zM211 638c-15 -6 -31 -6 -47 -1c-5 31 -4 50 3 58c31 7 47 8 49 2c7 -16 5 -36 -5 -59z" />
    <glyph glyph-name="copyright" unicode="&#xa9;" horiz-adv-x="492" 
d="M387 75l-26 -39c-59 -38 -125 -45 -200 -21c-39 12 -66 55 -83 130c-49 209 -34 381 47 517c85 36 169 46 254 30c29 -53 48 -118 59 -197c13 -99 4 -216 -27 -352zM398 399l-3 67c0 15 -5 48 -16 97c-11 51 -19 79 -25 86c-16 19 -50 22 -102 10
c-49 -11 -83 -27 -102 -46c-37 -88 -56 -167 -58 -236c-1 -19 1 -44 4 -76c7 -99 20 -165 39 -197c5 -13 19 -31 40 -52c7 -4 27 -6 60 -5c39 1 69 7 90 17c29 10 50 66 62 169c3 31 6 67 8 108zM321 421l-4 -1c-19 0 -28 10 -28 29c0 7 1 16 2 28c1 13 2 22 2 28
c0 13 -2 24 -7 35l-5 9h-7c-26 0 -49 -8 -69 -24c-3 -14 -7 -68 -13 -163l3 -163c1 -17 4 -28 7 -33h-1c7 -7 20 -10 39 -10c11 0 24 2 41 5l7 16c0 49 4 76 13 80l15 6h3c7 0 10 -10 10 -30v-5c0 -37 0 -58 -1 -63c-4 -21 -15 -35 -33 -42l-11 -4c-23 -7 -41 -11 -53 -11
c-8 0 -16 1 -24 3h1c-33 7 -51 36 -53 86c1 28 2 51 2 68l-2 136c0 44 4 93 13 146c22 27 58 40 108 40c36 0 54 -14 54 -41l1 -48c0 -29 -3 -54 -10 -77z" />
    <glyph glyph-name="ordfeminine" unicode="&#xaa;" horiz-adv-x="268" 
d="M61 640v36c9 19 44 29 104 29c15 0 29 -1 40 -4c5 -3 8 -9 9 -17l-1 -148c0 -53 2 -99 5 -138c-3 -3 -8 -5 -17 -7s-16 -2 -20 1l-4 20c-21 -16 -43 -24 -66 -24c-12 0 -25 2 -38 7c-15 9 -23 35 -23 76c0 50 8 79 25 87c4 2 17 6 40 12c36 9 58 19 66 30l-4 66
c-8 3 -18 5 -30 5c-27 0 -46 -5 -58 -16v-21c-3 -7 -8 -10 -16 -7s-12 7 -12 13zM178 477v6c0 29 1 54 3 76c-5 -4 -19 -10 -42 -18c-21 -7 -34 -12 -39 -15c-11 -9 -16 -28 -16 -58c0 -26 5 -43 16 -50c33 1 58 10 76 25c0 9 1 21 2 34z" />
    <glyph glyph-name="guillemotleft" unicode="&#xab;" horiz-adv-x="350" 
d="M149 472c19 -15 25 -31 16 -49l-56 -124l58 -139c-2 -11 -10 -22 -23 -33c-24 23 -55 80 -94 173c11 15 28 45 52 89c24 45 40 72 47 83zM280 472c19 -15 25 -31 16 -49l-56 -124l58 -139c-2 -11 -10 -22 -23 -33c-24 23 -55 80 -94 173c11 15 28 45 52 89
c24 45 40 72 47 83z" />
    <glyph glyph-name="logicalnot" unicode="&#xac;" horiz-adv-x="355" 
d="M50 348c0 1 39 1 117 1l136 -4v-106c-6 -8 -22 -9 -47 -4c1 25 0 47 -3 65c-7 4 -70 4 -190 0l-12 12c-1 0 -1 12 -1 36z" />
    <glyph glyph-name="uni00AD" unicode="&#xad;" 
d="M50 348c0 -2 39 -3 117 -3l126 2c6 1 9 -6 10 -23s0 -26 -5 -27l-40 3l-195 -4l-12 12c-1 0 -1 13 -1 40z" />
    <glyph glyph-name="registered" unicode="&#xae;" horiz-adv-x="492" 
d="M387 75l-26 -39c-59 -38 -125 -45 -200 -21c-39 12 -66 55 -83 130c-49 209 -34 381 47 517c85 36 169 46 254 30c29 -53 48 -118 59 -197c13 -99 4 -216 -27 -352zM398 399l-3 67c0 15 -5 48 -16 97c-11 51 -19 79 -25 86c-16 19 -50 22 -102 10
c-49 -11 -83 -27 -102 -46c-37 -88 -56 -167 -58 -236c-1 -19 1 -44 4 -76c7 -99 20 -165 39 -197c5 -13 19 -31 40 -52c7 -4 27 -6 60 -5c39 1 69 7 90 17c29 10 50 66 62 169c3 31 6 67 8 108zM281 123l-6 41c-7 29 -12 59 -15 88c-3 27 -6 47 -9 60
c-26 -7 -39 -14 -39 -21v-129c1 -5 1 -12 1 -23c0 -12 -14 -18 -42 -18v38c0 25 0 54 1 88l1 70c-1 9 -1 27 -1 53c0 23 0 48 1 74l1 50c0 40 -1 63 -2 70c31 9 61 13 90 13c33 0 52 -17 58 -51c3 -21 5 -55 5 -103c-4 -46 -17 -77 -38 -93l5 -27c6 -41 14 -78 23 -112
c7 -26 11 -42 11 -49c0 -13 -15 -19 -45 -19zM210 530c0 -21 0 -45 -1 -70l-1 -50c0 -25 1 -48 3 -68c28 1 48 10 60 27c13 17 19 45 19 84s-3 67 -10 82c-28 7 -51 6 -70 -5z" />
    <glyph glyph-name="degree" unicode="&#xb0;" horiz-adv-x="314" 
d="M256 688c13 -66 11 -133 -6 -200c-22 -20 -54 -30 -95 -30c-39 -1 -73 8 -102 25c-7 79 -3 142 11 188c18 15 50 23 97 26c43 3 75 0 95 -9zM98 645c-19 -45 -19 -93 0 -142c55 -15 94 -10 117 13c15 47 15 95 0 143c-53 14 -92 9 -117 -14z" />
    <glyph glyph-name="plusminus" unicode="&#xb1;" horiz-adv-x="357" 
d="M160 174c-1 0 -1 41 -1 124l-93 -2l-12 12c-3 0 -4 7 -3 20c1 4 1 8 1 12c1 4 1 5 1 3s35 -3 106 -3c-1 53 -2 92 -2 116c-1 6 6 11 21 14s24 3 25 -2l-2 -47c0 -24 0 -51 1 -81c49 1 81 2 94 2c6 1 9 -6 10 -21s0 -23 -5 -24l-40 3l-58 -1l3 -129c-7 -3 -23 -2 -46 4z
M304 72c0 2 -39 3 -117 3l-126 -2c-5 -1 -9 6 -10 22c-1 15 1 24 5 25l40 -3l195 4l12 -12c1 0 1 -12 1 -37z" />
    <glyph glyph-name="uni00B2" unicode="&#xb2;" horiz-adv-x="306" 
d="M66 672c35 20 73 29 114 27c35 -2 54 -8 59 -18c13 -13 20 -33 20 -58c0 -59 -2 -93 -6 -104c-10 -25 -26 -44 -48 -57c-29 -18 -53 -38 -74 -60c-25 -27 -30 -45 -14 -53c31 -5 77 -3 138 6c4 -1 3 -11 -2 -30c-99 0 -157 1 -173 2c-24 15 -25 37 -2 66
c19 23 58 56 119 99c9 14 15 40 18 78s2 67 -3 88c-9 13 -30 18 -61 15s-48 -11 -53 -22c-5 -12 -8 -40 -8 -84c-2 -4 -8 -6 -17 -5c-8 1 -14 2 -17 5c-10 52 -7 87 10 105z" />
    <glyph glyph-name="uni00B3" unicode="&#xb3;" horiz-adv-x="301" 
d="M191 677l-127 -1c-5 -4 -8 -1 -11 10c-3 10 -2 15 2 16h174l11 -11c-3 -2 -6 -6 -9 -12c-4 -6 -7 -10 -10 -13l-45 -49c-23 -25 -38 -41 -45 -49c23 1 44 -2 63 -10c39 -17 58 -48 57 -92c-1 -36 -9 -62 -25 -78c-33 -34 -83 -55 -152 -64c-7 0 -13 4 -16 11s-1 13 7 16
c39 8 66 16 81 24c23 13 37 23 43 29c15 15 23 35 24 60c0 37 -19 61 -57 73l-65 6l-7 21c7 9 25 28 56 57c28 27 45 46 51 56z" />
    <glyph glyph-name="acute" unicode="&#xb4;" horiz-adv-x="231" 
d="M181 684c3 5 -32 -37 -103 -125c-8 1 -17 3 -28 7c8 25 34 67 78 128l19 8c13 -3 25 -9 34 -18z" />
    <glyph glyph-name="mu" unicode="&#xb5;" horiz-adv-x="360" 
d="M264 150l-2 78v137c0 11 -1 31 -4 60c-3 28 -4 49 -3 62c5 5 14 8 26 9c13 1 21 0 26 -5c3 -43 4 -101 3 -176c-1 -89 -2 -148 -1 -179v-121c-14 -17 -29 -21 -46 -12c-1 13 -2 27 -2 41c-58 -44 -109 -56 -154 -37c0 -42 -1 -75 -2 -98c-23 -11 -40 -14 -50 -7
c-3 15 -2 67 1 154l-1 2c0 248 -2 392 -5 433c21 15 38 17 53 8c7 -26 9 -75 5 -147l-2 -99c-1 -65 -1 -125 0 -182c44 -31 96 -24 155 19z" />
    <glyph glyph-name="paragraph" unicode="&#xb6;" horiz-adv-x="396" 
d="M294 232l7 404c-19 9 -50 15 -94 17c1 -27 0 -70 -3 -127c-1 -15 -1 -31 0 -47l1 -53l-3 -76l2 -78v-137c0 -11 1 -31 4 -62c3 -30 4 -52 3 -65c-5 -5 -14 -8 -26 -9c-13 -1 -21 0 -26 5c-3 43 -3 102 -2 179c1 90 1 150 0 181c-1 14 -1 36 -1 65c-43 5 -67 12 -72 22
c-40 92 -45 164 -14 216c55 41 148 45 277 10c-3 -8 -4 -58 -2 -150c2 -111 2 -188 0 -229c-3 -31 -4 -53 -4 -67c0 -117 2 -192 6 -223c-10 -12 -29 -15 -58 -8v51c0 27 1 62 4 105c2 35 2 60 1 76z" />
    <glyph glyph-name="middot" unicode="&#xb7;" horiz-adv-x="159" 
d="M100 294c-15 -6 -31 -6 -47 -1c-5 31 -4 50 3 58c31 7 47 8 49 2c7 -16 5 -36 -5 -59z" />
    <glyph glyph-name="cedilla" unicode="&#xb8;" horiz-adv-x="255" 
d="M86 -37l17 43h29l-7 -35c31 3 54 -6 69 -29c12 -19 14 -37 7 -56c-7 -20 -25 -33 -53 -38l-98 19c0 11 7 18 21 21c11 -3 32 -5 63 -7c24 7 34 20 30 41c-3 21 -23 30 -59 27z" />
    <glyph glyph-name="uni00B9" unicode="&#xb9;" horiz-adv-x="189" 
d="M132 512l1 -115c0 -6 1 -17 3 -33c2 -15 3 -26 3 -33c-16 -10 -29 -11 -39 -2c-2 23 -3 54 -2 95c1 45 1 77 0 96v107l-1 25c-17 -13 -33 -11 -47 4l50 36l1 2c11 5 23 6 34 2l1 -14c0 -24 -1 -49 -3 -75l1 -50z" />
    <glyph glyph-name="ordmasculine" unicode="&#xba;" horiz-adv-x="298" 
d="M248 657c1 -6 2 -19 2 -39c1 -15 2 -36 1 -61v-61c0 -70 0 -108 -1 -113c0 1 -5 -9 -15 -32c-2 -1 -7 -4 -15 -11c-7 -6 -14 -10 -19 -12c-45 -11 -79 -12 -102 -2c-11 5 -25 20 -40 45c-1 13 -1 37 -1 70c0 30 -1 55 -2 74v40c-8 39 -7 68 3 87c2 13 13 25 32 34
c14 10 36 18 67 25c12 2 30 -1 53 -9c9 -3 21 -15 37 -35zM94 622c-1 -12 -1 -61 2 -147c3 -61 5 -90 4 -87c5 -25 22 -36 50 -32c21 2 34 4 39 6c9 4 17 14 24 29c1 19 1 101 1 245c-7 19 -27 27 -60 25c-34 -3 -54 -16 -60 -39z" />
    <glyph glyph-name="guillemotright" unicode="&#xbb;" horiz-adv-x="350" 
d="M201 472c7 -11 23 -38 47 -83c24 -44 41 -74 52 -89c-39 -93 -70 -150 -94 -173c-13 11 -21 22 -23 33l58 139l-56 124c-9 18 -3 34 16 49zM70 472c7 -11 23 -38 47 -83c24 -44 41 -74 52 -89c-39 -93 -70 -150 -94 -173c-13 11 -21 22 -23 33l58 139l-56 124
c-9 18 -3 34 16 49z" />
    <glyph glyph-name="onequarter" unicode="&#xbc;" horiz-adv-x="565" 
d="M309 712h7c17 6 33 6 46 0c-1 -9 -6 -34 -16 -73c-7 -34 -13 -58 -17 -71c-5 -15 -11 -38 -18 -69l-19 -69c-15 -49 -28 -94 -39 -136c-4 -16 -9 -40 -16 -72c-7 -33 -13 -57 -17 -73c-1 -6 -4 -16 -8 -29l-9 -30c-33 -117 -51 -178 -54 -183c-13 -6 -27 -6 -40 -1
c0 5 8 40 23 104c3 11 7 27 14 48s11 37 14 48l24 104l26 101c2 7 4 16 6 27c3 13 5 21 6 25c-1 -3 4 12 15 47c2 5 4 14 7 25l6 24l16 48c7 23 14 56 22 101c8 48 15 83 21 104zM437 406c5 10 16 12 31 6l8 -2c1 -17 1 -50 -2 -99l1 -54l-2 -50l1 -49c-1 -1 -1 -3 -1 -4
l34 2c7 -1 9 -10 6 -28l-39 -1v-45c0 -7 1 -19 3 -36c2 -18 3 -31 3 -38c-4 -3 -11 -5 -21 -6s-17 0 -20 3c-2 19 -3 60 -3 122c-35 0 -69 0 -102 1l-20 16l6 25c6 19 27 63 64 132c35 65 52 100 53 105zM132 512l1 -115c0 -6 1 -17 3 -33c2 -15 3 -26 3 -33
c-16 -10 -29 -11 -39 -2c-2 23 -3 54 -2 95c1 45 1 77 0 96v107l-1 25c-17 -13 -33 -11 -47 4l50 36l1 2c11 5 23 6 34 2l1 -14c0 -24 -1 -49 -3 -75l1 -50zM437 153l-1 165l-1 14c-39 -75 -65 -133 -78 -172l5 -8c23 0 48 0 75 1z" />
    <glyph glyph-name="onehalf" unicode="&#xbd;" horiz-adv-x="578" 
d="M309 712h7c17 6 33 6 46 0c-1 -9 -6 -34 -16 -73c-7 -34 -13 -58 -17 -71c-5 -15 -11 -38 -18 -69l-19 -69c-15 -49 -28 -94 -39 -136c-4 -16 -9 -40 -16 -72c-7 -33 -13 -57 -17 -73c-1 -6 -4 -16 -8 -29l-9 -30c-33 -117 -51 -178 -54 -183c-13 -6 -27 -6 -40 -1
c0 5 8 40 23 104c3 11 7 27 14 48s11 37 14 48l24 104l26 101c2 7 4 16 6 27c3 13 5 21 6 25c-1 -3 4 12 15 47c2 5 4 14 7 25l6 24l16 48c7 23 14 56 22 101c8 48 15 83 21 104zM335 347c35 20 73 29 114 27c35 -2 54 -8 59 -18c13 -13 20 -33 20 -58c0 -59 -2 -93 -6 -104
c-10 -25 -26 -44 -48 -57c-29 -18 -53 -38 -74 -60c-25 -27 -30 -45 -14 -53c31 -5 77 -3 138 6c4 -1 3 -11 -2 -30c-99 0 -157 1 -173 2c-24 15 -25 37 -2 66c19 23 58 56 119 99c9 14 15 40 18 78s2 67 -3 88c-9 13 -30 18 -61 15s-48 -11 -53 -22c-5 -12 -8 -40 -8 -84
c-2 -4 -8 -6 -17 -5c-8 1 -14 2 -17 5c-10 52 -7 87 10 105zM132 512l1 -115c0 -6 1 -17 3 -33c2 -15 3 -26 3 -33c-16 -10 -29 -11 -39 -2c-2 23 -3 54 -2 95c1 45 1 77 0 96v107l-1 25c-17 -13 -33 -11 -47 4l50 36l1 2c11 5 23 6 34 2l1 -14c0 -24 -1 -49 -3 -75l1 -50z
" />
    <glyph glyph-name="threequarters" unicode="&#xbe;" horiz-adv-x="638" 
d="M383 713h7c17 6 33 6 46 0c-1 -9 -6 -34 -16 -73c-7 -34 -13 -58 -17 -71c-5 -15 -11 -38 -18 -69l-19 -69c-15 -49 -28 -94 -39 -136c-4 -16 -9 -40 -16 -72c-7 -33 -13 -57 -17 -73c-1 -6 -4 -16 -8 -29l-9 -30c-33 -117 -51 -178 -54 -183c-13 -6 -27 -6 -40 -1
c0 5 8 40 23 104c3 11 7 27 14 48s11 37 14 48l24 104l26 101c2 7 4 16 6 27c3 13 5 21 6 25c-1 -3 4 12 15 47c2 5 4 14 7 25l6 24l16 48c7 23 14 56 22 101c8 48 15 83 21 104zM511 407c5 10 16 12 31 6l8 -2c1 -17 1 -50 -2 -99l1 -54l-2 -50l1 -49c-1 -1 -1 -3 -1 -4
l34 2c7 -1 9 -10 6 -28l-39 -1v-45c0 -7 1 -19 3 -36c2 -18 3 -31 3 -38c-4 -3 -11 -5 -21 -6s-17 0 -20 3c-2 19 -3 60 -3 122c-35 0 -69 0 -102 1l-20 16l6 25c6 19 27 63 64 132c35 65 52 100 53 105zM191 677l-127 -1c-5 -4 -8 -1 -11 10c-3 10 -2 15 2 16h174l11 -11
c-3 -2 -6 -6 -9 -12c-4 -6 -7 -10 -10 -13l-45 -49c-23 -25 -38 -41 -45 -49c23 1 44 -2 63 -10c39 -17 58 -48 57 -92c-1 -36 -9 -62 -25 -78c-33 -34 -83 -55 -152 -64c-7 0 -13 4 -16 11s-1 13 7 16c39 8 66 16 81 24c23 13 37 23 43 29c15 15 23 35 24 60
c0 37 -19 61 -57 73l-65 6l-7 21c7 9 25 28 56 57c28 27 45 46 51 56zM511 154l-1 165l-1 14c-39 -75 -65 -133 -78 -172l5 -8c23 0 48 0 75 1z" />
    <glyph glyph-name="questiondown" unicode="&#xbf;" horiz-adv-x="361" 
d="M265 236c3 6 8 9 17 9s16 -4 20 -13c9 -30 10 -98 3 -203c-12 -16 -46 -23 -101 -22c-59 1 -100 15 -123 41c-19 21 -28 54 -28 100l-2 64c-1 29 -1 53 0 72c2 56 13 93 33 112c5 4 14 9 26 16c14 7 24 13 29 17c22 15 33 35 33 60l5 27l-1 61c3 6 9 10 20 11s19 0 26 -3
c1 -71 -2 -115 -9 -134c-7 -21 -31 -45 -72 -72c-17 -12 -29 -24 -37 -35v-228c11 -29 30 -48 57 -58c26 -11 56 -11 89 -2c21 37 26 97 15 180zM179 708c15 6 31 6 47 1c5 -31 4 -50 -3 -58c-31 -7 -47 -8 -49 -2c-7 16 -5 36 5 59z" />
    <glyph glyph-name="Agrave" unicode="&#xc0;" horiz-adv-x="368" 
d="M227 698c8 -33 15 -86 21 -159c7 -83 13 -137 18 -163c11 -63 16 -89 15 -79c21 -191 33 -286 36 -283c-1 -13 -18 -16 -53 -11c-1 3 -2 16 -4 38l-7 69c-8 69 -16 122 -24 158c-7 1 -22 1 -44 0l-42 -3c-8 -68 -13 -111 -14 -129c-3 -29 -4 -69 -4 -119
c0 -8 -7 -12 -20 -11l-32 1c14 175 28 317 43 427c24 176 35 262 33 258c29 11 55 13 78 6zM153 314l68 5c0 25 -3 78 -10 158c-7 84 -11 137 -12 160c-1 3 -4 5 -9 4s-9 -4 -10 -7c-3 -20 -7 -66 -12 -138c-5 -79 -10 -139 -15 -182zM71 861c9 9 21 15 34 18l19 -8
c44 -61 70 -103 78 -128c-11 -4 -20 -6 -28 -7c-71 88 -106 130 -103 125z" />
    <glyph glyph-name="Aacute" unicode="&#xc1;" horiz-adv-x="345" 
d="M204 698c8 -33 15 -86 21 -159c7 -83 13 -137 18 -163c11 -63 16 -89 15 -79c21 -191 33 -286 36 -283c-1 -13 -18 -16 -53 -11c-1 3 -2 16 -4 38l-7 69c-8 69 -16 122 -24 158c-7 1 -22 1 -44 0l-42 -3c-8 -68 -13 -111 -14 -129c-3 -29 -4 -69 -4 -119
c0 -8 -7 -12 -20 -11l-32 1c14 175 28 317 43 427c24 176 35 262 33 258c29 11 55 13 78 6zM130 314l68 5c0 25 -3 78 -10 158c-7 84 -11 137 -12 160c-1 3 -4 5 -9 4s-9 -4 -10 -7c-3 -20 -7 -66 -12 -138c-5 -79 -10 -139 -15 -182zM268 861c3 5 -32 -37 -103 -125
c-8 1 -17 3 -28 7c8 25 34 67 78 128l19 8c13 -3 25 -9 34 -18z" />
    <glyph glyph-name="Acircumflex" unicode="&#xc2;" horiz-adv-x="345" 
d="M204 698c8 -33 15 -86 21 -159c7 -83 13 -137 18 -163c11 -63 16 -89 15 -79c21 -191 33 -286 36 -283c-1 -13 -18 -16 -53 -11c-1 3 -2 16 -4 38l-7 69c-8 69 -16 122 -24 158c-7 1 -22 1 -44 0l-42 -3c-8 -68 -13 -111 -14 -129c-3 -29 -4 -69 -4 -119
c0 -8 -7 -12 -20 -11l-32 1c14 175 28 317 43 427c24 176 35 262 33 258c29 11 55 13 78 6zM130 314l68 5c0 25 -3 78 -10 158c-7 84 -11 137 -12 160c-1 3 -4 5 -9 4s-9 -4 -10 -7c-3 -20 -7 -66 -12 -138c-5 -79 -10 -139 -15 -182zM261 752l-24 -11c-48 33 -76 52 -83 59
c-31 -27 -53 -48 -68 -65c-4 0 -8 2 -11 7s-7 8 -10 8c13 30 38 65 77 105l30 -5l65 -66c14 -13 22 -23 24 -32z" />
    <glyph glyph-name="Atilde" unicode="&#xc3;" horiz-adv-x="360" 
d="M204 698c8 -33 15 -86 21 -159c7 -83 13 -137 18 -163c11 -63 16 -89 15 -79c21 -191 33 -286 36 -283c-1 -13 -18 -16 -53 -11c-1 3 -2 16 -4 38l-7 69c-8 69 -16 122 -24 158c-7 1 -22 1 -44 0l-42 -3c-8 -68 -13 -111 -14 -129c-3 -29 -4 -69 -4 -119
c0 -8 -7 -12 -20 -11l-32 1c14 175 28 317 43 427c24 176 35 262 33 258c29 11 55 13 78 6zM130 314l68 5c0 25 -3 78 -10 158c-7 84 -11 137 -12 160c-1 3 -4 5 -9 4s-9 -4 -10 -7c-3 -20 -7 -66 -12 -138c-5 -79 -10 -139 -15 -182zM121 765l-70 -21c-11 9 -14 21 -9 38
l67 32c18 -1 37 -6 58 -15c26 -11 40 -16 41 -16l60 24c15 -19 17 -32 6 -40l-67 -31z" />
    <glyph glyph-name="Adieresis" unicode="&#xc4;" horiz-adv-x="345" 
d="M204 698c8 -33 15 -86 21 -159c7 -83 13 -137 18 -163c11 -63 16 -89 15 -79c21 -191 33 -286 36 -283c-1 -13 -18 -16 -53 -11c-1 3 -2 16 -4 38l-7 69c-8 69 -16 122 -24 158c-7 1 -22 1 -44 0l-42 -3c-8 -68 -13 -111 -14 -129c-3 -29 -4 -69 -4 -119
c0 -8 -7 -12 -20 -11l-32 1c14 175 28 317 43 427c24 176 35 262 33 258c29 11 55 13 78 6zM130 314l68 5c0 25 -3 78 -10 158c-7 84 -11 137 -12 160c-1 3 -4 5 -9 4s-9 -4 -10 -7c-3 -20 -7 -66 -12 -138c-5 -79 -10 -139 -15 -182zM133 744c-15 -6 -31 -6 -47 -1
c-5 31 -4 50 3 58c31 7 47 8 49 2c7 -16 5 -36 -5 -59zM244 744c-15 -6 -31 -6 -47 -1c-5 31 -4 50 3 58c31 7 47 8 49 2c7 -16 5 -36 -5 -59z" />
    <glyph glyph-name="Aring" unicode="&#xc5;" horiz-adv-x="345" 
d="M204 698c8 -33 15 -86 21 -159c7 -83 13 -137 18 -163c11 -63 16 -89 15 -79c21 -191 33 -286 36 -283c-1 -13 -18 -16 -53 -11c-1 3 -2 16 -4 38l-7 69c-8 69 -16 122 -24 158c-7 1 -22 1 -44 0l-42 -3c-8 -68 -13 -111 -14 -129c-3 -29 -4 -69 -4 -119
c0 -8 -7 -12 -20 -11l-32 1c14 175 28 317 43 427c24 176 35 262 33 258c29 11 55 13 78 6zM130 314l68 5c0 25 -3 78 -10 158c-7 84 -11 137 -12 160c-1 3 -4 5 -9 4s-9 -4 -10 -7c-3 -20 -7 -66 -12 -138c-5 -79 -10 -139 -15 -182zM220 862c7 -37 6 -74 -3 -110
c-13 -11 -30 -16 -52 -16s-41 5 -56 14c-4 43 -2 78 6 103c10 8 28 13 53 14c24 1 41 0 52 -5zM143 828c-8 -18 -8 -37 0 -57c21 -6 36 -4 47 5c5 19 5 38 0 58c-22 5 -38 3 -47 -6z" />
    <glyph glyph-name="AE" unicode="&#xc6;" horiz-adv-x="577" 
d="M511 659c-7 0 -66 -6 -178 -19c-1 -14 -3 -47 -8 -100c-4 -43 -6 -81 -5 -112c2 -40 3 -61 4 -63c4 -14 24 -20 59 -19c49 1 76 1 81 0c9 -15 5 -27 -12 -38c-74 -6 -108 -8 -102 -6c-5 -2 -9 -4 -10 -6c-1 -3 -4 -5 -7 -6c-2 -4 -4 -52 -6 -145c-1 -31 1 -58 7 -81
c15 -10 57 -13 126 -10c7 0 18 2 34 6c13 3 24 3 31 2c2 -5 2 -20 0 -43l-74 -12c-43 -5 -69 -7 -77 -6c8 0 -19 4 -80 11c-3 -11 -20 -14 -53 -9c-1 3 -2 16 -4 38l-7 69c-8 69 -16 122 -24 158c-7 1 -22 1 -44 0l-42 -3c-8 -68 -13 -111 -14 -129c-3 -29 -4 -69 -4 -119
c0 -8 -7 -12 -20 -11l-32 1c14 175 28 317 43 427c24 176 35 262 33 258c29 11 55 13 78 6c8 -33 15 -86 21 -159c7 -83 13 -137 18 -163c11 -63 16 -89 15 -79l16 -127c-1 7 0 23 2 47l1 43c-2 27 -3 81 -3 162c0 16 1 41 2 76c1 34 2 60 2 78c0 50 2 81 7 92
c40 23 117 31 232 26c6 -1 7 -6 3 -15c-6 -15 -9 -22 -9 -20zM130 314l68 5c0 25 -3 78 -10 158c-7 84 -11 137 -12 160c-1 3 -4 5 -9 4s-9 -4 -10 -7c-3 -20 -7 -66 -12 -138c-5 -79 -10 -139 -15 -182z" />
    <glyph glyph-name="Ccedilla" unicode="&#xc7;" horiz-adv-x="351" 
d="M116 -37l15 40c-1 0 -4 1 -8 2c-12 3 -27 10 -45 21c-19 47 -28 81 -27 100v303c0 63 7 136 20 217c21 25 58 42 112 51c57 10 96 4 117 -19c-1 -111 -6 -183 -14 -215c-16 0 -26 4 -31 11c-2 11 -1 42 2 92c2 31 -4 61 -17 91c-46 5 -87 -6 -123 -35
c-5 -20 -13 -103 -23 -250c-1 -31 0 -67 2 -106c1 -43 2 -77 2 -101c5 -55 8 -84 11 -87c15 -19 59 -23 130 -11l11 26c2 5 4 27 6 65c2 33 5 51 10 52l24 9c7 2 10 -14 10 -48c0 -65 -2 -103 -6 -115c-5 -15 -19 -27 -40 -34c-50 -14 -81 -21 -93 -22l-6 -29
c31 3 54 -6 69 -29c12 -19 14 -37 7 -56c-7 -20 -25 -33 -53 -38l-98 19c0 11 7 18 21 21c11 -3 32 -5 63 -7c24 7 34 20 30 41c-3 21 -23 30 -59 27z" />
    <glyph glyph-name="Egrave" unicode="&#xc8;" horiz-adv-x="393" 
d="M327 659c-7 0 -66 -6 -178 -19c-1 -14 -3 -47 -8 -100c-4 -43 -6 -81 -5 -112c2 -40 3 -61 4 -63c4 -14 24 -20 59 -19c49 1 76 1 81 0c9 -15 5 -27 -12 -38c-74 -6 -108 -8 -102 -6c-5 -2 -9 -4 -10 -6c-1 -3 -4 -5 -7 -6c-2 -4 -4 -52 -6 -145c-1 -31 1 -58 7 -81
c15 -10 57 -13 126 -10c7 0 18 2 34 6c13 3 24 3 31 2c2 -5 2 -20 0 -43l-74 -12c-43 -5 -69 -7 -77 -6c-10 1 -26 3 -47 7c-23 3 -38 5 -45 6c-2 17 -3 41 -4 73c-1 39 -2 65 -3 79c-1 6 -1 22 0 47l2 47c-2 27 -3 81 -3 162c0 16 1 41 2 76c1 34 2 60 2 78c0 50 2 81 7 92
c40 23 117 31 232 26c6 -1 7 -6 3 -15c-6 -15 -9 -22 -9 -20zM87 861c9 9 21 15 34 18l19 -8c44 -61 70 -103 78 -128c-11 -4 -20 -6 -28 -7c-71 88 -106 130 -103 125z" />
    <glyph glyph-name="Eacute" unicode="&#xc9;" horiz-adv-x="354" 
d="M287 659c-7 0 -66 -6 -178 -19c-1 -14 -3 -47 -8 -100c-4 -43 -6 -81 -5 -112c2 -40 3 -61 4 -63c4 -14 24 -20 59 -19c49 1 76 1 81 0c9 -15 5 -27 -12 -38c-74 -6 -108 -8 -102 -6c-5 -2 -9 -4 -10 -6c-1 -3 -4 -5 -7 -6c-2 -4 -4 -52 -6 -145c-1 -31 1 -58 7 -81
c15 -10 57 -13 126 -10c7 0 18 2 34 6c13 3 24 3 31 2c2 -5 2 -20 0 -43l-74 -12c-43 -5 -69 -7 -77 -6c-10 1 -26 3 -47 7c-23 3 -38 5 -45 6c-2 17 -3 41 -4 73c-1 39 -2 65 -3 79c-1 6 -1 22 0 47l2 47c-2 27 -3 81 -3 162c0 16 1 41 2 76c1 34 2 60 2 78c0 50 2 81 7 92
c40 23 117 31 232 26c6 -1 7 -6 3 -15c-6 -15 -9 -22 -9 -20zM276 860c3 5 -32 -37 -103 -125c-8 1 -17 3 -28 7c8 25 34 67 78 128l19 8c13 -3 25 -9 34 -18z" />
    <glyph glyph-name="Ecircumflex" unicode="&#xca;" horiz-adv-x="354" 
d="M287 659c-7 0 -66 -6 -178 -19c-1 -14 -3 -47 -8 -100c-4 -43 -6 -81 -5 -112c2 -40 3 -61 4 -63c4 -14 24 -20 59 -19c49 1 76 1 81 0c9 -15 5 -27 -12 -38c-74 -6 -108 -8 -102 -6c-5 -2 -9 -4 -10 -6c-1 -3 -4 -5 -7 -6c-2 -4 -4 -52 -6 -145c-1 -31 1 -58 7 -81
c15 -10 57 -13 126 -10c7 0 18 2 34 6c13 3 24 3 31 2c2 -5 2 -20 0 -43l-74 -12c-43 -5 -69 -7 -77 -6c-10 1 -26 3 -47 7c-23 3 -38 5 -45 6c-2 17 -3 41 -4 73c-1 39 -2 65 -3 79c-1 6 -1 22 0 47l2 47c-2 27 -3 81 -3 162c0 16 1 41 2 76c1 34 2 60 2 78c0 50 2 81 7 92
c40 23 117 31 232 26c6 -1 7 -6 3 -15c-6 -15 -9 -22 -9 -20zM273 752l-24 -11c-48 33 -76 52 -83 59c-31 -27 -53 -48 -68 -65c-4 0 -8 2 -11 7s-7 8 -10 8c13 30 38 65 77 105l30 -5l65 -66c14 -13 22 -23 24 -32z" />
    <glyph glyph-name="Edieresis" unicode="&#xcb;" horiz-adv-x="354" 
d="M287 659c-7 0 -66 -6 -178 -19c-1 -14 -3 -47 -8 -100c-4 -43 -6 -81 -5 -112c2 -40 3 -61 4 -63c4 -14 24 -20 59 -19c49 1 76 1 81 0c9 -15 5 -27 -12 -38c-74 -6 -108 -8 -102 -6c-5 -2 -9 -4 -10 -6c-1 -3 -4 -5 -7 -6c-2 -4 -4 -52 -6 -145c-1 -31 1 -58 7 -81
c15 -10 57 -13 126 -10c7 0 18 2 34 6c13 3 24 3 31 2c2 -5 2 -20 0 -43l-74 -12c-43 -5 -69 -7 -77 -6c-10 1 -26 3 -47 7c-23 3 -38 5 -45 6c-2 17 -3 41 -4 73c-1 39 -2 65 -3 79c-1 6 -1 22 0 47l2 47c-2 27 -3 81 -3 162c0 16 1 41 2 76c1 34 2 60 2 78c0 50 2 81 7 92
c40 23 117 31 232 26c6 -1 7 -6 3 -15c-6 -15 -9 -22 -9 -20zM135 739c-15 -6 -31 -6 -47 -1c-5 31 -4 50 3 58c31 7 47 8 49 2c7 -16 5 -36 -5 -59zM246 739c-15 -6 -31 -6 -47 -1c-5 31 -4 50 3 58c31 7 47 8 49 2c7 -16 5 -36 -5 -59z" />
    <glyph glyph-name="Igrave" unicode="&#xcc;" horiz-adv-x="157" 
d="M97 350l2 -78v-137c0 -11 1 -31 4 -60c3 -28 4 -49 3 -62c-5 -5 -14 -8 -26 -9c-13 -1 -21 0 -26 5c-3 43 -3 101 -2 176c1 89 1 148 0 179v149c0 105 1 163 3 176c15 10 31 11 46 4c2 -41 1 -97 -2 -167c-1 -12 -1 -27 0 -46l1 -46zM-37 860c9 9 21 15 34 18l19 -8
c44 -61 70 -103 78 -128c-11 -4 -20 -6 -28 -7c-71 88 -106 130 -103 125z" />
    <glyph glyph-name="Iacute" unicode="&#xcd;" horiz-adv-x="157" 
d="M96 350l2 -78v-137c0 -11 1 -31 4 -60c3 -28 4 -49 3 -62c-5 -5 -14 -8 -26 -9c-13 -1 -21 0 -26 5c-3 43 -3 101 -2 176c1 89 1 148 0 179v149c0 105 1 163 3 176c15 10 31 11 46 4c2 -41 1 -97 -2 -167c-1 -12 -1 -27 0 -46l1 -46zM184 860c3 5 -32 -37 -103 -125
c-8 1 -17 3 -28 7c8 25 34 67 78 128l19 8c13 -3 25 -9 34 -18z" />
    <glyph glyph-name="Icircumflex" unicode="&#xce;" horiz-adv-x="157" 
d="M97 350l2 -78v-137c0 -11 1 -31 4 -60c3 -28 4 -49 3 -62c-5 -5 -14 -8 -26 -9c-13 -1 -21 0 -26 5c-3 43 -3 101 -2 176c1 89 1 148 0 179v149c0 105 1 163 3 176c15 10 31 11 46 4c2 -41 1 -97 -2 -167c-1 -12 -1 -27 0 -46l1 -46zM177 751l-24 -11
c-48 33 -76 52 -83 59c-31 -27 -53 -48 -68 -65c-4 0 -8 2 -11 7s-7 8 -10 8c13 30 38 65 77 105l30 -5l65 -66c14 -13 22 -23 24 -32z" />
    <glyph glyph-name="Idieresis" unicode="&#xcf;" horiz-adv-x="157" 
d="M97 350l2 -78v-137c0 -11 1 -31 4 -60c3 -28 4 -49 3 -62c-5 -5 -14 -8 -26 -9c-13 -1 -21 0 -26 5c-3 43 -3 101 -2 176c1 89 1 148 0 179v149c0 105 1 163 3 176c15 10 31 11 46 4c2 -41 1 -97 -2 -167c-1 -12 -1 -27 0 -46l1 -46zM158 743c-15 -6 -31 -6 -47 -1
c-5 31 -4 50 3 58c31 7 47 8 49 2c7 -16 5 -36 -5 -59zM47 743c-15 -6 -31 -6 -47 -1c-5 31 -4 50 3 58c31 7 47 8 49 2c7 -16 5 -36 -5 -59z" />
    <glyph glyph-name="Eth" unicode="&#xd0;" horiz-adv-x="402" 
d="M50 350c0 -1 15 -2 44 -3l1 102l-2 217l19 32c83 1 143 -12 179 -37c18 -12 34 -34 48 -67c5 -33 8 -88 8 -165c3 -52 3 -94 2 -125c-2 -31 -2 -57 -1 -78l1 -74c-10 -47 -21 -80 -34 -99c-26 -39 -68 -56 -127 -52c-61 3 -91 4 -91 5c-3 9 -4 107 -3 293
c-12 -1 -22 -1 -31 -1l-12 12c-1 0 -1 13 -1 40zM139 502l3 -94v-61l100 2c6 1 9 -6 10 -23s0 -26 -5 -27l-40 3l-64 -2l2 -249c66 -5 110 9 131 41c15 24 24 75 27 152c0 55 -1 97 -2 126c3 70 2 133 -5 189c-1 32 -21 55 -60 69c-31 11 -61 14 -90 11
c-3 -10 -5 -39 -8 -88c1 -6 2 -14 1 -24c-1 -12 -1 -20 0 -25z" />
    <glyph glyph-name="Ntilde" unicode="&#xd1;" horiz-adv-x="370" 
d="M279 685l35 -42c0 -382 2 -593 5 -634c-21 -15 -38 -17 -53 -8c-7 26 -9 75 -5 147c0 19 2 134 5 343l-3 139c-43 29 -95 22 -156 -19c-1 -28 -2 -48 -2 -60l2 -416c0 -11 1 -31 4 -60c3 -28 4 -49 3 -62c-5 -5 -14 -8 -26 -9c-13 -1 -21 0 -26 5c-3 43 -3 136 -2 277
c1 157 1 250 0 279v121c14 17 29 21 46 12l2 -42c65 50 122 60 171 29zM149 764l-70 -21c-11 9 -14 21 -9 38l67 32c18 -1 37 -6 58 -15c26 -11 40 -16 41 -16l60 24c15 -19 17 -32 6 -40l-67 -31z" />
    <glyph glyph-name="Ograve" unicode="&#xd2;" horiz-adv-x="385" 
d="M330 645c2 -30 2 -71 1 -122c-2 -51 -2 -94 1 -129c1 -21 1 -48 0 -82c-1 -41 -2 -68 -2 -81l-1 -77c0 -5 1 -18 3 -38c1 -16 1 -28 0 -37c1 5 -6 -9 -19 -43c-3 -1 -10 -6 -19 -15c-9 -8 -17 -13 -24 -15c-55 -17 -99 -18 -132 -3c-13 6 -30 26 -51 60
c-1 14 -1 45 -1 94c-1 39 -2 72 -3 99s0 69 1 128c1 53 1 95 -1 125c0 67 2 107 6 119c3 15 16 30 39 43c18 13 47 24 86 34c13 3 36 -1 68 -12c10 -4 26 -20 48 -48zM132 599c-3 -17 -3 -39 -2 -68c3 -46 2 -98 -1 -155c-1 -23 -1 -53 2 -89c3 -41 5 -69 5 -84
c0 -63 1 -102 4 -117c7 -34 29 -48 64 -43c42 4 70 23 84 58c-7 164 -6 336 4 515c-9 25 -35 36 -80 34c-46 -3 -73 -20 -80 -51zM91 860c9 9 21 15 34 18l19 -8c44 -61 70 -103 78 -128c-11 -4 -20 -6 -28 -7c-71 88 -106 130 -103 125z" />
    <glyph glyph-name="Oacute" unicode="&#xd3;" horiz-adv-x="352" 
d="M297 645c2 -30 2 -71 1 -122c-2 -51 -2 -94 1 -129c1 -21 1 -48 0 -82c-1 -41 -2 -68 -2 -81l-1 -77c0 -5 1 -18 3 -38c1 -16 1 -28 0 -37c1 5 -6 -9 -19 -43c-3 -1 -10 -6 -19 -15c-9 -8 -17 -13 -24 -15c-55 -17 -99 -18 -132 -3c-13 6 -30 26 -51 60
c-1 14 -1 45 -1 94c-1 39 -2 72 -3 99s0 69 1 128c1 53 1 95 -1 125c0 67 2 107 6 119c3 15 16 30 39 43c18 13 47 24 86 34c13 3 36 -1 68 -12c10 -4 26 -20 48 -48zM99 599c-3 -17 -3 -39 -2 -68c3 -46 2 -98 -1 -155c-1 -23 -1 -53 2 -89c3 -41 5 -69 5 -84
c0 -63 1 -102 4 -117c7 -34 29 -48 64 -43c42 4 70 23 84 58c-7 164 -6 336 4 515c-9 25 -35 36 -80 34c-46 -3 -73 -20 -80 -51zM285 860c3 5 -32 -37 -103 -125c-8 1 -17 3 -28 7c8 25 34 67 78 128l19 8c13 -3 25 -9 34 -18z" />
    <glyph glyph-name="Ocircumflex" unicode="&#xd4;" horiz-adv-x="352" 
d="M297 645c2 -30 2 -71 1 -122c-2 -51 -2 -94 1 -129c1 -21 1 -48 0 -82c-1 -41 -2 -68 -2 -81l-1 -77c0 -5 1 -18 3 -38c1 -16 1 -28 0 -37c1 5 -6 -9 -19 -43c-3 -1 -10 -6 -19 -15c-9 -8 -17 -13 -24 -15c-55 -17 -99 -18 -132 -3c-13 6 -30 26 -51 60
c-1 14 -1 45 -1 94c-1 39 -2 72 -3 99s0 69 1 128c1 53 1 95 -1 125c0 67 2 107 6 119c3 15 16 30 39 43c18 13 47 24 86 34c13 3 36 -1 68 -12c10 -4 26 -20 48 -48zM99 599c-3 -17 -3 -39 -2 -68c3 -46 2 -98 -1 -155c-1 -23 -1 -53 2 -89c3 -41 5 -69 5 -84
c0 -63 1 -102 4 -117c7 -34 29 -48 64 -43c42 4 70 23 84 58c-7 164 -6 336 4 515c-9 25 -35 36 -80 34c-46 -3 -73 -20 -80 -51zM283 752l-24 -11c-48 33 -76 52 -83 59c-31 -27 -53 -48 -68 -65c-4 0 -8 2 -11 7s-7 8 -10 8c13 30 38 65 77 105l30 -5l65 -66
c14 -13 22 -23 24 -32z" />
    <glyph glyph-name="Otilde" unicode="&#xd5;" 
d="M302 645c2 -30 2 -71 1 -122c-2 -51 -2 -94 1 -129c1 -21 1 -48 0 -82c-1 -41 -2 -68 -2 -81l-1 -77c0 -5 1 -18 3 -38c1 -16 1 -28 0 -37c1 5 -6 -9 -19 -43c-3 -1 -10 -6 -19 -15c-9 -8 -17 -13 -24 -15c-55 -17 -99 -18 -132 -3c-13 6 -30 26 -51 60
c-1 14 -1 45 -1 94c-1 39 -2 72 -3 99s0 69 1 128c1 53 1 95 -1 125c0 67 2 107 6 119c3 15 16 30 39 43c18 13 47 24 86 34c13 3 36 -1 68 -12c10 -4 26 -20 48 -48zM104 599c-3 -17 -3 -39 -2 -68c3 -46 2 -98 -1 -155c-1 -23 -1 -53 2 -89c3 -41 5 -69 5 -84
c0 -63 1 -102 4 -117c7 -34 29 -48 64 -43c42 4 70 23 84 58c-7 164 -6 336 4 515c-9 25 -35 36 -80 34c-46 -3 -73 -20 -80 -51zM137 764l-70 -21c-11 9 -14 21 -9 38l67 32c18 -1 37 -6 58 -15c26 -11 40 -16 41 -16l60 24c15 -19 17 -32 6 -40l-67 -31z" />
    <glyph glyph-name="Odieresis" unicode="&#xd6;" horiz-adv-x="352" 
d="M297 645c2 -30 2 -71 1 -122c-2 -51 -2 -94 1 -129c1 -21 1 -48 0 -82c-1 -41 -2 -68 -2 -81l-1 -77c0 -5 1 -18 3 -38c1 -16 1 -28 0 -37c1 5 -6 -9 -19 -43c-3 -1 -10 -6 -19 -15c-9 -8 -17 -13 -24 -15c-55 -17 -99 -18 -132 -3c-13 6 -30 26 -51 60
c-1 14 -1 45 -1 94c-1 39 -2 72 -3 99s0 69 1 128c1 53 1 95 -1 125c0 67 2 107 6 119c3 15 16 30 39 43c18 13 47 24 86 34c13 3 36 -1 68 -12c10 -4 26 -20 48 -48zM99 599c-3 -17 -3 -39 -2 -68c3 -46 2 -98 -1 -155c-1 -23 -1 -53 2 -89c3 -41 5 -69 5 -84
c0 -63 1 -102 4 -117c7 -34 29 -48 64 -43c42 4 70 23 84 58c-7 164 -6 336 4 515c-9 25 -35 36 -80 34c-46 -3 -73 -20 -80 -51zM146 738c-15 -6 -31 -6 -47 -1c-5 31 -4 50 3 58c31 7 47 8 49 2c7 -16 5 -36 -5 -59zM257 738c-15 -6 -31 -6 -47 -1c-5 31 -4 50 3 58
c31 7 47 8 49 2c7 -16 5 -36 -5 -59z" />
    <glyph glyph-name="multiply" unicode="&#xd7;" horiz-adv-x="351" 
d="M63 177l-12 16c-5 0 26 42 94 127c-61 69 -91 104 -91 105c-7 5 -5 16 6 32c11 15 19 21 24 17l33 -45l58 -69l83 109c3 7 11 5 23 -8c13 -13 17 -21 14 -26c-23 -27 -35 -42 -36 -43l-51 -71c30 -35 60 -70 90 -104l2 -22c3 -3 -1 -10 -11 -21c-9 -11 -14 -16 -15 -16
c2 2 -29 43 -94 122l-82 -113l-19 -2c-2 -3 -7 1 -16 12z" />
    <glyph glyph-name="Oslash" unicode="&#xd8;" horiz-adv-x="353" 
d="M298 645c2 -30 2 -71 1 -122c-2 -51 -2 -94 1 -129c1 -21 1 -48 0 -82c-1 -41 -2 -68 -2 -81l-1 -77c0 -5 1 -18 3 -38c1 -16 1 -28 0 -37c1 5 -6 -9 -19 -43c-3 -1 -10 -6 -19 -15c-9 -8 -17 -13 -24 -15c-55 -17 -99 -18 -132 -3c-13 6 -30 26 -51 60
c-1 14 -1 45 -1 94c-1 39 -2 72 -3 99s0 69 1 128c1 53 1 95 -1 125c0 67 2 107 6 119c3 15 16 30 39 43c18 13 47 24 86 34c13 3 36 -1 68 -12c10 -4 26 -20 48 -48zM256 101c-8 157 -7 317 2 479l-9 -29c-3 -8 -8 -25 -15 -52c-6 -21 -11 -38 -16 -51l-32 -101l-28 -108
l-7 -22c-3 -9 -6 -17 -7 -22c-3 -9 -9 -29 -17 -59c-7 -24 -13 -42 -18 -55c9 -31 30 -43 63 -38c42 4 70 23 84 58zM100 599c-3 -17 -3 -39 -2 -68c3 -46 2 -98 -1 -155c-1 -23 -1 -53 2 -89c3 -41 5 -69 5 -84v-10l4 14c3 10 7 23 10 38l10 39c2 10 6 23 11 38l11 38
c1 4 3 10 5 19s4 15 5 19l23 72l14 35c5 17 11 39 16 68c7 35 12 58 15 70c-23 9 -49 9 -76 2c-29 -8 -47 -23 -52 -46z" />
    <glyph glyph-name="Ugrave" unicode="&#xd9;" horiz-adv-x="386" 
d="M334 666c-2 -23 -3 -58 -2 -105c1 -49 0 -85 -1 -108c-2 -52 -2 -81 0 -87c-3 -26 -3 -67 0 -124c2 -60 2 -104 0 -131c-3 -12 -4 -21 -4 -26v-21c1 -8 0 -14 -1 -18c-6 -16 -23 -29 -50 -39c-25 -7 -52 -9 -82 -5c-28 3 -45 6 -52 9c-5 1 -15 11 -30 28
c-14 18 -21 28 -22 31c-7 18 -9 35 -8 50s2 36 1 64c-1 31 -1 53 0 67c1 32 0 76 -1 131c-1 66 -2 110 -2 132l-1 127c0 30 2 47 6 52c15 3 31 0 48 -11c-3 -47 -4 -112 -2 -195c2 -106 3 -174 2 -205c-2 -101 -2 -159 1 -173c7 -22 18 -37 32 -44c17 -9 47 -14 91 -15
l20 18c4 84 6 186 6 306c0 144 -2 249 -7 315c9 9 20 9 35 1c13 -8 20 -16 23 -24zM101 861c9 9 21 15 34 18l19 -8c44 -61 70 -103 78 -128c-11 -4 -20 -6 -28 -7c-71 88 -106 130 -103 125z" />
    <glyph glyph-name="Uacute" unicode="&#xda;" horiz-adv-x="357" 
d="M305 666c-2 -23 -3 -58 -2 -105c1 -49 0 -85 -1 -108c-2 -52 -2 -81 0 -87c-3 -26 -3 -67 0 -124c2 -60 2 -104 0 -131c-3 -12 -4 -21 -4 -26v-21c1 -8 0 -14 -1 -18c-6 -16 -23 -29 -50 -39c-25 -7 -52 -9 -82 -5c-28 3 -45 6 -52 9c-5 1 -15 11 -30 28
c-14 18 -21 28 -22 31c-7 18 -9 35 -8 50s2 36 1 64c-1 31 -1 53 0 67c1 32 0 76 -1 131c-1 66 -2 110 -2 132l-1 127c0 30 2 47 6 52c15 3 31 0 48 -11c-3 -47 -4 -112 -2 -195c2 -106 3 -174 2 -205c-2 -101 -2 -159 1 -173c7 -22 18 -37 32 -44c17 -9 47 -14 91 -15
l20 18c4 84 6 186 6 306c0 144 -2 249 -7 315c9 9 20 9 35 1c13 -8 20 -16 23 -24zM282 860c3 5 -32 -37 -103 -125c-8 1 -17 3 -28 7c8 25 34 67 78 128l19 8c13 -3 25 -9 34 -18z" />
    <glyph glyph-name="Ucircumflex" unicode="&#xdb;" horiz-adv-x="357" 
d="M305 666c-2 -23 -3 -58 -2 -105c1 -49 0 -85 -1 -108c-2 -52 -2 -81 0 -87c-3 -26 -3 -67 0 -124c2 -60 2 -104 0 -131c-3 -12 -4 -21 -4 -26v-21c1 -8 0 -14 -1 -18c-6 -16 -23 -29 -50 -39c-25 -7 -52 -9 -82 -5c-28 3 -45 6 -52 9c-5 1 -15 11 -30 28
c-14 18 -21 28 -22 31c-7 18 -9 35 -8 50s2 36 1 64c-1 31 -1 53 0 67c1 32 0 76 -1 131c-1 66 -2 110 -2 132l-1 127c0 30 2 47 6 52c15 3 31 0 48 -11c-3 -47 -4 -112 -2 -195c2 -106 3 -174 2 -205c-2 -101 -2 -159 1 -173c7 -22 18 -37 32 -44c17 -9 47 -14 91 -15
l20 18c4 84 6 186 6 306c0 144 -2 249 -7 315c9 9 20 9 35 1c13 -8 20 -16 23 -24zM271 752l-24 -11c-48 33 -76 52 -83 59c-31 -27 -53 -48 -68 -65c-4 0 -8 2 -11 7s-7 8 -10 8c13 30 38 65 77 105l30 -5l65 -66c14 -13 22 -23 24 -32z" />
    <glyph glyph-name="Udieresis" unicode="&#xdc;" horiz-adv-x="357" 
d="M305 666c-2 -23 -3 -58 -2 -105c1 -49 0 -85 -1 -108c-2 -52 -2 -81 0 -87c-3 -26 -3 -67 0 -124c2 -60 2 -104 0 -131c-3 -12 -4 -21 -4 -26v-21c1 -8 0 -14 -1 -18c-6 -16 -23 -29 -50 -39c-25 -7 -52 -9 -82 -5c-28 3 -45 6 -52 9c-5 1 -15 11 -30 28
c-14 18 -21 28 -22 31c-7 18 -9 35 -8 50s2 36 1 64c-1 31 -1 53 0 67c1 32 0 76 -1 131c-1 66 -2 110 -2 132l-1 127c0 30 2 47 6 52c15 3 31 0 48 -11c-3 -47 -4 -112 -2 -195c2 -106 3 -174 2 -205c-2 -101 -2 -159 1 -173c7 -22 18 -37 32 -44c17 -9 47 -14 91 -15
l20 18c4 84 6 186 6 306c0 144 -2 249 -7 315c9 9 20 9 35 1c13 -8 20 -16 23 -24zM142 745c-15 -6 -31 -6 -47 -1c-5 31 -4 50 3 58c31 7 47 8 49 2c7 -16 5 -36 -5 -59zM253 745c-15 -6 -31 -6 -47 -1c-5 31 -4 50 3 58c31 7 47 8 49 2c7 -16 5 -36 -5 -59z" />
    <glyph glyph-name="Yacute" unicode="&#xdd;" horiz-adv-x="349" 
d="M296 689c2 -2 3 -6 3 -12c0 -9 -2 -19 -6 -28c-13 -33 -27 -89 -43 -168s-30 -135 -43 -168l-9 -16c-1 -6 -1 -16 -1 -29c0 -21 1 -53 2 -96s2 -74 2 -92c0 -45 -1 -69 -2 -70c-19 -7 -33 -9 -40 -6s-10 33 -10 90l2 156c0 26 -2 45 -6 57c-3 7 -31 113 -84 316
c-7 26 -11 44 -11 55c0 7 11 12 33 17c14 0 23 -22 28 -67l60 -257l11 8c15 50 32 124 49 221c11 65 22 97 33 97c9 0 19 -3 32 -8zM283 860c3 5 -32 -37 -103 -125c-8 1 -17 3 -28 7c8 25 34 67 78 128l19 8c13 -3 25 -9 34 -18z" />
    <glyph glyph-name="Thorn" unicode="&#xde;" 
d="M100 693c2 -46 2 -98 0 -156c83 21 143 14 182 -20c17 -45 25 -106 22 -183s-14 -130 -35 -158c-53 -23 -110 -28 -171 -16v-8c0 -10 1 -34 4 -71c3 -35 4 -59 3 -73c-5 -5 -14 -8 -26 -9c-13 -1 -21 0 -26 5c-3 43 -3 102 -2 179c1 90 1 150 0 181v149
c0 105 1 163 3 176c15 10 31 11 46 4zM96 350l2 -78v-66c73 -1 121 3 146 12c7 18 13 54 18 108l2 89c-2 38 -10 64 -24 77c-9 7 -30 12 -61 13c-35 1 -62 -3 -81 -14c-1 -11 -1 -20 0 -28c1 -11 1 -21 1 -29z" />
    <glyph glyph-name="germandbls" unicode="&#xdf;" horiz-adv-x="354" 
d="M186 0l3 39l24 3c25 11 38 33 41 66c1 11 0 31 -1 59c0 34 -4 55 -11 64c-29 43 -46 66 -52 70l-16 8l-4 32c10 4 21 13 34 27c23 23 38 66 44 127c6 57 3 100 -10 128c1 11 -6 19 -20 26c-13 7 -29 9 -47 8c-47 -4 -71 -28 -71 -72c-5 -51 -6 -112 -2 -181
c6 -102 9 -159 9 -172l2 -101c1 -55 2 -99 2 -130l-43 1c-7 26 -11 101 -11 226c0 39 0 63 -1 70c-7 154 -8 259 -2 316c10 51 46 79 107 86c58 7 96 -7 113 -40c15 -31 21 -81 16 -148c-3 -55 -10 -99 -21 -132c-7 -21 -13 -35 -18 -40l-27 -16c3 -5 14 -15 34 -30
c21 -17 32 -27 35 -30c23 -81 20 -161 -10 -241l-52 -23h-45z" />
    <glyph glyph-name="agrave" unicode="&#xe0;" horiz-adv-x="364" 
d="M67 402v53c0 12 18 23 54 34c35 10 72 15 111 15c26 0 41 -1 46 -2c17 -3 27 -13 30 -29l-2 -235c0 -85 3 -162 8 -229c-9 -7 -23 -11 -41 -11c-11 0 -17 14 -18 41c-37 -28 -73 -42 -110 -42c-18 0 -38 4 -60 11c-23 15 -35 56 -35 121c0 77 13 122 38 136
c5 3 37 12 94 27c43 11 69 26 79 44l-6 109c-11 7 -29 10 -55 10c-50 0 -82 -9 -95 -26v-36c-2 -7 -6 -10 -13 -10c-17 0 -25 6 -25 19zM256 148c0 11 2 54 7 131c-9 -11 -31 -21 -67 -32c-39 -11 -63 -20 -72 -27c-17 -12 -26 -44 -26 -97c0 -49 9 -77 26 -84
c52 0 95 15 130 45c0 27 1 48 2 64zM79 658c9 9 21 15 34 18l19 -8c44 -61 70 -103 78 -128c-11 -4 -20 -6 -28 -7c-71 88 -106 130 -103 125z" />
    <glyph glyph-name="aacute" unicode="&#xe1;" horiz-adv-x="364" 
d="M67 402v53c0 12 18 23 54 34c35 10 72 15 111 15c26 0 41 -1 46 -2c17 -3 27 -13 30 -29l-2 -235c0 -85 3 -162 8 -229c-9 -7 -23 -11 -41 -11c-11 0 -17 14 -18 41c-37 -28 -73 -42 -110 -42c-18 0 -38 4 -60 11c-23 15 -35 56 -35 121c0 77 13 122 38 136
c5 3 37 12 94 27c43 11 69 26 79 44l-6 109c-11 7 -29 10 -55 10c-50 0 -82 -9 -95 -26v-36c-2 -7 -6 -10 -13 -10c-17 0 -25 6 -25 19zM256 148c0 11 2 54 7 131c-9 -11 -31 -21 -67 -32c-39 -11 -63 -20 -72 -27c-17 -12 -26 -44 -26 -97c0 -49 9 -77 26 -84
c52 0 95 15 130 45c0 27 1 48 2 64zM279 658c3 5 -32 -37 -103 -125c-8 1 -17 3 -28 7c8 25 34 67 78 128l19 8c13 -3 25 -9 34 -18z" />
    <glyph glyph-name="acircumflex" unicode="&#xe2;" horiz-adv-x="364" 
d="M67 402v53c0 12 18 23 54 34c35 10 72 15 111 15c26 0 41 -1 46 -2c17 -3 27 -13 30 -29l-2 -235c0 -85 3 -162 8 -229c-9 -7 -23 -11 -41 -11c-11 0 -17 14 -18 41c-37 -28 -73 -42 -110 -42c-18 0 -38 4 -60 11c-23 15 -35 56 -35 121c0 77 13 122 38 136
c5 3 37 12 94 27c43 11 69 26 79 44l-6 109c-11 7 -29 10 -55 10c-50 0 -82 -9 -95 -26v-36c-2 -7 -6 -10 -13 -10c-17 0 -25 6 -25 19zM256 148c0 11 2 54 7 131c-9 -11 -31 -21 -67 -32c-39 -11 -63 -20 -72 -27c-17 -12 -26 -44 -26 -97c0 -49 9 -77 26 -84
c52 0 95 15 130 45c0 27 1 48 2 64zM288 549l-24 -11c-48 33 -76 52 -83 59c-31 -27 -53 -48 -68 -65c-4 0 -8 2 -11 7s-7 8 -10 8c13 30 38 65 77 105l30 -5l65 -66c14 -13 22 -23 24 -32z" />
    <glyph glyph-name="atilde" unicode="&#xe3;" horiz-adv-x="366" 
d="M67 402v53c0 12 18 23 54 34c35 10 72 15 111 15c26 0 41 -1 46 -2c17 -3 27 -13 30 -29l-2 -235c0 -85 3 -162 8 -229c-9 -7 -23 -11 -41 -11c-11 0 -17 14 -18 41c-37 -28 -73 -42 -110 -42c-18 0 -38 4 -60 11c-23 15 -35 56 -35 121c0 77 13 122 38 136
c5 3 37 12 94 27c43 11 69 26 79 44l-6 109c-11 7 -29 10 -55 10c-50 0 -82 -9 -95 -26v-36c-2 -7 -6 -10 -13 -10c-17 0 -25 6 -25 19zM256 148c0 11 2 54 7 131c-9 -11 -31 -21 -67 -32c-39 -11 -63 -20 -72 -27c-17 -12 -26 -44 -26 -97c0 -49 9 -77 26 -84
c52 0 95 15 130 45c0 27 1 48 2 64zM148 563l-70 -21c-11 9 -14 21 -9 38l67 32c18 -1 37 -6 58 -15c26 -11 40 -16 41 -16l60 24c15 -19 17 -32 6 -40l-67 -31z" />
    <glyph glyph-name="adieresis" unicode="&#xe4;" horiz-adv-x="364" 
d="M67 402v53c0 12 18 23 54 34c35 10 72 15 111 15c26 0 41 -1 46 -2c17 -3 27 -13 30 -29l-2 -235c0 -85 3 -162 8 -229c-9 -7 -23 -11 -41 -11c-11 0 -17 14 -18 41c-37 -28 -73 -42 -110 -42c-18 0 -38 4 -60 11c-23 15 -35 56 -35 121c0 77 13 122 38 136
c5 3 37 12 94 27c43 11 69 26 79 44l-6 109c-11 7 -29 10 -55 10c-50 0 -82 -9 -95 -26v-36c-2 -7 -6 -10 -13 -10c-17 0 -25 6 -25 19zM256 148c0 11 2 54 7 131c-9 -11 -31 -21 -67 -32c-39 -11 -63 -20 -72 -27c-17 -12 -26 -44 -26 -97c0 -49 9 -77 26 -84
c52 0 95 15 130 45c0 27 1 48 2 64zM149 548c-15 -6 -31 -6 -47 -1c-5 31 -4 50 3 58c31 7 47 8 49 2c7 -16 5 -36 -5 -59zM260 548c-15 -6 -31 -6 -47 -1c-5 31 -4 50 3 58c31 7 47 8 49 2c7 -16 5 -36 -5 -59z" />
    <glyph glyph-name="aring" unicode="&#xe5;" horiz-adv-x="364" 
d="M67 402v53c0 12 18 23 54 34c35 10 72 15 111 15c26 0 41 -1 46 -2c17 -3 27 -13 30 -29l-2 -235c0 -85 3 -162 8 -229c-9 -7 -23 -11 -41 -11c-11 0 -17 14 -18 41c-37 -28 -73 -42 -110 -42c-18 0 -38 4 -60 11c-23 15 -35 56 -35 121c0 77 13 122 38 136
c5 3 37 12 94 27c43 11 69 26 79 44l-6 109c-11 7 -29 10 -55 10c-50 0 -82 -9 -95 -26v-36c-2 -7 -6 -10 -13 -10c-17 0 -25 6 -25 19zM256 148c0 11 2 54 7 131c-9 -11 -31 -21 -67 -32c-39 -11 -63 -20 -72 -27c-17 -12 -26 -44 -26 -97c0 -49 9 -77 26 -84
c52 0 95 15 130 45c0 27 1 48 2 64zM238 666c7 -37 6 -74 -3 -110c-13 -11 -30 -16 -52 -16s-41 5 -56 14c-4 43 -2 78 6 103c10 8 28 13 53 14c24 1 41 0 52 -5zM161 632c-8 -18 -8 -37 0 -57c21 -6 36 -4 47 5c5 19 5 38 0 58c-22 5 -38 3 -47 -6z" />
    <glyph glyph-name="ae" unicode="&#xe6;" horiz-adv-x="574" 
d="M491 70c9 -3 15 -12 18 -29c-39 -25 -73 -39 -102 -42c-27 -3 -58 4 -94 19c0 -4 0 -7 1 -9c-9 -7 -23 -11 -41 -11c-11 0 -17 14 -18 41c-37 -28 -73 -42 -110 -42c-18 0 -38 4 -60 11c-23 15 -35 56 -35 121c0 77 13 122 38 136c5 3 37 12 94 27c43 11 69 26 79 44
l-6 109c-11 7 -29 10 -55 10c-50 0 -82 -9 -95 -26v-36c-2 -7 -6 -10 -13 -10c-17 0 -25 6 -25 19v53c0 12 18 23 54 34c35 10 72 15 111 15c26 0 41 -1 46 -2c17 -3 27 -13 30 -29v-7c0 1 1 2 2 3c15 21 48 33 98 35c51 2 83 -10 96 -36c33 -69 33 -156 0 -261l-29 -21
c-69 -13 -121 -19 -156 -17c1 -47 11 -85 29 -116c51 -17 98 -11 143 17zM470 431c-13 17 -32 25 -57 24s-49 -10 -72 -27c-23 -56 -32 -127 -27 -212c43 -1 87 2 132 9l24 14c15 55 15 119 0 192zM256 148c0 11 2 54 7 131c-9 -11 -31 -21 -67 -32c-39 -11 -63 -20 -72 -27
c-17 -12 -26 -44 -26 -97c0 -49 9 -77 26 -84c52 0 95 15 130 45c0 27 1 48 2 64z" />
    <glyph glyph-name="ccedilla" unicode="&#xe7;" horiz-adv-x="365" 
d="M162 -37l14 35c-42 3 -73 17 -92 44c-21 28 -33 69 -34 123c-1 17 0 41 1 71c1 35 2 59 2 71c0 17 8 59 24 124c10 33 46 55 109 64c59 9 101 3 126 -16c-1 -61 -5 -103 -14 -127c-17 0 -27 3 -32 8l2 38c2 21 2 34 0 39c-2 4 -9 9 -21 14c-52 15 -92 3 -119 -37
c-9 -23 -17 -72 -24 -148c0 -117 11 -185 32 -204c12 -10 30 -17 55 -20c31 -4 54 2 70 17l16 65l25 6c7 2 10 -9 10 -34c0 -39 -2 -60 -6 -63c-35 -21 -68 -33 -100 -35l-5 -27c31 3 54 -6 69 -29c12 -19 14 -37 7 -56c-7 -20 -25 -33 -53 -38l-98 19c0 11 7 18 21 21
c11 -3 32 -5 63 -7c24 7 34 20 30 41c-3 21 -23 30 -59 27z" />
    <glyph glyph-name="egrave" unicode="&#xe8;" horiz-adv-x="373" 
d="M289 70c9 -3 15 -12 18 -29c-40 -27 -75 -41 -106 -43c-27 -1 -61 7 -100 25c-23 32 -34 104 -34 215c-1 115 13 192 41 231c15 21 48 33 98 35c51 2 83 -10 96 -36c33 -69 33 -156 0 -261l-29 -21c-69 -13 -121 -19 -156 -17c1 -47 11 -85 29 -116c51 -17 98 -11 143 17
zM268 431c-13 17 -32 25 -57 24s-49 -10 -72 -27c-23 -56 -32 -127 -27 -212c43 -1 87 2 132 9l24 14c15 55 15 119 0 192zM81 659c9 9 21 15 34 18l19 -8c44 -61 70 -103 78 -128c-11 -4 -20 -6 -28 -7c-71 88 -106 130 -103 125z" />
    <glyph glyph-name="eacute" unicode="&#xe9;" 
d="M272 70c9 -3 15 -12 18 -29c-40 -27 -75 -41 -106 -43c-27 -1 -61 7 -100 25c-23 32 -34 104 -34 215c-1 115 13 192 41 231c15 21 48 33 98 35c51 2 83 -10 96 -36c33 -69 33 -156 0 -261l-29 -21c-69 -13 -121 -19 -156 -17c1 -47 11 -85 29 -116c51 -17 98 -11 143 17
zM251 431c-13 17 -32 25 -57 24s-49 -10 -72 -27c-23 -56 -32 -127 -27 -212c43 -1 87 2 132 9l24 14c15 55 15 119 0 192zM286 660c3 5 -32 -37 -103 -125c-8 1 -17 3 -28 7c8 25 34 67 78 128l19 8c13 -3 25 -9 34 -18z" />
    <glyph glyph-name="ecircumflex" unicode="&#xea;" 
d="M272 70c9 -3 15 -12 18 -29c-40 -27 -75 -41 -106 -43c-27 -1 -61 7 -100 25c-23 32 -34 104 -34 215c-1 115 13 192 41 231c15 21 48 33 98 35c51 2 83 -10 96 -36c33 -69 33 -156 0 -261l-29 -21c-69 -13 -121 -19 -156 -17c1 -47 11 -85 29 -116c51 -17 98 -11 143 17
zM251 431c-13 17 -32 25 -57 24s-49 -10 -72 -27c-23 -56 -32 -127 -27 -212c43 -1 87 2 132 9l24 14c15 55 15 119 0 192zM280 550l-24 -11c-48 33 -76 52 -83 59c-31 -27 -53 -48 -68 -65c-4 0 -8 2 -11 7s-7 8 -10 8c13 30 38 65 77 105l30 -5l65 -66
c14 -13 22 -23 24 -32z" />
    <glyph glyph-name="edieresis" unicode="&#xeb;" 
d="M272 70c9 -3 15 -12 18 -29c-40 -27 -75 -41 -106 -43c-27 -1 -61 7 -100 25c-23 32 -34 104 -34 215c-1 115 13 192 41 231c15 21 48 33 98 35c51 2 83 -10 96 -36c33 -69 33 -156 0 -261l-29 -21c-69 -13 -121 -19 -156 -17c1 -47 11 -85 29 -116c51 -17 98 -11 143 17
zM251 431c-13 17 -32 25 -57 24s-49 -10 -72 -27c-23 -56 -32 -127 -27 -212c43 -1 87 2 132 9l24 14c15 55 15 119 0 192zM153 542c-15 -6 -31 -6 -47 -1c-5 31 -4 50 3 58c31 7 47 8 49 2c7 -16 5 -36 -5 -59zM264 542c-15 -6 -31 -6 -47 -1c-5 31 -4 50 3 58
c31 7 47 8 49 2c7 -16 5 -36 -5 -59z" />
    <glyph glyph-name="igrave" unicode="&#xec;" horiz-adv-x="161" 
d="M58 168l-4 315c7 12 16 17 29 16c11 -1 19 -6 23 -13l-4 -119l6 -359c-5 -5 -13 -7 -23 -8c-13 -1 -22 2 -29 11zM-34 662c9 9 21 15 34 18l19 -8c44 -61 70 -103 78 -128c-11 -4 -20 -6 -28 -7c-71 88 -106 130 -103 125z" />
    <glyph glyph-name="iacute" unicode="&#xed;" horiz-adv-x="161" 
d="M58 168l-4 315c7 12 16 17 29 16c11 -1 19 -6 23 -13l-4 -119l6 -359c-5 -5 -13 -7 -23 -8c-13 -1 -22 2 -29 11zM187 658c3 5 -32 -37 -103 -125c-8 1 -17 3 -28 7c8 25 34 67 78 128l19 8c13 -3 25 -9 34 -18z" />
    <glyph glyph-name="icircumflex" unicode="&#xee;" horiz-adv-x="161" 
d="M58 168l-4 315c7 12 16 17 29 16c11 -1 19 -6 23 -13l-4 -119l6 -359c-5 -5 -13 -7 -23 -8c-13 -1 -22 2 -29 11zM180 550l-24 -11c-48 33 -76 52 -83 59c-31 -27 -53 -48 -68 -65c-4 0 -8 2 -11 7s-7 8 -10 8c13 30 38 65 77 105l30 -5l65 -66c14 -13 22 -23 24 -32z
" />
    <glyph glyph-name="idieresis" unicode="&#xef;" horiz-adv-x="161" 
d="M58 168l-4 315c7 12 16 17 29 16c11 -1 19 -6 23 -13l-4 -119l6 -359c-5 -5 -13 -7 -23 -8c-13 -1 -22 2 -29 11zM46 543c-15 -6 -31 -6 -47 -1c-5 31 -4 50 3 58c31 7 47 8 49 2c7 -16 5 -36 -5 -59zM157 543c-15 -6 -31 -6 -47 -1c-5 31 -4 50 3 58c31 7 47 8 49 2
c7 -16 5 -36 -5 -59z" />
    <glyph glyph-name="eth" unicode="&#xf0;" horiz-adv-x="353" 
d="M298 446c1 -9 2 -26 2 -52c1 -21 2 -49 2 -82l-1 -81c0 -97 0 -147 -1 -152c1 5 -6 -9 -19 -43c-3 -1 -10 -6 -19 -15c-9 -8 -17 -13 -24 -15c-55 -17 -99 -18 -132 -3c-13 6 -30 26 -51 60c-1 14 -1 45 -1 94c-1 39 -2 72 -3 99c-1 31 -1 41 1 29c1 -8 0 0 -1 25
c0 70 1 109 4 117c3 16 16 31 41 45c18 13 47 24 86 34c14 3 34 0 59 -9c-11 31 -26 56 -45 76l-75 -52l-15 4c-2 -1 -5 3 -10 12s-8 14 -7 14l58 35l19 13c-19 13 -41 20 -66 23c-6 3 -7 10 -2 21c4 11 8 17 12 16c37 -7 68 -19 91 -36l58 38c3 4 9 0 17 -11s11 -18 8 -21
c-21 -11 -32 -16 -33 -16l-21 -16c29 -32 52 -82 68 -151zM100 400c-2 -18 -1 -84 3 -197l5 -117c7 -34 29 -48 64 -43c27 3 44 5 51 8c12 5 22 18 30 39c1 19 1 129 1 328c-9 25 -34 36 -77 33s-69 -20 -77 -51z" />
    <glyph glyph-name="ntilde" unicode="&#xf1;" horiz-adv-x="365" 
d="M275 484l35 -42c0 -248 2 -392 5 -433c-21 -15 -38 -17 -53 -8c-7 26 -9 75 -5 147c0 19 2 67 5 142l-3 139c-43 29 -95 22 -156 -19c-1 -28 -2 -48 -2 -60l2 -78v-137c0 -11 1 -31 4 -60c3 -28 4 -49 3 -62c-5 -5 -14 -8 -26 -9c-13 -1 -21 0 -26 5c-3 43 -3 101 -2 176
c1 89 1 148 0 179v121c14 17 29 21 46 12l2 -42c65 50 122 60 171 29zM137 562l-70 -21c-11 9 -14 21 -9 38l67 32c18 -1 37 -6 58 -15c26 -11 40 -16 41 -16l60 24c15 -19 17 -32 6 -40l-67 -31z" />
    <glyph glyph-name="ograve" unicode="&#xf2;" horiz-adv-x="353" 
d="M302 446c1 -8 2 -25 2 -52c1 -21 2 -49 2 -82l-1 -81c0 -97 0 -147 -1 -152c1 5 -6 -9 -19 -43c-3 -1 -10 -6 -19 -15c-9 -8 -17 -13 -24 -15c-55 -17 -99 -18 -132 -3c-13 6 -30 26 -51 60c-1 14 -1 45 -1 94c-1 39 -2 72 -3 99v54c-8 47 -7 86 4 117c3 16 16 31 41 45
c18 13 47 24 86 34c13 3 36 -1 68 -12c10 -4 26 -20 48 -48zM104 400c-2 -18 -1 -84 3 -197l5 -117c7 -34 29 -48 64 -43c27 3 44 5 51 8c12 5 22 18 30 39c1 19 1 129 1 328c-9 25 -34 36 -77 33s-69 -20 -77 -51zM63 658c9 9 21 15 34 18l19 -8c44 -61 70 -103 78 -128
c-11 -4 -20 -6 -28 -7c-71 88 -106 130 -103 125z" />
    <glyph glyph-name="oacute" unicode="&#xf3;" horiz-adv-x="353" 
d="M302 446c1 -8 2 -25 2 -52c1 -21 2 -49 2 -82l-1 -81c0 -97 0 -147 -1 -152c1 5 -6 -9 -19 -43c-3 -1 -10 -6 -19 -15c-9 -8 -17 -13 -24 -15c-55 -17 -99 -18 -132 -3c-13 6 -30 26 -51 60c-1 14 -1 45 -1 94c-1 39 -2 72 -3 99v54c-8 47 -7 86 4 117c3 16 16 31 41 45
c18 13 47 24 86 34c13 3 36 -1 68 -12c10 -4 26 -20 48 -48zM104 400c-2 -18 -1 -84 3 -197l5 -117c7 -34 29 -48 64 -43c27 3 44 5 51 8c12 5 22 18 30 39c1 19 1 129 1 328c-9 25 -34 36 -77 33s-69 -20 -77 -51zM295 658c3 5 -32 -37 -103 -125c-8 1 -17 3 -28 7
c8 25 34 67 78 128l19 8c13 -3 25 -9 34 -18z" />
    <glyph glyph-name="ocircumflex" unicode="&#xf4;" horiz-adv-x="353" 
d="M302 446c1 -8 2 -25 2 -52c1 -21 2 -49 2 -82l-1 -81c0 -97 0 -147 -1 -152c1 5 -6 -9 -19 -43c-3 -1 -10 -6 -19 -15c-9 -8 -17 -13 -24 -15c-55 -17 -99 -18 -132 -3c-13 6 -30 26 -51 60c-1 14 -1 45 -1 94c-1 39 -2 72 -3 99v54c-8 47 -7 86 4 117c3 16 16 31 41 45
c18 13 47 24 86 34c13 3 36 -1 68 -12c10 -4 26 -20 48 -48zM104 400c-2 -18 -1 -84 3 -197l5 -117c7 -34 29 -48 64 -43c27 3 44 5 51 8c12 5 22 18 30 39c1 19 1 129 1 328c-9 25 -34 36 -77 33s-69 -20 -77 -51zM285 550l-24 -11c-48 33 -76 52 -83 59
c-31 -27 -53 -48 -68 -65c-4 0 -8 2 -11 7s-7 8 -10 8c13 30 38 65 77 105l30 -5l65 -66c14 -13 22 -23 24 -32z" />
    <glyph glyph-name="otilde" unicode="&#xf5;" horiz-adv-x="353" 
d="M302 446c1 -8 2 -25 2 -52c1 -21 2 -49 2 -82l-1 -81c0 -97 0 -147 -1 -152c1 5 -6 -9 -19 -43c-3 -1 -10 -6 -19 -15c-9 -8 -17 -13 -24 -15c-55 -17 -99 -18 -132 -3c-13 6 -30 26 -51 60c-1 14 -1 45 -1 94c-1 39 -2 72 -3 99v54c-8 47 -7 86 4 117c3 16 16 31 41 45
c18 13 47 24 86 34c13 3 36 -1 68 -12c10 -4 26 -20 48 -48zM104 400c-2 -18 -1 -84 3 -197l5 -117c7 -34 29 -48 64 -43c27 3 44 5 51 8c12 5 22 18 30 39c1 19 1 129 1 328c-9 25 -34 36 -77 33s-69 -20 -77 -51zM135 562l-70 -21c-11 9 -14 21 -9 38l67 32
c18 -1 37 -6 58 -15c26 -11 40 -16 41 -16l60 24c15 -19 17 -32 6 -40l-67 -31z" />
    <glyph glyph-name="odieresis" unicode="&#xf6;" horiz-adv-x="353" 
d="M302 446c1 -8 2 -25 2 -52c1 -21 2 -49 2 -82l-1 -81c0 -97 0 -147 -1 -152c1 5 -6 -9 -19 -43c-3 -1 -10 -6 -19 -15c-9 -8 -17 -13 -24 -15c-55 -17 -99 -18 -132 -3c-13 6 -30 26 -51 60c-1 14 -1 45 -1 94c-1 39 -2 72 -3 99v54c-8 47 -7 86 4 117c3 16 16 31 41 45
c18 13 47 24 86 34c13 3 36 -1 68 -12c10 -4 26 -20 48 -48zM104 400c-2 -18 -1 -84 3 -197l5 -117c7 -34 29 -48 64 -43c27 3 44 5 51 8c12 5 22 18 30 39c1 19 1 129 1 328c-9 25 -34 36 -77 33s-69 -20 -77 -51zM150 542c-15 -6 -31 -6 -47 -1c-5 31 -4 50 3 58
c31 7 47 8 49 2c7 -16 5 -36 -5 -59zM261 542c-15 -6 -31 -6 -47 -1c-5 31 -4 50 3 58c31 7 47 8 49 2c7 -16 5 -36 -5 -59z" />
    <glyph glyph-name="divide" unicode="&#xf7;" 
d="M50 348c0 -2 39 -3 117 -3l126 2c6 1 9 -6 10 -23s0 -26 -5 -27l-40 3l-195 -4l-12 12c-1 0 -1 13 -1 40zM196 412c-15 -6 -31 -6 -47 -1c-5 31 -4 50 3 58c31 7 47 8 49 2c7 -16 5 -36 -5 -59zM196 167c-15 -6 -31 -6 -47 -1c-5 31 -4 50 3 58c31 7 47 8 49 2
c7 -16 5 -36 -5 -59z" />
    <glyph glyph-name="oslash" unicode="&#xf8;" horiz-adv-x="353" 
d="M302 446c1 -8 2 -25 2 -52c1 -21 2 -49 2 -82l-1 -81c0 -97 0 -147 -1 -152c1 5 -6 -9 -19 -43c-3 -1 -10 -6 -19 -15c-9 -8 -17 -13 -24 -15c-55 -17 -99 -18 -132 -3c-13 6 -30 26 -51 60c-1 14 -1 45 -1 94c-1 39 -2 72 -3 99v54c-8 47 -7 86 4 117c3 16 16 31 41 45
c18 13 47 24 86 34c13 3 36 -1 68 -12c10 -4 26 -20 48 -48zM104 400c-2 -18 -1 -84 3 -197c3 -78 5 -115 4 -112c0 1 0 2 1 3l21 52c4 11 10 29 17 55c1 5 5 14 10 28c4 11 7 20 9 27l9 27l6 13c3 6 4 10 5 13s3 7 5 13s4 10 5 13l12 25c4 10 8 23 12 40l10 42
c-23 11 -48 12 -75 5c-31 -8 -49 -24 -54 -47zM257 90c1 24 1 126 1 305c-1 -1 -1 -1 -1 -2c-4 -9 -9 -22 -14 -37l-13 -37c-9 -19 -18 -43 -29 -73l-12 -38c-5 -17 -9 -30 -12 -39l-13 -32c-24 -63 -34 -91 -31 -85c13 -9 27 -12 43 -9c27 3 44 5 51 8c12 5 22 18 30 39z
" />
    <glyph glyph-name="ugrave" unicode="&#xf9;" horiz-adv-x="376" 
d="M106 16l-35 42c0 248 -2 392 -5 433c21 15 38 17 53 8c7 -26 9 -75 5 -147c0 -19 -2 -67 -5 -142l3 -139c44 -31 96 -24 155 19l3 60l-2 78v137c0 11 -1 31 -4 60c-3 28 -4 49 -3 62c5 5 14 8 26 9c13 1 21 0 26 -5c3 -43 4 -101 3 -176c-1 -89 -2 -148 -1 -179v-121
c-14 -17 -29 -21 -46 -12c-1 13 -2 27 -2 41c-66 -48 -123 -57 -171 -28zM91 658c9 9 21 15 34 18l19 -8c44 -61 70 -103 78 -128c-11 -4 -20 -6 -28 -7c-71 88 -106 130 -103 125z" />
    <glyph glyph-name="uacute" unicode="&#xfa;" horiz-adv-x="360" 
d="M90 16l-35 42c0 248 -2 392 -5 433c21 15 38 17 53 8c7 -26 9 -75 5 -147c0 -19 -2 -67 -5 -142l3 -139c44 -31 96 -24 155 19l3 60l-2 78v137c0 11 -1 31 -4 60c-3 28 -4 49 -3 62c5 5 14 8 26 9c13 1 21 0 26 -5c3 -43 4 -101 3 -176c-1 -89 -2 -148 -1 -179v-121
c-14 -17 -29 -21 -46 -12c-1 13 -2 27 -2 41c-66 -48 -123 -57 -171 -28zM289 658c3 5 -32 -37 -103 -125c-8 1 -17 3 -28 7c8 25 34 67 78 128l19 8c13 -3 25 -9 34 -18z" />
    <glyph glyph-name="ucircumflex" unicode="&#xfb;" horiz-adv-x="360" 
d="M90 16l-35 42c0 248 -2 392 -5 433c21 15 38 17 53 8c7 -26 9 -75 5 -147c0 -19 -2 -67 -5 -142l3 -139c44 -31 96 -24 155 19l3 60l-2 78v137c0 11 -1 31 -4 60c-3 28 -4 49 -3 62c5 5 14 8 26 9c13 1 21 0 26 -5c3 -43 4 -101 3 -176c-1 -89 -2 -148 -1 -179v-121
c-14 -17 -29 -21 -46 -12c-1 13 -2 27 -2 41c-66 -48 -123 -57 -171 -28zM280 550l-24 -11c-48 33 -76 52 -83 59c-31 -27 -53 -48 -68 -65c-4 0 -8 2 -11 7s-7 8 -10 8c13 30 38 65 77 105l30 -5l65 -66c14 -13 22 -23 24 -32z" />
    <glyph glyph-name="udieresis" unicode="&#xfc;" horiz-adv-x="360" 
d="M90 16l-35 42c0 248 -2 392 -5 433c21 15 38 17 53 8c7 -26 9 -75 5 -147c0 -19 -2 -67 -5 -142l3 -139c44 -31 96 -24 155 19l3 60l-2 78v137c0 11 -1 31 -4 60c-3 28 -4 49 -3 62c5 5 14 8 26 9c13 1 21 0 26 -5c3 -43 4 -101 3 -176c-1 -89 -2 -148 -1 -179v-121
c-14 -17 -29 -21 -46 -12c-1 13 -2 27 -2 41c-66 -48 -123 -57 -171 -28zM150 538c-15 -6 -31 -6 -47 -1c-5 31 -4 50 3 58c31 7 47 8 49 2c7 -16 5 -36 -5 -59zM261 538c-15 -6 -31 -6 -47 -1c-5 31 -4 50 3 58c31 7 47 8 49 2c7 -16 5 -36 -5 -59z" />
    <glyph glyph-name="yacute" unicode="&#xfd;" horiz-adv-x="364" 
d="M310 138l2 -78c-3 -104 -20 -170 -51 -199c-26 -17 -70 -26 -131 -29c-11 12 -13 25 -7 40c54 5 90 14 108 29c16 23 26 70 30 143c-65 -49 -122 -58 -171 -28l-35 42c0 248 -2 392 -5 433c21 15 38 17 53 8c7 -26 9 -75 5 -147c0 -19 -2 -67 -5 -142l3 -139
c23 -17 52 -21 86 -12c26 6 50 17 71 33l2 60v149c0 13 -2 46 -6 101c-3 40 -2 71 1 93c17 11 34 13 51 4c3 -66 4 -128 1 -185c-1 -12 -1 -27 0 -46l1 -46zM300 659c3 5 -32 -37 -103 -125c-8 1 -17 3 -28 7c8 25 34 67 78 128l19 8c13 -3 25 -9 34 -18z" />
    <glyph glyph-name="thorn" unicode="&#xfe;" horiz-adv-x="366" 
d="M99 1l3 -158c-5 -5 -14 -8 -26 -9c-13 -1 -21 0 -26 5c-1 39 0 126 1 261c2 136 2 224 1 264v149c0 105 1 163 3 176c15 10 31 11 46 4c3 -52 2 -119 -2 -200l-1 -11c41 19 79 24 114 16c29 -7 52 -21 68 -42c21 -28 33 -69 34 -123c1 -17 0 -41 -1 -71
c-1 -35 -2 -59 -2 -71c0 -17 -8 -59 -24 -124c-9 -27 -33 -47 -74 -59c-35 -10 -73 -12 -114 -7zM97 350l2 -78v-211c2 -3 11 -7 27 -14c47 -13 83 -1 110 37c9 23 17 72 24 148c0 117 -11 185 -32 204c-11 9 -30 14 -56 15c-31 1 -55 -5 -72 -19z" />
    <glyph glyph-name="ydieresis" unicode="&#xff;" horiz-adv-x="364" 
d="M310 138l2 -78c-3 -104 -20 -170 -51 -199c-26 -17 -70 -26 -131 -29c-11 12 -13 25 -7 40c54 5 90 14 108 29c16 23 26 70 30 143c-65 -49 -122 -58 -171 -28l-35 42c0 248 -2 392 -5 433c21 15 38 17 53 8c7 -26 9 -75 5 -147c0 -19 -2 -67 -5 -142l3 -139
c23 -17 52 -21 86 -12c26 6 50 17 71 33l2 60v149c0 13 -2 46 -6 101c-3 40 -2 71 1 93c17 11 34 13 51 4c3 -66 4 -128 1 -185c-1 -12 -1 -27 0 -46l1 -46zM149 542c-15 -6 -31 -6 -47 -1c-5 31 -4 50 3 58c31 7 47 8 49 2c7 -16 5 -36 -5 -59zM260 542
c-15 -6 -31 -6 -47 -1c-5 31 -4 50 3 58c31 7 47 8 49 2c7 -16 5 -36 -5 -59z" />
    <glyph glyph-name="Abreve" unicode="&#x102;" horiz-adv-x="345" 
d="M204 698c8 -33 15 -86 21 -159c7 -83 13 -137 18 -163c11 -63 16 -89 15 -79c21 -191 33 -286 36 -283c-1 -13 -18 -16 -53 -11c-1 3 -2 16 -4 38l-7 69c-8 69 -16 122 -24 158c-7 1 -22 1 -44 0l-42 -3c-8 -68 -13 -111 -14 -129c-3 -29 -4 -69 -4 -119
c0 -8 -7 -12 -20 -11l-32 1c14 175 28 317 43 427c24 176 35 262 33 258c29 11 55 13 78 6zM130 314l68 5c0 25 -3 78 -10 158c-7 84 -11 137 -12 160c-1 3 -4 5 -9 4s-9 -4 -10 -7c-3 -20 -7 -66 -12 -138c-5 -79 -10 -139 -15 -182zM262 814c-13 -31 -23 -50 -30 -57
c-17 -18 -44 -26 -82 -25c-39 8 -65 41 -77 98c2 6 11 9 26 9c1 -11 9 -24 22 -39c14 -16 27 -24 40 -25c26 -2 45 4 57 17c5 6 12 21 21 44c15 2 23 -5 23 -22z" />
    <glyph glyph-name="abreve" unicode="&#x103;" horiz-adv-x="364" 
d="M67 402v53c0 12 18 23 54 34c35 10 72 15 111 15c26 0 41 -1 46 -2c17 -3 27 -13 30 -29l-2 -235c0 -85 3 -162 8 -229c-9 -7 -23 -11 -41 -11c-11 0 -17 14 -18 41c-37 -28 -73 -42 -110 -42c-18 0 -38 4 -60 11c-23 15 -35 56 -35 121c0 77 13 122 38 136
c5 3 37 12 94 27c43 11 69 26 79 44l-6 109c-11 7 -29 10 -55 10c-50 0 -82 -9 -95 -26v-36c-2 -7 -6 -10 -13 -10c-17 0 -25 6 -25 19zM256 148c0 11 2 54 7 131c-9 -11 -31 -21 -67 -32c-39 -11 -63 -20 -72 -27c-17 -12 -26 -44 -26 -97c0 -49 9 -77 26 -84
c52 0 95 15 130 45c0 27 1 48 2 64zM288 615c-13 -31 -23 -50 -30 -57c-17 -18 -44 -26 -82 -25c-39 8 -65 41 -77 98c2 6 11 9 26 9c1 -11 9 -24 22 -39c14 -16 27 -24 40 -25c26 -2 45 4 57 17c5 6 12 21 21 44c15 2 23 -5 23 -22z" />
    <glyph glyph-name="Aogonek" unicode="&#x104;" horiz-adv-x="370" 
d="M204 698c8 -33 15 -86 21 -159c7 -83 13 -137 18 -163c11 -63 16 -89 15 -79c21 -191 33 -286 36 -283c-1 -7 -8 -12 -23 -13c-38 -16 -60 -37 -67 -64c-6 -25 2 -41 24 -47c31 2 52 4 63 7c14 -3 21 -10 21 -21l-98 -19c-28 5 -46 18 -53 38c-17 41 9 78 79 110
c-15 138 -26 226 -34 263c-7 1 -22 1 -44 0l-42 -3c-8 -68 -13 -111 -14 -129c-3 -29 -4 -69 -4 -119c0 -8 -7 -12 -20 -11l-32 1c14 175 28 317 43 427c24 176 35 262 33 258c29 11 55 13 78 6zM130 314l68 5c0 25 -3 78 -10 158c-7 84 -11 137 -12 160c-1 3 -4 5 -9 4
s-9 -4 -10 -7c-3 -20 -7 -66 -12 -138c-5 -79 -10 -139 -15 -182z" />
    <glyph glyph-name="aogonek" unicode="&#x105;" horiz-adv-x="366" 
d="M67 402v53c0 12 18 23 54 34c35 10 72 15 111 15c26 0 41 -1 46 -2c17 -3 27 -13 30 -29l-2 -235c0 -85 3 -162 8 -229c-5 -4 -14 -7 -26 -9c-37 -17 -59 -39 -65 -65c-6 -25 2 -40 24 -46c31 2 52 4 63 7c14 -3 21 -10 21 -21l-98 -19c-28 5 -46 18 -53 38
c-17 41 9 78 80 110c-3 5 -5 17 -5 35c-37 -28 -73 -42 -110 -42c-18 0 -38 4 -60 11c-23 15 -35 56 -35 121c0 77 13 122 38 136c5 3 37 12 94 27c43 11 69 26 79 44l-6 109c-11 7 -29 10 -55 10c-50 0 -82 -9 -95 -26v-36c-2 -7 -6 -10 -13 -10c-17 0 -25 6 -25 19z
M256 148c0 11 2 54 7 131c-9 -11 -31 -21 -67 -32c-39 -11 -63 -20 -72 -27c-17 -12 -26 -44 -26 -97c0 -49 9 -77 26 -84c52 0 95 15 130 45c0 27 1 48 2 64z" />
    <glyph glyph-name="Cacute" unicode="&#x106;" horiz-adv-x="351" 
d="M286 463c-16 0 -26 4 -31 11c-2 11 -1 42 2 92c2 31 -4 61 -17 91c-46 5 -87 -6 -123 -35c-5 -20 -13 -103 -23 -250c-1 -31 0 -67 2 -106c1 -43 2 -77 2 -101c5 -55 8 -84 11 -87c15 -19 59 -23 130 -11l11 26c2 5 4 27 6 65c2 33 5 51 10 52l24 9c7 2 10 -14 10 -48
c0 -65 -2 -103 -6 -115c-5 -15 -19 -27 -40 -34c-63 -18 -106 -24 -131 -17c-12 3 -27 10 -45 21c-19 47 -28 81 -27 100v303c0 63 7 136 20 217c21 25 58 42 112 51c57 10 96 4 117 -19c-1 -111 -6 -183 -14 -215zM286 860c3 5 -32 -37 -103 -125c-8 1 -17 3 -28 7
c8 25 34 67 78 128l19 8c13 -3 25 -9 34 -18z" />
    <glyph glyph-name="cacute" unicode="&#x107;" horiz-adv-x="365" 
d="M298 352c-17 0 -27 3 -32 8l2 38c2 21 2 34 0 39c-2 4 -9 9 -21 14c-52 15 -92 3 -119 -37c-9 -23 -17 -72 -24 -148c0 -117 11 -185 32 -204c12 -10 30 -17 55 -20c31 -4 54 2 70 17l16 65l25 6c7 2 10 -9 10 -34c0 -39 -2 -60 -6 -63c-47 -29 -93 -41 -138 -34
c-38 5 -66 19 -84 43c-21 28 -33 69 -34 123c-1 17 0 41 1 71c1 35 2 59 2 71c0 17 8 59 24 124c10 33 46 55 109 64c59 9 101 3 126 -16c-1 -61 -5 -103 -14 -127zM308 658c3 5 -32 -37 -103 -125c-8 1 -17 3 -28 7c8 25 34 67 78 128l19 8c13 -3 25 -9 34 -18z" />
    <glyph glyph-name="Ccircumflex" unicode="&#x108;" horiz-adv-x="351" 
d="M286 463c-16 0 -26 4 -31 11c-2 11 -1 42 2 92c2 31 -4 61 -17 91c-46 5 -87 -6 -123 -35c-5 -20 -13 -103 -23 -250c-1 -31 0 -67 2 -106c1 -43 2 -77 2 -101c5 -55 8 -84 11 -87c15 -19 59 -23 130 -11l11 26c2 5 4 27 6 65c2 33 5 51 10 52l24 9c7 2 10 -14 10 -48
c0 -65 -2 -103 -6 -115c-5 -15 -19 -27 -40 -34c-63 -18 -106 -24 -131 -17c-12 3 -27 10 -45 21c-19 47 -28 81 -27 100v303c0 63 7 136 20 217c21 25 58 42 112 51c57 10 96 4 117 -19c-1 -111 -6 -183 -14 -215zM281 749l-24 -11c-48 33 -76 52 -83 59
c-31 -27 -53 -48 -68 -65c-4 0 -8 2 -11 7s-7 8 -10 8c13 30 38 65 77 105l30 -5l65 -66c14 -13 22 -23 24 -32z" />
    <glyph glyph-name="ccircumflex" unicode="&#x109;" horiz-adv-x="365" 
d="M298 352c-17 0 -27 3 -32 8l2 38c2 21 2 34 0 39c-2 4 -9 9 -21 14c-52 15 -92 3 -119 -37c-9 -23 -17 -72 -24 -148c0 -117 11 -185 32 -204c12 -10 30 -17 55 -20c31 -4 54 2 70 17l16 65l25 6c7 2 10 -9 10 -34c0 -39 -2 -60 -6 -63c-47 -29 -93 -41 -138 -34
c-38 5 -66 19 -84 43c-21 28 -33 69 -34 123c-1 17 0 41 1 71c1 35 2 59 2 71c0 17 8 59 24 124c10 33 46 55 109 64c59 9 101 3 126 -16c-1 -61 -5 -103 -14 -127zM295 549l-24 -11c-48 33 -76 52 -83 59c-31 -27 -53 -48 -68 -65c-4 0 -8 2 -11 7s-7 8 -10 8
c13 30 38 65 77 105l30 -5l65 -66c14 -13 22 -23 24 -32z" />
    <glyph glyph-name="Cdotaccent" unicode="&#x10a;" horiz-adv-x="351" 
d="M286 463c-16 0 -26 4 -31 11c-2 11 -1 42 2 92c2 31 -4 61 -17 91c-46 5 -87 -6 -123 -35c-5 -20 -13 -103 -23 -250c-1 -31 0 -67 2 -106c1 -43 2 -77 2 -101c5 -55 8 -84 11 -87c15 -19 59 -23 130 -11l11 26c2 5 4 27 6 65c2 33 5 51 10 52l24 9c7 2 10 -14 10 -48
c0 -65 -2 -103 -6 -115c-5 -15 -19 -27 -40 -34c-63 -18 -106 -24 -131 -17c-12 3 -27 10 -45 21c-19 47 -28 81 -27 100v303c0 63 7 136 20 217c21 25 58 42 112 51c57 10 96 4 117 -19c-1 -111 -6 -183 -14 -215zM196 741c-15 -6 -31 -6 -47 -1c-5 31 -4 50 3 58
c31 7 47 8 49 2c7 -16 5 -36 -5 -59z" />
    <glyph glyph-name="cdotaccent" unicode="&#x10b;" horiz-adv-x="365" 
d="M298 352c-17 0 -27 3 -32 8l2 38c2 21 2 34 0 39c-2 4 -9 9 -21 14c-52 15 -92 3 -119 -37c-9 -23 -17 -72 -24 -148c0 -117 11 -185 32 -204c12 -10 30 -17 55 -20c31 -4 54 2 70 17l16 65l25 6c7 2 10 -9 10 -34c0 -39 -2 -60 -6 -63c-47 -29 -93 -41 -138 -34
c-38 5 -66 19 -84 43c-21 28 -33 69 -34 123c-1 17 0 41 1 71c1 35 2 59 2 71c0 17 8 59 24 124c10 33 46 55 109 64c59 9 101 3 126 -16c-1 -61 -5 -103 -14 -127zM223 538c-15 -6 -31 -6 -47 -1c-5 31 -4 50 3 58c31 7 47 8 49 2c7 -16 5 -36 -5 -59z" />
    <glyph glyph-name="Ccaron" unicode="&#x10c;" horiz-adv-x="351" 
d="M286 463c-16 0 -26 4 -31 11c-2 11 -1 42 2 92c2 31 -4 61 -17 91c-46 5 -87 -6 -123 -35c-5 -20 -13 -103 -23 -250c-1 -31 0 -67 2 -106c1 -43 2 -77 2 -101c5 -55 8 -84 11 -87c15 -19 59 -23 130 -11l11 26c2 5 4 27 6 65c2 33 5 51 10 52l24 9c7 2 10 -14 10 -48
c0 -65 -2 -103 -6 -115c-5 -15 -19 -27 -40 -34c-63 -18 -106 -24 -131 -17c-12 3 -27 10 -45 21c-19 47 -28 81 -27 100v303c0 63 7 136 20 217c21 25 58 42 112 51c57 10 96 4 117 -19c-1 -111 -6 -183 -14 -215zM279 839c-2 -9 -10 -19 -24 -32l-65 -66l-30 -5
c-39 40 -64 75 -77 105c3 0 7 1 13 3c5 2 10 3 15 3c23 -27 44 -48 61 -63c36 33 64 57 84 70c10 -5 18 -10 23 -15z" />
    <glyph glyph-name="ccaron" unicode="&#x10d;" horiz-adv-x="365" 
d="M298 352c-17 0 -27 3 -32 8l2 38c2 21 2 34 0 39c-2 4 -9 9 -21 14c-52 15 -92 3 -119 -37c-9 -23 -17 -72 -24 -148c0 -117 11 -185 32 -204c12 -10 30 -17 55 -20c31 -4 54 2 70 17l16 65l25 6c7 2 10 -9 10 -34c0 -39 -2 -60 -6 -63c-47 -29 -93 -41 -138 -34
c-38 5 -66 19 -84 43c-21 28 -33 69 -34 123c-1 17 0 41 1 71c1 35 2 59 2 71c0 17 8 59 24 124c10 33 46 55 109 64c59 9 101 3 126 -16c-1 -61 -5 -103 -14 -127zM304 637c-2 -9 -10 -19 -24 -32l-65 -66l-30 -5c-39 40 -64 75 -77 105c3 0 7 1 13 3c5 2 10 3 15 3
c23 -27 44 -48 61 -63c36 33 64 57 84 70c10 -5 18 -10 23 -15z" />
    <glyph glyph-name="Dcaron" unicode="&#x10e;" horiz-adv-x="375" 
d="M70 449l-2 217l19 32c83 1 143 -12 179 -37c18 -12 34 -34 48 -67c5 -33 8 -88 8 -165c3 -52 3 -94 2 -125c-2 -31 -2 -57 -1 -78l1 -74c-10 -47 -21 -80 -34 -99c-26 -39 -68 -56 -127 -52c-61 3 -91 4 -91 5c-1 4 -2 152 -2 443zM114 502l3 -94l3 -357
c66 -5 110 9 131 41c15 24 24 75 27 152c0 55 -1 97 -2 126c3 70 2 133 -5 189c-1 32 -21 55 -60 69c-31 11 -61 14 -90 11c-3 -10 -5 -39 -8 -88c1 -6 2 -14 1 -24c-1 -12 -1 -20 0 -25zM283 839c-2 -9 -10 -19 -24 -32l-65 -66l-30 -5c-39 40 -64 75 -77 105c3 0 7 1 13 3
c5 2 10 3 15 3c23 -27 44 -48 61 -63c36 33 64 57 84 70c10 -5 18 -10 23 -15z" />
    <glyph glyph-name="dcaron" unicode="&#x10f;" horiz-adv-x="457" 
d="M312 353l3 -84l-1 -46c-1 -19 -1 -34 0 -46c3 -70 4 -126 2 -167c-5 -3 -11 -4 -18 -4c-43 -10 -86 -10 -131 -1c-51 11 -81 31 -90 62c-16 65 -24 107 -24 124c0 12 -1 36 -2 71c-1 30 -2 54 -1 71c1 54 13 95 34 123c15 20 38 34 69 41c36 8 74 4 113 -12
c-1 103 -1 172 1 209c5 5 13 6 26 5c12 -1 21 -4 26 -9c1 -14 0 -35 -2 -62c-2 -30 -3 -50 -3 -60l-1 -88c-1 -13 -1 -24 0 -31c0 -37 0 -69 -1 -96zM267 163v249l-6 27c-16 15 -39 21 -70 17c-25 -3 -43 -10 -55 -20c-21 -19 -32 -87 -32 -204c7 -76 15 -125 24 -148
c27 -40 67 -52 119 -37c11 5 17 8 18 10c-1 17 0 43 1 80zM399 628c-6 -28 -18 -54 -37 -79c-9 3 -13 8 -12 13c15 38 22 60 19 65c-7 2 -14 5 -19 8c-5 31 -4 50 3 58c31 7 47 8 49 2c7 -17 6 -40 -3 -67z" />
    <glyph glyph-name="Dcroat" unicode="&#x110;" horiz-adv-x="424" 
d="M117 449l-2 217l19 32c83 1 143 -12 179 -37c18 -12 34 -34 48 -67c5 -33 8 -88 8 -165c3 -52 3 -94 2 -125c-2 -31 -2 -57 -1 -78l1 -74c-10 -47 -21 -80 -34 -99c-26 -39 -68 -56 -127 -52c-61 3 -91 4 -91 5c-3 9 -4 108 -3 295l-53 -2l-12 12c-1 0 -1 13 -1 40
c0 -2 22 -3 66 -3zM161 502l3 -94v-60l43 2c6 1 9 -6 10 -23s0 -26 -5 -27l-47 3l2 -252c66 -5 110 9 131 41c15 24 24 75 27 152c0 55 -1 97 -2 126c3 70 2 133 -5 189c-1 32 -21 55 -60 69c-31 11 -61 14 -90 11c-3 -10 -5 -39 -8 -88c1 -6 2 -14 1 -24
c-1 -12 -1 -20 0 -25z" />
    <glyph glyph-name="dslash" unicode="&#x111;" horiz-adv-x="371" 
d="M267 163v249l-6 27c-16 15 -39 21 -70 17c-25 -3 -43 -10 -55 -20c-21 -19 -32 -87 -32 -204c7 -76 15 -125 24 -148c27 -40 67 -52 119 -37c11 5 17 8 18 10c-1 17 0 43 1 80zM314 556l-1 -76c-1 -13 -1 -24 0 -31c0 -37 0 -69 -1 -96l3 -84l-1 -46c-1 -19 -1 -34 0 -46
c3 -70 4 -126 2 -167c-5 -3 -11 -4 -18 -4c-43 -10 -86 -10 -131 -1c-51 11 -81 31 -90 62c-16 65 -24 107 -24 124c0 12 -1 36 -2 71c-1 30 -2 54 -1 71c1 54 13 95 34 123c15 20 38 34 69 41c36 8 74 4 113 -12c-1 26 -1 50 -1 71c-27 1 -48 1 -63 0c-4 12 -4 28 -1 48
c21 1 43 1 64 1c0 39 1 69 2 89c5 5 13 6 26 5c12 -1 21 -4 26 -9c1 -14 0 -35 -2 -62c-1 -9 -1 -16 -1 -23c15 0 30 0 45 -1c6 -9 5 -25 -2 -48c-11 -1 -26 -1 -45 0z" />
    <glyph glyph-name="Edotaccent" unicode="&#x116;" horiz-adv-x="354" 
d="M287 659c-7 0 -66 -6 -178 -19c-1 -14 -3 -47 -8 -100c-4 -43 -6 -81 -5 -112c2 -40 3 -61 4 -63c4 -14 24 -20 59 -19c49 1 76 1 81 0c9 -15 5 -27 -12 -38c-74 -6 -108 -8 -102 -6c-5 -2 -9 -4 -10 -6c-1 -3 -4 -5 -7 -6c-2 -4 -4 -52 -6 -145c-1 -31 1 -58 7 -81
c15 -10 57 -13 126 -10c7 0 18 2 34 6c13 3 24 3 31 2c2 -5 2 -20 0 -43l-74 -12c-43 -5 -69 -7 -77 -6c-10 1 -26 3 -47 7c-23 3 -38 5 -45 6c-2 17 -3 41 -4 73c-1 39 -2 65 -3 79c-1 6 -1 22 0 47l2 47c-2 27 -3 81 -3 162c0 16 1 41 2 76c1 34 2 60 2 78c0 50 2 81 7 92
c40 23 117 31 232 26c6 -1 7 -6 3 -15c-6 -15 -9 -22 -9 -20zM192 738c-15 -6 -31 -6 -47 -1c-5 31 -4 50 3 58c31 7 47 8 49 2c7 -16 5 -36 -5 -59z" />
    <glyph glyph-name="Eogonek" unicode="&#x118;" horiz-adv-x="354" 
d="M287 659c-7 0 -66 -6 -178 -19c-1 -14 -3 -47 -8 -100c-4 -43 -6 -81 -5 -112c2 -40 3 -61 4 -63c4 -14 24 -20 59 -19c49 1 76 1 81 0c9 -15 5 -27 -12 -38c-74 -6 -108 -8 -102 -6c-5 -2 -9 -4 -10 -6c-1 -3 -4 -5 -7 -6c-2 -4 -4 -52 -6 -145c-1 -31 1 -58 7 -81
c15 -10 57 -13 126 -10c7 0 18 2 34 6c13 3 24 3 31 2c2 -5 2 -20 0 -43l-97 -15c-31 -17 -49 -38 -52 -62c-3 -22 5 -36 25 -42c31 2 52 4 63 7c14 -3 21 -10 21 -21l-98 -19c-28 5 -46 18 -53 38c-13 35 3 66 50 95c-5 0 -8 0 -10 1c-10 1 -26 3 -47 7c-23 3 -38 5 -45 6
c-2 17 -3 41 -4 73c-1 39 -2 65 -3 79c-1 6 -1 22 0 47l2 47c-2 27 -3 81 -3 162c0 16 1 41 2 76c1 34 2 60 2 78c0 50 2 81 7 92c40 23 117 31 232 26c6 -1 7 -6 3 -15c-6 -15 -9 -22 -9 -20z" />
    <glyph glyph-name="eogonek" unicode="&#x119;" 
d="M272 70c9 -3 15 -12 18 -29c-34 -23 -64 -37 -91 -41c-34 -17 -53 -38 -58 -63c-4 -23 4 -38 25 -44c31 2 52 4 63 7c14 -3 21 -10 21 -21l-98 -19c-28 5 -46 18 -53 38c-15 37 5 71 61 101c-20 1 -45 9 -76 24c-23 32 -34 104 -34 215c-1 115 13 192 41 231
c15 21 48 33 98 35c51 2 83 -10 96 -36c33 -69 33 -156 0 -261l-29 -21c-69 -13 -121 -19 -156 -17c1 -47 11 -85 29 -116c51 -17 98 -11 143 17zM251 431c-13 17 -32 25 -57 24s-49 -10 -72 -27c-23 -56 -32 -127 -27 -212c43 -1 87 2 132 9l24 14c15 55 15 119 0 192z" />
    <glyph glyph-name="Ecaron" unicode="&#x11a;" horiz-adv-x="354" 
d="M287 659c-7 0 -66 -6 -178 -19c-1 -14 -3 -47 -8 -100c-4 -43 -6 -81 -5 -112c2 -40 3 -61 4 -63c4 -14 24 -20 59 -19c49 1 76 1 81 0c9 -15 5 -27 -12 -38c-74 -6 -108 -8 -102 -6c-5 -2 -9 -4 -10 -6c-1 -3 -4 -5 -7 -6c-2 -4 -4 -52 -6 -145c-1 -31 1 -58 7 -81
c15 -10 57 -13 126 -10c7 0 18 2 34 6c13 3 24 3 31 2c2 -5 2 -20 0 -43l-74 -12c-43 -5 -69 -7 -77 -6c-10 1 -26 3 -47 7c-23 3 -38 5 -45 6c-2 17 -3 41 -4 73c-1 39 -2 65 -3 79c-1 6 -1 22 0 47l2 47c-2 27 -3 81 -3 162c0 16 1 41 2 76c1 34 2 60 2 78c0 50 2 81 7 92
c40 23 117 31 232 26c6 -1 7 -6 3 -15c-6 -15 -9 -22 -9 -20zM269 838c-2 -9 -10 -19 -24 -32l-65 -66l-30 -5c-39 40 -64 75 -77 105c3 0 7 1 13 3c5 2 10 3 15 3c23 -27 44 -48 61 -63c36 33 64 57 84 70c10 -5 18 -10 23 -15z" />
    <glyph glyph-name="ecaron" unicode="&#x11b;" 
d="M272 70c9 -3 15 -12 18 -29c-40 -27 -75 -41 -106 -43c-27 -1 -61 7 -100 25c-23 32 -34 104 -34 215c-1 115 13 192 41 231c15 21 48 33 98 35c51 2 83 -10 96 -36c33 -69 33 -156 0 -261l-29 -21c-69 -13 -121 -19 -156 -17c1 -47 11 -85 29 -116c51 -17 98 -11 143 17
zM251 431c-13 17 -32 25 -57 24s-49 -10 -72 -27c-23 -56 -32 -127 -27 -212c43 -1 87 2 132 9l24 14c15 55 15 119 0 192zM286 636c-2 -9 -10 -19 -24 -32l-65 -66l-30 -5c-39 40 -64 75 -77 105c3 0 7 1 13 3c5 2 10 3 15 3c23 -27 44 -48 61 -63c36 33 64 57 84 70
c10 -5 18 -10 23 -15z" />
    <glyph glyph-name="Gcircumflex" unicode="&#x11c;" horiz-adv-x="357" 
d="M291 405c-5 1 -11 2 -17 5c-7 3 -11 5 -14 6c-2 11 -1 42 2 92c3 41 -3 91 -17 149c-51 6 -94 -6 -131 -35c-7 -26 -10 -64 -10 -113c0 -71 -1 -118 -2 -139c-1 -15 -1 -86 -1 -215l6 -68c28 -35 71 -47 129 -38l13 19c19 51 24 110 15 177c-5 1 -14 1 -29 2
c-12 0 -21 1 -26 3c-1 1 -1 7 0 18l1 23c62 -4 91 -4 87 1c2 -2 3 -27 3 -74c0 -117 0 -177 -1 -179c-5 -15 -19 -27 -40 -34c-46 -14 -109 -7 -190 22c-11 53 -17 88 -16 104c1 20 1 59 -2 117c-2 48 -1 85 3 112c-1 -6 -1 17 -1 69c0 96 4 168 12 217c21 25 60 42 118 51
c60 10 101 4 122 -19c-2 -152 -7 -243 -14 -273zM265 746l-24 -11c-48 33 -76 52 -83 59c-31 -27 -53 -48 -68 -65c-4 0 -8 2 -11 7s-7 8 -10 8c13 30 38 65 77 105l30 -5l65 -66c14 -13 22 -23 24 -32z" />
    <glyph glyph-name="gcircumflex" unicode="&#x11d;" horiz-adv-x="368" 
d="M312 138l1 -78c-3 -105 -20 -171 -50 -199c-26 -17 -70 -26 -131 -29c-7 7 -10 15 -10 25c0 6 1 11 3 15c54 5 90 14 108 29c15 19 24 57 28 112c-26 -11 -51 -16 -74 -16c-91 0 -137 62 -137 187c0 14 1 35 2 62c1 28 2 48 2 61c0 17 8 59 24 124c7 21 26 38 57 50
c28 11 59 17 94 17c31 0 56 -5 75 -14c8 0 13 -8 14 -23c-1 6 -1 -6 -1 -37l-3 -129l1 -73zM267 152l-2 253c0 16 0 28 1 36c-10 10 -28 15 -55 15c-44 0 -73 -19 -87 -57c-6 -17 -12 -61 -19 -133c0 -118 11 -186 32 -204c15 -14 40 -21 73 -21c22 0 39 6 52 18l3 12z
M295 551l-24 -11c-48 33 -76 52 -83 59c-31 -27 -53 -48 -68 -65c-4 0 -8 2 -11 7s-7 8 -10 8c13 30 38 65 77 105l30 -5l65 -66c14 -13 22 -23 24 -32z" />
    <glyph glyph-name="Gbreve" unicode="&#x11e;" horiz-adv-x="357" 
d="M291 405c-5 1 -11 2 -17 5c-7 3 -11 5 -14 6c-2 11 -1 42 2 92c3 41 -3 91 -17 149c-51 6 -94 -6 -131 -35c-7 -26 -10 -64 -10 -113c0 -71 -1 -118 -2 -139c-1 -15 -1 -86 -1 -215l6 -68c28 -35 71 -47 129 -38l13 19c19 51 24 110 15 177c-5 1 -14 1 -29 2
c-12 0 -21 1 -26 3c-1 1 -1 7 0 18l1 23c62 -4 91 -4 87 1c2 -2 3 -27 3 -74c0 -117 0 -177 -1 -179c-5 -15 -19 -27 -40 -34c-46 -14 -109 -7 -190 22c-11 53 -17 88 -16 104c1 20 1 59 -2 117c-2 48 -1 85 3 112c-1 -6 -1 17 -1 69c0 96 4 168 12 217c21 25 60 42 118 51
c60 10 101 4 122 -19c-2 -152 -7 -243 -14 -273zM276 817c-13 -31 -23 -50 -30 -57c-17 -18 -44 -26 -82 -25c-39 8 -65 41 -77 98c2 6 11 9 26 9c1 -11 9 -24 22 -39c14 -16 27 -24 40 -25c26 -2 45 4 57 17c5 6 12 21 21 44c15 2 23 -5 23 -22z" />
    <glyph glyph-name="gbreve" unicode="&#x11f;" horiz-adv-x="368" 
d="M312 138l1 -78c-3 -105 -20 -171 -50 -199c-26 -17 -70 -26 -131 -29c-7 7 -10 15 -10 25c0 6 1 11 3 15c54 5 90 14 108 29c15 19 24 57 28 112c-26 -11 -51 -16 -74 -16c-91 0 -137 62 -137 187c0 14 1 35 2 62c1 28 2 48 2 61c0 17 8 59 24 124c7 21 26 38 57 50
c28 11 59 17 94 17c31 0 56 -5 75 -14c8 0 13 -8 14 -23c-1 6 -1 -6 -1 -37l-3 -129l1 -73zM267 152l-2 253c0 16 0 28 1 36c-10 10 -28 15 -55 15c-44 0 -73 -19 -87 -57c-6 -17 -12 -61 -19 -133c0 -118 11 -186 32 -204c15 -14 40 -21 73 -21c22 0 39 6 52 18l3 12z
M289 615c-13 -31 -23 -50 -30 -57c-17 -18 -44 -26 -82 -25c-39 8 -65 41 -77 98c2 6 11 9 26 9c1 -11 9 -24 22 -39c14 -16 27 -24 40 -25c26 -2 45 4 57 17c5 6 12 21 21 44c15 2 23 -5 23 -22z" />
    <glyph glyph-name="Gdotaccent" unicode="&#x120;" horiz-adv-x="357" 
d="M291 405c-5 1 -11 2 -17 5c-7 3 -11 5 -14 6c-2 11 -1 42 2 92c3 41 -3 91 -17 149c-51 6 -94 -6 -131 -35c-7 -26 -10 -64 -10 -113c0 -71 -1 -118 -2 -139c-1 -15 -1 -86 -1 -215l6 -68c28 -35 71 -47 129 -38l13 19c19 51 24 110 15 177c-5 1 -14 1 -29 2
c-12 0 -21 1 -26 3c-1 1 -1 7 0 18l1 23c62 -4 91 -4 87 1c2 -2 3 -27 3 -74c0 -117 0 -177 -1 -179c-5 -15 -19 -27 -40 -34c-46 -14 -109 -7 -190 22c-11 53 -17 88 -16 104c1 20 1 59 -2 117c-2 48 -1 85 3 112c-1 -6 -1 17 -1 69c0 96 4 168 12 217c21 25 60 42 118 51
c60 10 101 4 122 -19c-2 -152 -7 -243 -14 -273zM202 738c-15 -6 -31 -6 -47 -1c-5 31 -4 50 3 58c31 7 47 8 49 2c7 -16 5 -36 -5 -59z" />
    <glyph glyph-name="gdotaccent" unicode="&#x121;" horiz-adv-x="368" 
d="M312 138l1 -78c-3 -105 -20 -171 -50 -199c-26 -17 -70 -26 -131 -29c-7 7 -10 15 -10 25c0 6 1 11 3 15c54 5 90 14 108 29c15 19 24 57 28 112c-26 -11 -51 -16 -74 -16c-91 0 -137 62 -137 187c0 14 1 35 2 62c1 28 2 48 2 61c0 17 8 59 24 124c7 21 26 38 57 50
c28 11 59 17 94 17c31 0 56 -5 75 -14c8 0 13 -8 14 -23c-1 6 -1 -6 -1 -37l-3 -129l1 -73zM267 152l-2 253c0 16 0 28 1 36c-10 10 -28 15 -55 15c-44 0 -73 -19 -87 -57c-6 -17 -12 -61 -19 -133c0 -118 11 -186 32 -204c15 -14 40 -21 73 -21c22 0 39 6 52 18l3 12z
M218 541c-15 -6 -31 -6 -47 -1c-5 31 -4 50 3 58c31 7 47 8 49 2c7 -16 5 -36 -5 -59z" />
    <glyph glyph-name="Hcircumflex" unicode="&#x124;" 
d="M299 677c-5 -132 -7 -246 -7 -342c0 -57 3 -141 8 -252c3 -47 3 -73 0 -80c-27 -3 -47 -1 -58 6l3 82c3 40 4 72 4 97l2 54c1 24 1 44 0 59c-7 -1 -29 0 -64 2c-27 1 -46 0 -59 -5l-28 -26c-1 -2 -1 -29 -1 -81l2 -79c0 -13 -1 -31 -3 -54c-2 -27 -3 -46 -3 -57
c-16 -3 -30 2 -42 14c-3 41 -2 99 1 173c3 83 4 141 3 176c-3 65 -4 115 -4 149c0 104 2 164 5 180c15 9 30 9 47 0c2 -13 0 -69 -5 -167c-1 -12 -1 -27 0 -46l1 -46c0 -48 2 -77 6 -86c20 -4 68 -3 143 4c-3 27 -2 56 3 89c3 22 2 63 -3 124c-4 53 -3 95 4 125
c1 7 10 8 25 4c15 -3 22 -9 20 -17zM277 751l-24 -11c-48 33 -76 52 -83 59c-31 -27 -53 -48 -68 -65c-4 0 -8 2 -11 7s-7 8 -10 8c13 30 38 65 77 105l30 -5l65 -66c14 -13 22 -23 24 -32z" />
    <glyph glyph-name="hcircumflex" unicode="&#x125;" horiz-adv-x="361" 
d="M270 484l35 -42c0 -248 2 -392 5 -433c-21 -15 -38 -17 -53 -8c-7 26 -9 75 -5 147c0 19 2 67 5 142l-3 139c-43 29 -95 22 -156 -19c-1 -28 -2 -48 -2 -60l2 -78v-137c0 -11 1 -31 4 -60c3 -28 4 -49 3 -62c-5 -5 -14 -8 -26 -9c-13 -1 -21 0 -26 5c-3 43 -3 101 -2 176
c1 89 1 148 0 179v149c0 105 1 163 3 176c15 10 31 11 46 4c2 -41 1 -97 -2 -167c-1 -17 0 -40 1 -71c65 50 122 60 171 29zM259 752l-24 -11c-48 33 -76 52 -83 59c-31 -27 -53 -48 -68 -65c-4 0 -8 2 -11 7s-7 8 -10 8c13 30 38 65 77 105l30 -5l65 -66
c14 -13 22 -23 24 -32z" />
    <glyph glyph-name="Hbar" unicode="&#x126;" horiz-adv-x="421" 
d="M333 677c-1 -27 -3 -68 -4 -121h29c6 1 9 -6 10 -22s0 -25 -5 -26l-35 3c-1 -39 -2 -97 -2 -176c0 -57 3 -141 8 -252c3 -47 3 -73 0 -80c-27 -3 -47 -1 -58 6l3 82c3 40 4 72 4 97l2 54c1 24 1 44 0 59c-7 -1 -29 0 -64 2c-27 1 -46 0 -59 -5l-28 -26
c-1 -2 -1 -29 -1 -81l2 -79c0 -13 -1 -31 -3 -54c-2 -27 -3 -46 -3 -57c-16 -3 -30 2 -42 14c-3 41 -2 99 1 173c3 83 4 141 3 176c-3 63 -4 110 -4 143h-24l-12 12c-1 0 -1 13 -1 38l36 -2c-1 68 1 114 6 138c15 9 30 9 47 0c3 -23 2 -70 -4 -139h71c27 0 53 0 78 1
c-4 61 -3 106 4 135c1 7 10 8 25 4c15 -3 22 -9 20 -17zM288 510l-155 -2l2 -74c0 -48 2 -77 6 -86c20 -4 68 -3 143 4c-3 27 -2 56 3 89c2 20 2 43 1 69z" />
    <glyph glyph-name="hbar" unicode="&#x127;" horiz-adv-x="407" 
d="M50 605c0 -1 15 -2 44 -3c-1 33 0 62 5 87c15 10 31 11 46 4c1 -20 1 -50 1 -91l100 2c5 1 8 -6 9 -23s-1 -26 -4 -27l-33 3l-74 -2l-1 -29c-1 -17 0 -40 1 -71c65 50 122 60 171 29l35 -42c0 -248 2 -392 5 -433c-21 -15 -38 -17 -53 -8c-7 26 -9 75 -5 147
c0 19 2 67 5 142l-3 139c-43 29 -95 22 -156 -19c-1 -28 -2 -48 -2 -60l2 -78v-137c0 -11 1 -31 4 -60c3 -28 4 -49 3 -62c-5 -5 -14 -8 -26 -9c-13 -1 -21 0 -26 5c-3 43 -3 101 -2 176c1 89 1 148 0 179v149c0 19 0 32 -1 41c-13 -1 -25 -1 -34 -1l-10 12
c-1 0 -1 13 -1 40z" />
    <glyph glyph-name="Itilde" unicode="&#x128;" horiz-adv-x="157" 
d="M95 350l2 -78v-137c0 -11 1 -31 4 -60c3 -28 4 -49 3 -62c-5 -5 -14 -8 -26 -9c-13 -1 -21 0 -26 5c-3 43 -3 101 -2 176c1 89 1 148 0 179v149c0 105 1 163 3 176c15 10 31 11 46 4c2 -41 1 -97 -2 -167c-1 -12 -1 -27 0 -46l1 -46zM38 781l-70 -21c-11 9 -14 21 -9 38
l67 32c18 -1 37 -6 58 -15c26 -11 40 -16 41 -16l60 24c15 -19 17 -32 6 -40l-67 -31z" />
    <glyph glyph-name="itilde" unicode="&#x129;" horiz-adv-x="157" 
d="M58 168l-4 315c7 12 16 17 29 16c11 -1 19 -6 23 -13l-4 -119l6 -359c-5 -5 -13 -7 -23 -8c-13 -1 -22 2 -29 11zM41 569l-70 -21c-11 9 -14 21 -9 38l67 32c18 -1 37 -6 58 -15c26 -11 40 -16 41 -16l60 24c15 -19 17 -32 6 -40l-67 -31z" />
    <glyph glyph-name="Idotaccent" unicode="&#x130;" horiz-adv-x="169" 
d="M109 350l2 -78v-137c0 -11 1 -31 4 -60c3 -28 4 -49 3 -62c-5 -5 -14 -8 -26 -9c-13 -1 -21 0 -26 5c-3 43 -3 101 -2 176c1 89 1 148 0 179v149c0 105 1 163 3 176c15 10 31 11 46 4c2 -41 1 -97 -2 -167c-1 -12 -1 -27 0 -46l1 -46zM111 739c-15 -6 -31 -6 -47 -1
c-5 31 -4 50 3 58c31 7 47 8 49 2c7 -16 5 -36 -5 -59z" />
    <glyph glyph-name="dotlessi" unicode="&#x131;" horiz-adv-x="157" 
d="M58 168l-4 315c7 12 16 17 29 16c11 -1 19 -6 23 -13l-4 -119l6 -359c-5 -5 -13 -7 -23 -8c-13 -1 -22 2 -29 11z" />
    <glyph glyph-name="Jcircumflex" unicode="&#x134;" horiz-adv-x="352" 
d="M53 229c7 10 22 14 44 12c1 -11 2 -35 1 -74c-1 -31 1 -54 6 -69c2 -9 9 -19 22 -32c10 -9 27 -15 51 -17c25 -3 43 1 53 10c11 9 17 27 18 54c1 7 1 19 0 36c0 17 0 29 1 38c2 52 3 137 3 254c0 15 -1 38 -2 67s-2 51 -2 65c0 79 0 119 1 121l47 6c3 -2 5 -11 4 -26
l-1 -300c0 -112 0 -163 1 -153c-1 -5 -1 -12 -1 -21l-1 -54c0 -26 0 -46 -1 -61c0 -17 -1 -29 -2 -35l-21 -40c-29 -9 -64 -11 -103 -8c-47 4 -80 16 -99 37c-9 11 -16 43 -20 95c-3 47 -3 79 1 95zM290 751l-24 -11c-48 33 -76 52 -83 59c-31 -27 -53 -48 -68 -65
c-4 0 -8 2 -11 7s-7 8 -10 8c13 30 38 65 77 105l30 -5l65 -66c14 -13 22 -23 24 -32z" />
    <glyph glyph-name="jcircumflex" unicode="&#x135;" horiz-adv-x="164" 
d="M54 447v36c7 12 16 17 29 16c11 -1 19 -6 23 -13l-1 -26c1 -31 0 -79 -3 -146c-1 -12 -1 -27 0 -46l1 -46l-3 -84l2 -78c-3 -104 -20 -170 -51 -199c-26 -17 -70 -26 -131 -29c-11 12 -13 25 -7 40c54 5 90 14 108 29c20 26 31 110 34 251v149c0 107 0 156 -1 146z
M185 549l-24 -11c-48 33 -76 52 -83 59c-31 -27 -53 -48 -68 -65c-4 0 -8 2 -11 7s-7 8 -10 8c13 30 38 65 77 105l30 -5l65 -66c14 -13 22 -23 24 -32z" />
    <glyph glyph-name="Lacute" unicode="&#x139;" horiz-adv-x="347" 
d="M96 350v-215c0 3 2 -21 6 -73c3 -1 6 -4 11 -8l111 2l61 8c8 -2 11 -11 10 -28c-2 -17 -4 -25 -7 -23l-13 -10l-38 -1c-16 -1 -29 -1 -39 0c-47 0 -75 0 -86 -1h-38c-10 -1 -17 0 -21 4c-3 43 -3 102 -2 178c1 90 1 150 0 181v149c0 105 1 163 3 176c16 11 33 12 51 3
c1 -10 -2 -65 -7 -166c-1 -12 -1 -27 0 -46l1 -46zM195 859c3 5 -32 -37 -103 -125c-8 1 -17 3 -28 7c8 25 34 67 78 128l19 8c13 -3 25 -9 34 -18z" />
    <glyph glyph-name="lacute" unicode="&#x13a;" horiz-adv-x="161" 
d="M96 350l2 -78v-137c0 -11 1 -31 4 -62c3 -30 4 -52 3 -65c-5 -5 -14 -8 -26 -9c-13 -1 -21 0 -26 5c-3 43 -3 102 -2 179c1 90 1 150 0 181v149c0 105 1 163 3 176c15 10 31 11 46 4c2 -41 1 -97 -2 -167c-1 -12 -1 -27 0 -46l1 -46zM193 857c3 5 -32 -37 -103 -125
c-8 1 -17 3 -28 7c8 25 34 67 78 128l19 8c13 -3 25 -9 34 -18z" />
    <glyph glyph-name="Lcaron" unicode="&#x13d;" horiz-adv-x="347" 
d="M96 350v-215c0 3 2 -21 6 -73c3 -1 6 -4 11 -8l111 2l61 8c8 -2 11 -11 10 -28c-2 -17 -4 -25 -7 -23l-13 -10l-38 -1c-16 -1 -29 -1 -39 0c-47 0 -75 0 -86 -1h-38c-10 -1 -17 0 -21 4c-3 43 -3 102 -2 178c1 90 1 150 0 181v149c0 105 1 163 3 176c16 11 33 12 51 3
c1 -10 -2 -65 -7 -166c-1 -12 -1 -27 0 -46l1 -46zM190 629c-6 -28 -18 -54 -37 -79c-9 3 -13 8 -12 13c15 38 22 60 19 65c-7 2 -14 5 -19 8c-5 31 -4 50 3 58c31 7 47 8 49 2c7 -17 6 -40 -3 -67z" />
    <glyph glyph-name="lcaron" unicode="&#x13e;" horiz-adv-x="240" 
d="M96 350l2 -78v-137c0 -11 1 -31 4 -62c3 -30 4 -52 3 -65c-5 -5 -14 -8 -26 -9c-13 -1 -21 0 -26 5c-3 43 -3 102 -2 179c1 90 1 150 0 181v149c0 105 1 163 3 176c15 10 31 11 46 4c2 -41 1 -97 -2 -167c-1 -12 -1 -27 0 -46l1 -46zM182 630c-6 -28 -18 -54 -37 -79
c-9 3 -13 8 -12 13c15 38 22 60 19 65c-7 2 -14 5 -19 8c-5 31 -4 50 3 58c31 7 47 8 49 2c7 -17 6 -40 -3 -67z" />
    <glyph glyph-name="Lslash" unicode="&#x141;" horiz-adv-x="442" 
d="M76 296l-4 13c0 -1 25 8 75 25v179c0 105 1 163 3 176c16 11 33 12 51 3c1 -10 -2 -65 -7 -166c-1 -12 -1 -27 0 -46l1 -46l-3 -82l63 24c3 3 8 -2 13 -13s6 -18 4 -20l-28 -7c0 -1 -17 -8 -52 -21v-180c0 3 2 -21 6 -73c3 -1 6 -4 11 -8l111 2l61 8c8 -2 11 -11 10 -28
c-2 -17 -4 -25 -7 -23l-13 -10l-38 -1c-16 -1 -29 -1 -39 0c-47 0 -75 0 -86 -1h-38c-10 -1 -17 0 -21 4c-1 21 -2 118 -2 292l-53 -20l-12 5c-1 -1 -3 4 -6 14z" />
    <glyph glyph-name="lslash" unicode="&#x142;" horiz-adv-x="301" 
d="M54 296l-4 13c0 -1 26 8 77 26c1 0 1 0 2 1v177c0 105 1 163 3 176c15 10 31 11 46 4c2 -41 1 -97 -2 -167c-1 -12 -1 -27 0 -46l1 -46l-3 -80c37 15 57 22 59 22c3 3 8 -2 13 -13s6 -18 4 -20l-28 -7c0 -1 -16 -7 -47 -19l1 -182c0 -11 1 -31 4 -62c3 -30 4 -52 3 -65
c-5 -5 -14 -8 -26 -9c-13 -1 -21 0 -26 5c-1 21 -2 119 -2 295l-57 -22l-12 5c-1 -1 -3 4 -6 14z" />
    <glyph glyph-name="Nacute" unicode="&#x143;" horiz-adv-x="361" 
d="M270 685l35 -42c0 -382 2 -593 5 -634c-21 -15 -38 -17 -53 -8c-7 26 -9 75 -5 147c0 19 2 134 5 343l-3 139c-43 29 -95 22 -156 -19c-1 -28 -2 -48 -2 -60l2 -416c0 -11 1 -31 4 -60c3 -28 4 -49 3 -62c-5 -5 -14 -8 -26 -9c-13 -1 -21 0 -26 5c-3 43 -3 136 -2 277
c1 157 1 250 0 279v121c14 17 29 21 46 12l2 -42c65 50 122 60 171 29zM285 860c3 5 -32 -37 -103 -125c-8 1 -17 3 -28 7c8 25 34 67 78 128l19 8c13 -3 25 -9 34 -18z" />
    <glyph glyph-name="nacute" unicode="&#x144;" horiz-adv-x="360" 
d="M270 484l35 -42c0 -248 2 -392 5 -433c-21 -15 -38 -17 -53 -8c-7 26 -9 75 -5 147c0 19 2 67 5 142l-3 139c-43 29 -95 22 -156 -19c-1 -28 -2 -48 -2 -60l2 -78v-137c0 -11 1 -31 4 -60c3 -28 4 -49 3 -62c-5 -5 -14 -8 -26 -9c-13 -1 -21 0 -26 5c-3 43 -3 101 -2 176
c1 89 1 148 0 179v121c14 17 29 21 46 12l2 -42c65 50 122 60 171 29zM294 660c3 5 -32 -37 -103 -125c-8 1 -17 3 -28 7c8 25 34 67 78 128l19 8c13 -3 25 -9 34 -18z" />
    <glyph glyph-name="Ncaron" unicode="&#x147;" horiz-adv-x="361" 
d="M270 685l35 -42c0 -382 2 -593 5 -634c-21 -15 -38 -17 -53 -8c-7 26 -9 75 -5 147c0 19 2 134 5 343l-3 139c-43 29 -95 22 -156 -19c-1 -28 -2 -48 -2 -60l2 -416c0 -11 1 -31 4 -60c3 -28 4 -49 3 -62c-5 -5 -14 -8 -26 -9c-13 -1 -21 0 -26 5c-3 43 -3 136 -2 277
c1 157 1 250 0 279v121c14 17 29 21 46 12l2 -42c65 50 122 60 171 29zM285 839c-2 -9 -10 -19 -24 -32l-65 -66l-30 -5c-39 40 -64 75 -77 105c3 0 7 1 13 3c5 2 10 3 15 3c23 -27 44 -48 61 -63c36 33 64 57 84 70c10 -5 18 -10 23 -15z" />
    <glyph glyph-name="ncaron" unicode="&#x148;" horiz-adv-x="360" 
d="M270 484l35 -42c0 -248 2 -392 5 -433c-21 -15 -38 -17 -53 -8c-7 26 -9 75 -5 147c0 19 2 67 5 142l-3 139c-43 29 -95 22 -156 -19c-1 -28 -2 -48 -2 -60l2 -78v-137c0 -11 1 -31 4 -60c3 -28 4 -49 3 -62c-5 -5 -14 -8 -26 -9c-13 -1 -21 0 -26 5c-3 43 -3 101 -2 176
c1 89 1 148 0 179v121c14 17 29 21 46 12l2 -42c65 50 122 60 171 29zM278 634c-2 -9 -10 -19 -24 -32l-65 -66l-30 -5c-39 40 -64 75 -77 105c3 0 7 1 13 3c5 2 10 3 15 3c23 -27 44 -48 61 -63c36 33 64 57 84 70c10 -5 18 -10 23 -15z" />
    <glyph glyph-name="Ohungarumlaut" unicode="&#x150;" horiz-adv-x="385" 
d="M297 645c2 -30 2 -71 1 -122c-2 -51 -2 -94 1 -129c1 -21 1 -48 0 -82c-1 -41 -2 -68 -2 -81l-1 -77c0 -5 1 -18 3 -38c1 -16 1 -28 0 -37c1 5 -6 -9 -19 -43c-3 -1 -10 -6 -19 -15c-9 -8 -17 -13 -24 -15c-55 -17 -99 -18 -132 -3c-13 6 -30 26 -51 60
c-1 14 -1 45 -1 94c-1 39 -2 72 -3 99s0 69 1 128c1 53 1 95 -1 125c0 67 2 107 6 119c3 15 16 30 39 43c18 13 47 24 86 34c13 3 36 -1 68 -12c10 -4 26 -20 48 -48zM99 599c-3 -17 -3 -39 -2 -68c3 -46 2 -98 -1 -155c-1 -23 -1 -53 2 -89c3 -41 5 -69 5 -84
c0 -63 1 -102 4 -117c7 -34 29 -48 64 -43c42 4 70 23 84 58c-7 164 -6 336 4 515c-9 25 -35 36 -80 34c-46 -3 -73 -20 -80 -51zM211 853c-11 -16 -26 -36 -47 -59c-29 -33 -46 -52 -50 -57l-28 3c9 28 36 73 82 136c19 -3 30 -6 35 -8c7 -3 9 -8 8 -15zM334 858
c3 5 -32 -37 -103 -125l-23 19c6 19 30 57 73 116l19 8c7 3 19 -3 34 -18z" />
    <glyph glyph-name="ohungarumlaut" unicode="&#x151;" horiz-adv-x="381" 
d="M302 446c1 -8 2 -25 2 -52c1 -21 2 -49 2 -82l-1 -81c0 -97 0 -147 -1 -152c1 5 -6 -9 -19 -43c-3 -1 -10 -6 -19 -15c-9 -8 -17 -13 -24 -15c-55 -17 -99 -18 -132 -3c-13 6 -30 26 -51 60c-1 14 -1 45 -1 94c-1 39 -2 72 -3 99v54c-8 47 -7 86 4 117c3 16 16 31 41 45
c18 13 47 24 86 34c13 3 36 -1 68 -12c10 -4 26 -20 48 -48zM104 400c-2 -18 -1 -84 3 -197l5 -117c7 -34 29 -48 64 -43c27 3 44 5 51 8c12 5 22 18 30 39c1 19 1 129 1 328c-9 25 -34 36 -77 33s-69 -20 -77 -51zM212 652c-11 -16 -26 -36 -47 -59
c-29 -33 -46 -52 -50 -57l-28 3c9 28 36 73 82 136c19 -3 30 -6 35 -8c7 -3 9 -8 8 -15zM335 657c3 5 -32 -37 -103 -125l-23 19c6 19 30 57 73 116l19 8c7 3 19 -3 34 -18z" />
    <glyph glyph-name="OE" unicode="&#x152;" horiz-adv-x="561" 
d="M494 659c-7 0 -66 -6 -178 -19c-1 -14 -3 -47 -8 -100c-4 -43 -6 -81 -5 -112c2 -40 3 -61 4 -63c4 -14 24 -20 59 -19c49 1 76 1 81 0c9 -15 5 -27 -12 -38c-74 -6 -108 -8 -102 -6c-5 -2 -9 -4 -10 -6c-1 -3 -4 -5 -7 -6c-2 -4 -4 -52 -6 -145c-1 -31 1 -58 7 -81
c15 -10 57 -13 126 -10c7 0 18 2 34 6c13 3 24 3 31 2c2 -5 2 -20 0 -43l-74 -12c-43 -5 -69 -7 -77 -6c-10 1 -26 3 -47 7c-23 3 -38 5 -45 6l-2 9c-9 -9 -17 -14 -26 -17c-55 -17 -99 -18 -132 -3c-13 6 -30 26 -51 60c-1 14 -1 45 -1 94c-1 39 -2 72 -3 99s0 69 1 128
c1 53 1 95 -1 125c0 67 2 107 6 119c3 15 16 30 39 43c18 13 47 24 86 34c13 3 36 -1 68 -12c9 -3 18 -10 27 -21c40 20 115 27 224 22c6 -1 7 -6 3 -15c-6 -15 -9 -22 -9 -20zM99 599c-3 -17 -3 -39 -2 -68c3 -46 2 -98 -1 -155c-1 -23 -1 -53 2 -89c3 -41 5 -69 5 -84
c0 -63 1 -102 4 -117c7 -34 29 -48 64 -43c42 4 70 23 84 58c-7 164 -6 336 4 515c-9 25 -35 36 -80 34c-46 -3 -73 -20 -80 -51z" />
    <glyph glyph-name="oe" unicode="&#x153;" horiz-adv-x="593" 
d="M510 70c9 -3 15 -12 18 -29c-40 -27 -75 -41 -106 -43c-27 -1 -61 7 -100 25c-9 12 -16 32 -21 61l-1 -5c1 5 -6 -9 -19 -43c-3 -1 -10 -6 -19 -15c-9 -8 -17 -13 -24 -15c-55 -17 -99 -18 -132 -3c-13 6 -30 26 -51 60c-1 14 -1 45 -1 94c-1 39 -2 72 -3 99
c-1 31 -1 41 1 29c1 -8 0 0 -1 25c0 70 1 109 4 117c3 16 16 31 41 45c18 13 47 24 86 34c13 3 36 -1 68 -12c10 -4 26 -20 48 -48c2 -31 2 -38 1 -22c-2 15 -2 5 1 -30v-3c8 37 18 63 29 78c15 21 48 33 98 35c51 2 83 -10 96 -36c33 -69 33 -156 0 -261l-29 -21
c-69 -13 -121 -19 -156 -17c1 -47 11 -85 29 -116c51 -17 98 -11 143 17zM100 400c-2 -18 -1 -84 3 -197l5 -117c7 -34 29 -48 64 -43c29 3 48 5 55 8c15 6 27 19 35 39c1 19 1 129 1 328c-9 25 -36 36 -81 33c-47 -3 -75 -20 -82 -51zM489 431c-13 17 -32 25 -57 24
s-49 -10 -72 -27c-23 -56 -32 -127 -27 -212c43 -1 87 2 132 9l24 14c15 55 15 119 0 192z" />
    <glyph glyph-name="Racute" unicode="&#x154;" horiz-adv-x="337" 
d="M97 636c3 -206 4 -307 3 -304c47 3 80 15 101 36c23 23 34 69 35 138c1 63 -6 109 -19 139c-47 11 -87 8 -120 -9zM223 6l-9 56c-17 77 -27 137 -30 178c-1 27 -5 47 -11 61l-37 -9c-17 -4 -27 -10 -30 -19c1 1 0 -13 -2 -41l-4 -117c1 -43 3 -71 5 -86
c3 -20 -16 -29 -55 -28v54c0 25 1 53 3 86c1 32 2 61 2 86c0 32 -1 56 -2 71c-2 41 -2 118 0 229c2 92 1 142 -2 150c71 19 132 25 185 17c19 -13 31 -35 35 -68c9 -71 12 -118 8 -143l-6 -53c-3 -30 -6 -47 -7 -50c-7 -21 -13 -35 -18 -40l-27 -16l10 -45
c27 -143 43 -220 48 -232s5 -22 -1 -31c-6 -7 -24 -11 -55 -10zM255 861c3 5 -32 -37 -103 -125c-8 1 -17 3 -28 7c8 25 34 67 78 128l19 8c13 -3 25 -9 34 -18z" />
    <glyph glyph-name="racute" unicode="&#x155;" horiz-adv-x="306" 
d="M85 227v207c0 15 1 33 2 54c23 13 39 16 46 7v-57c10 22 27 39 52 50c23 11 45 14 68 11c5 -23 3 -40 -6 -49c-21 -1 -41 -6 -61 -15c-29 -13 -47 -33 -52 -58l-1 -229c1 -29 2 -57 2 -86v-60c-7 -4 -16 -5 -27 -3s-19 6 -24 12c-1 14 0 35 1 63l1 117l-1 18
c-1 7 -1 13 0 18zM225 660c3 5 -32 -37 -103 -125c-8 1 -17 3 -28 7c8 25 34 67 78 128l19 8c13 -3 25 -9 34 -18z" />
    <glyph glyph-name="Rcaron" unicode="&#x158;" horiz-adv-x="354" 
d="M114 636c3 -206 4 -307 3 -304c47 3 80 15 101 36c23 23 34 69 35 138c1 63 -6 109 -19 139c-47 11 -87 8 -120 -9zM240 6l-9 56c-17 77 -27 137 -30 178c-1 27 -5 47 -11 61l-37 -9c-17 -4 -27 -10 -30 -19c1 1 0 -13 -2 -41l-4 -117c1 -43 3 -71 5 -86
c3 -20 -16 -29 -55 -28v54c0 25 1 53 3 86c1 32 2 61 2 86c0 32 -1 56 -2 71c-2 41 -2 118 0 229c2 92 1 142 -2 150c71 19 132 25 185 17c19 -13 31 -35 35 -68c9 -71 12 -118 8 -143l-6 -53c-3 -30 -6 -47 -7 -50c-7 -21 -13 -35 -18 -40l-27 -16l10 -45
c27 -143 43 -220 48 -232s5 -22 -1 -31c-6 -7 -24 -11 -55 -10zM272 839c-2 -9 -10 -19 -24 -32l-65 -66l-30 -5c-39 40 -64 75 -77 105c3 0 7 1 13 3c5 2 10 3 15 3c23 -27 44 -48 61 -63c36 33 64 57 84 70c10 -5 18 -10 23 -15z" />
    <glyph glyph-name="rcaron" unicode="&#x159;" horiz-adv-x="306" 
d="M85 227v207c0 15 1 33 2 54c23 13 39 16 46 7v-57c10 22 27 39 52 50c23 11 45 14 68 11c5 -23 3 -40 -6 -49c-21 -1 -41 -6 -61 -15c-29 -13 -47 -33 -52 -58l-1 -229c1 -29 2 -57 2 -86v-60c-7 -4 -16 -5 -27 -3s-19 6 -24 12c-1 14 0 35 1 63l1 117l-1 18
c-1 7 -1 13 0 18zM263 637c-2 -9 -10 -19 -24 -32l-65 -66l-30 -5c-39 40 -64 75 -77 105c3 0 7 1 13 3c5 2 10 3 15 3c23 -27 44 -48 61 -63c36 33 64 57 84 70c10 -5 18 -10 23 -15z" />
    <glyph glyph-name="Sacute" unicode="&#x15a;" horiz-adv-x="354" 
d="M259 690c11 -31 17 -78 19 -142c3 -71 -3 -116 -17 -136c-19 0 -29 0 -30 1c3 144 2 222 -4 235c-13 13 -34 16 -63 9c-26 -7 -45 -18 -56 -33c-15 -93 -9 -172 16 -235l160 -128c24 -93 27 -158 10 -195c-2 -6 -11 -17 -28 -32c-16 -16 -27 -25 -33 -27
c-61 -13 -108 -10 -143 8c-21 13 -33 46 -34 97c-1 19 -1 55 -1 106c0 13 2 20 7 19l30 -10c7 -8 9 -24 6 -48c-1 -7 1 -38 4 -93c2 -34 42 -43 121 -27c35 51 42 109 19 172c-15 17 -37 34 -64 53c-31 21 -52 37 -64 48c-29 27 -49 63 -60 108c-3 9 -4 50 -4 123
c0 49 8 85 25 110c76 23 137 29 184 17zM272 861c3 5 -32 -37 -103 -125c-8 1 -17 3 -28 7c8 25 34 67 78 128l19 8c13 -3 25 -9 34 -18z" />
    <glyph glyph-name="sacute" unicode="&#x15b;" horiz-adv-x="358" 
d="M262 500c11 -22 18 -57 20 -104c3 -51 -3 -84 -18 -98c-21 0 -32 0 -33 1c3 100 2 154 -3 162c-14 9 -35 12 -63 7c-27 -5 -45 -13 -56 -24c-13 -63 -8 -118 16 -163l162 -92c25 -67 29 -114 11 -142c-2 -5 -11 -13 -28 -24s-29 -18 -35 -19c-60 -9 -108 -8 -145 5
c-21 10 -33 34 -34 71c-1 14 -1 40 -1 77c0 9 3 14 8 13l29 -7c5 -3 7 -15 7 -34c0 -30 1 -50 4 -59c7 -25 48 -31 123 -19c34 34 40 72 19 115c-16 13 -38 26 -65 39c-31 15 -53 27 -65 35c-29 20 -50 46 -61 78c-3 7 -4 37 -4 90c0 35 8 62 25 79c75 18 137 22 187 13z
M242 657c3 5 -32 -37 -103 -125c-8 1 -17 3 -28 7c8 25 34 67 78 128l19 8c13 -3 25 -9 34 -18z" />
    <glyph glyph-name="Scircumflex" unicode="&#x15c;" horiz-adv-x="354" 
d="M259 690c11 -31 17 -78 19 -142c3 -71 -3 -116 -17 -136c-19 0 -29 0 -30 1c3 144 2 222 -4 235c-13 13 -34 16 -63 9c-26 -7 -45 -18 -56 -33c-15 -93 -9 -172 16 -235l160 -128c24 -93 27 -158 10 -195c-2 -6 -11 -17 -28 -32c-16 -16 -27 -25 -33 -27
c-61 -13 -108 -10 -143 8c-21 13 -33 46 -34 97c-1 19 -1 55 -1 106c0 13 2 20 7 19l30 -10c7 -8 9 -24 6 -48c-1 -7 1 -38 4 -93c2 -34 42 -43 121 -27c35 51 42 109 19 172c-15 17 -37 34 -64 53c-31 21 -52 37 -64 48c-29 27 -49 63 -60 108c-3 9 -4 50 -4 123
c0 49 8 85 25 110c76 23 137 29 184 17zM264 751l-24 -11c-48 33 -76 52 -83 59c-31 -27 -53 -48 -68 -65c-4 0 -8 2 -11 7s-7 8 -10 8c13 30 38 65 77 105l30 -5l65 -66c14 -13 22 -23 24 -32z" />
    <glyph glyph-name="scircumflex" unicode="&#x15d;" horiz-adv-x="358" 
d="M262 500c11 -22 18 -57 20 -104c3 -51 -3 -84 -18 -98c-21 0 -32 0 -33 1c3 100 2 154 -3 162c-14 9 -35 12 -63 7c-27 -5 -45 -13 -56 -24c-13 -63 -8 -118 16 -163l162 -92c25 -67 29 -114 11 -142c-2 -5 -11 -13 -28 -24s-29 -18 -35 -19c-60 -9 -108 -8 -145 5
c-21 10 -33 34 -34 71c-1 14 -1 40 -1 77c0 9 3 14 8 13l29 -7c5 -3 7 -15 7 -34c0 -30 1 -50 4 -59c7 -25 48 -31 123 -19c34 34 40 72 19 115c-16 13 -38 26 -65 39c-31 15 -53 27 -65 35c-29 20 -50 46 -61 78c-3 7 -4 37 -4 90c0 35 8 62 25 79c75 18 137 22 187 13z
M268 553l-24 -11c-48 33 -76 52 -83 59c-31 -27 -53 -48 -68 -65c-4 0 -8 2 -11 7s-7 8 -10 8c13 30 38 65 77 105l30 -5l65 -66c14 -13 22 -23 24 -32z" />
    <glyph glyph-name="Scedilla" unicode="&#x15e;" horiz-adv-x="354" 
d="M150 -37l14 37c-31 0 -56 5 -74 15c-21 13 -33 46 -34 97c-1 19 -1 55 -1 106c0 13 2 20 7 19l30 -10c7 -8 9 -24 6 -48c-1 -7 1 -38 4 -93c2 -34 42 -43 121 -27c35 51 42 109 19 172c-15 17 -37 34 -64 53c-31 21 -52 37 -64 48c-29 27 -49 63 -60 108
c-3 9 -4 50 -4 123c0 49 8 85 25 110c76 23 137 29 184 17c11 -31 17 -78 19 -142c3 -71 -3 -116 -17 -136c-19 0 -29 0 -30 1c3 144 2 222 -4 235c-13 13 -34 16 -63 9c-26 -7 -45 -18 -56 -33c-15 -93 -9 -172 16 -235l160 -128c24 -93 27 -158 10 -195
c-2 -6 -11 -17 -28 -32c-16 -16 -27 -25 -33 -27c-12 -3 -25 -5 -38 -6l-6 -30c31 3 54 -6 69 -29c12 -19 14 -37 7 -56c-7 -20 -25 -33 -53 -38l-98 19c0 11 7 18 21 21c11 -3 32 -5 63 -7c24 7 34 20 30 41c-3 21 -23 30 -59 27z" />
    <glyph glyph-name="scedilla" unicode="&#x15f;" horiz-adv-x="358" 
d="M150 -36l13 35c-29 0 -54 3 -73 10c-21 10 -33 34 -34 71c-1 14 -1 40 -1 77c0 9 3 14 8 13l29 -7c5 -3 7 -15 7 -34c0 -30 1 -50 4 -59c7 -25 48 -31 123 -19c34 34 40 72 19 115c-16 13 -38 26 -65 39c-31 15 -53 27 -65 35c-29 20 -50 46 -61 78c-3 7 -4 37 -4 90
c0 35 8 62 25 79c75 18 137 22 187 13c11 -22 18 -57 20 -104c3 -51 -3 -84 -18 -98c-21 0 -32 0 -33 1c3 100 2 154 -3 162c-14 9 -35 12 -63 7c-27 -5 -45 -13 -56 -24c-13 -63 -8 -118 16 -163l162 -92c25 -67 29 -114 11 -142c-2 -5 -11 -13 -28 -24s-29 -18 -35 -19
c-17 -3 -31 -4 -41 -4l-5 -28c31 3 54 -6 69 -29c12 -19 14 -37 7 -56c-7 -20 -25 -33 -53 -38l-98 19c0 11 7 18 21 21c11 -3 32 -5 63 -7c24 7 34 20 30 41c-3 21 -23 30 -59 27z" />
    <glyph glyph-name="Scaron" unicode="&#x160;" horiz-adv-x="354" 
d="M259 690c11 -31 17 -78 19 -142c3 -71 -3 -116 -17 -136c-19 0 -29 0 -30 1c3 144 2 222 -4 235c-13 13 -34 16 -63 9c-26 -7 -45 -18 -56 -33c-15 -93 -9 -172 16 -235l160 -128c24 -93 27 -158 10 -195c-2 -6 -11 -17 -28 -32c-16 -16 -27 -25 -33 -27
c-61 -13 -108 -10 -143 8c-21 13 -33 46 -34 97c-1 19 -1 55 -1 106c0 13 2 20 7 19l30 -10c7 -8 9 -24 6 -48c-1 -7 1 -38 4 -93c2 -34 42 -43 121 -27c35 51 42 109 19 172c-15 17 -37 34 -64 53c-31 21 -52 37 -64 48c-29 27 -49 63 -60 108c-3 9 -4 50 -4 123
c0 49 8 85 25 110c76 23 137 29 184 17zM259 838c-2 -9 -10 -19 -24 -32l-65 -66l-30 -5c-39 40 -64 75 -77 105c3 0 7 1 13 3c5 2 10 3 15 3c23 -27 44 -48 61 -63c36 33 64 57 84 70c10 -5 18 -10 23 -15z" />
    <glyph glyph-name="scaron" unicode="&#x161;" horiz-adv-x="358" 
d="M262 500c11 -22 18 -57 20 -104c3 -51 -3 -84 -18 -98c-21 0 -32 0 -33 1c3 100 2 154 -3 162c-14 9 -35 12 -63 7c-27 -5 -45 -13 -56 -24c-13 -63 -8 -118 16 -163l162 -92c25 -67 29 -114 11 -142c-2 -5 -11 -13 -28 -24s-29 -18 -35 -19c-60 -9 -108 -8 -145 5
c-21 10 -33 34 -34 71c-1 14 -1 40 -1 77c0 9 3 14 8 13l29 -7c5 -3 7 -15 7 -34c0 -30 1 -50 4 -59c7 -25 48 -31 123 -19c34 34 40 72 19 115c-16 13 -38 26 -65 39c-31 15 -53 27 -65 35c-29 20 -50 46 -61 78c-3 7 -4 37 -4 90c0 35 8 62 25 79c75 18 137 22 187 13z
M259 636c-2 -9 -10 -19 -24 -32l-65 -66l-30 -5c-39 40 -64 75 -77 105c3 0 7 1 13 3c5 2 10 3 15 3c23 -27 44 -48 61 -63c36 33 64 57 84 70c10 -5 18 -10 23 -15z" />
    <glyph glyph-name="uni0162" unicode="&#x162;" horiz-adv-x="351" 
d="M57 696l245 3c3 -25 -1 -41 -13 -48l-74 3c-10 0 -16 -3 -18 -8c-1 -4 -2 -17 -2 -38l2 -249c0 -35 2 -83 6 -145c4 -61 6 -115 6 -161c0 -35 -2 -53 -6 -54c-7 -3 -17 -2 -30 3c-12 4 -18 8 -18 11c0 21 1 54 2 99l1 72c0 39 -1 104 -4 195s-5 162 -5 212l1 52
c0 5 -13 7 -39 6c-30 -2 -46 -2 -49 -1c-13 15 -14 31 -5 48zM209 -115c-6 -28 -18 -54 -37 -79c-9 3 -13 8 -12 13c15 38 22 60 19 65c-7 2 -14 5 -19 8c-5 31 -4 50 3 58c31 7 47 8 49 2c7 -17 6 -40 -3 -67z" />
    <glyph glyph-name="uni0163" unicode="&#x163;" horiz-adv-x="273" 
d="M52 502c0 -1 17 -2 52 -2c-1 13 -1 32 -1 57c0 22 2 36 6 43c4 6 14 9 29 9c7 0 12 -1 17 -4l-1 -25l1 -80l53 1c6 0 9 -10 9 -29c0 -13 -2 -20 -5 -21l-40 3c-5 0 -11 0 -17 -1c0 -29 -1 -63 -2 -102l2 -107l-1 -14v-143c0 -27 8 -41 25 -41c4 0 10 1 18 3
c8 1 14 2 17 2c6 0 9 -12 9 -35c0 -11 -17 -16 -50 -16c-45 0 -68 20 -68 60l1 339c-1 20 -1 37 -1 52c-15 -1 -28 -1 -40 -1l-12 12c-2 0 -3 4 -3 13c0 8 1 17 2 27zM184 -108c-6 -28 -18 -54 -37 -79c-9 3 -13 8 -12 13c15 38 22 60 19 65c-7 2 -14 5 -19 8
c-5 31 -4 50 3 58c31 7 47 8 49 2c7 -17 6 -40 -3 -67z" />
    <glyph glyph-name="Tcaron" unicode="&#x164;" horiz-adv-x="351" 
d="M57 696l245 3c3 -25 -1 -41 -13 -48l-74 3c-10 0 -16 -3 -18 -8c-1 -4 -2 -17 -2 -38l2 -249c0 -35 2 -83 6 -145c4 -61 6 -115 6 -161c0 -35 -2 -53 -6 -54c-7 -3 -17 -2 -30 3c-12 4 -18 8 -18 11c0 21 1 54 2 99l1 72c0 39 -1 104 -4 195s-5 162 -5 212l1 52
c0 5 -13 7 -39 6c-30 -2 -46 -2 -49 -1c-13 15 -14 31 -5 48zM276 838c-2 -9 -10 -19 -24 -32l-65 -66l-30 -5c-39 40 -64 75 -77 105c3 0 7 1 13 3c5 2 10 3 15 3c23 -27 44 -48 61 -63c36 33 64 57 84 70c10 -5 18 -10 23 -15z" />
    <glyph glyph-name="tcaron" unicode="&#x165;" horiz-adv-x="324" 
d="M52 502c0 -1 17 -2 52 -2c-1 13 -1 32 -1 57c0 22 2 36 6 43c4 6 14 9 29 9c7 0 12 -1 17 -4l-1 -25l1 -80l53 1c6 0 9 -10 9 -29c0 -13 -2 -20 -5 -21l-40 3c-5 0 -11 0 -17 -1c0 -29 -1 -63 -2 -102l2 -107l-1 -14v-143c0 -27 8 -41 25 -41c4 0 10 1 18 3
c8 1 14 2 17 2c6 0 9 -12 9 -35c0 -11 -17 -16 -50 -16c-45 0 -68 20 -68 60l1 339c-1 20 -1 37 -1 52c-15 -1 -28 -1 -40 -1l-12 12c-2 0 -3 4 -3 13c0 8 1 17 2 27zM267 611c-6 -28 -18 -54 -37 -79c-9 3 -13 8 -12 13c15 38 22 60 19 65c-7 2 -14 5 -19 8
c-5 31 -4 50 3 58c31 7 47 8 49 2c7 -17 6 -40 -3 -67z" />
    <glyph glyph-name="Utilde" unicode="&#x168;" horiz-adv-x="357" 
d="M303 666c-2 -23 -3 -58 -2 -105c1 -49 0 -85 -1 -108c-2 -52 -2 -81 0 -87c-3 -26 -3 -67 0 -124c2 -60 2 -104 0 -131c-3 -12 -4 -21 -4 -26v-21c1 -8 0 -14 -1 -18c-6 -16 -23 -29 -50 -39c-25 -7 -52 -9 -82 -5c-28 3 -45 6 -52 9c-5 1 -15 11 -30 28
c-14 18 -21 28 -22 31c-7 18 -9 35 -8 50s2 36 1 64c-1 31 -1 53 0 67c1 32 0 76 -1 131c-1 66 -2 110 -2 132l-1 127c0 30 2 47 6 52c15 3 31 0 48 -11c-3 -47 -4 -112 -2 -195c2 -106 3 -174 2 -205c-2 -101 -2 -159 1 -173c7 -22 18 -37 32 -44c17 -9 47 -14 91 -15
l20 18c4 84 6 186 6 306c0 144 -2 249 -7 315c9 9 20 9 35 1c13 -8 20 -16 23 -24zM133 761l-70 -21c-11 9 -14 21 -9 38l67 32c18 -1 37 -6 58 -15c26 -11 40 -16 41 -16l60 24c15 -19 17 -32 6 -40l-67 -31z" />
    <glyph glyph-name="utilde" unicode="&#x169;" horiz-adv-x="360" 
d="M90 16l-35 42c0 248 -2 392 -5 433c21 15 38 17 53 8c7 -26 9 -75 5 -147c0 -19 -2 -67 -5 -142l3 -139c44 -31 96 -24 155 19l3 60l-2 78v137c0 11 -1 31 -4 60c-3 28 -4 49 -3 62c5 5 14 8 26 9c13 1 21 0 26 -5c3 -43 4 -101 3 -176c-1 -89 -2 -148 -1 -179v-121
c-14 -17 -29 -21 -46 -12c-1 13 -2 27 -2 41c-66 -48 -123 -57 -171 -28zM138 574l-70 -21c-11 9 -14 21 -9 38l67 32c18 -1 37 -6 58 -15c26 -11 40 -16 41 -16l60 24c15 -19 17 -32 6 -40l-67 -31z" />
    <glyph glyph-name="Ubreve" unicode="&#x16c;" horiz-adv-x="357" 
d="M305 666c-2 -23 -3 -58 -2 -105c1 -49 0 -85 -1 -108c-2 -52 -2 -81 0 -87c-3 -26 -3 -67 0 -124c2 -60 2 -104 0 -131c-3 -12 -4 -21 -4 -26v-21c1 -8 0 -14 -1 -18c-6 -16 -23 -29 -50 -39c-25 -7 -52 -9 -82 -5c-28 3 -45 6 -52 9c-5 1 -15 11 -30 28
c-14 18 -21 28 -22 31c-7 18 -9 35 -8 50s2 36 1 64c-1 31 -1 53 0 67c1 32 0 76 -1 131c-1 66 -2 110 -2 132l-1 127c0 30 2 47 6 52c15 3 31 0 48 -11c-3 -47 -4 -112 -2 -195c2 -106 3 -174 2 -205c-2 -101 -2 -159 1 -173c7 -22 18 -37 32 -44c17 -9 47 -14 91 -15
l20 18c4 84 6 186 6 306c0 144 -2 249 -7 315c9 9 20 9 35 1c13 -8 20 -16 23 -24zM269 815c-13 -31 -23 -50 -30 -57c-17 -18 -44 -26 -82 -25c-39 8 -65 41 -77 98c2 6 11 9 26 9c1 -11 9 -24 22 -39c14 -16 27 -24 40 -25c26 -2 45 4 57 17c5 6 12 21 21 44
c15 2 23 -5 23 -22z" />
    <glyph glyph-name="ubreve" unicode="&#x16d;" horiz-adv-x="360" 
d="M90 16l-35 42c0 248 -2 392 -5 433c21 15 38 17 53 8c7 -26 9 -75 5 -147c0 -19 -2 -67 -5 -142l3 -139c44 -31 96 -24 155 19l3 60l-2 78v137c0 11 -1 31 -4 60c-3 28 -4 49 -3 62c5 5 14 8 26 9c13 1 21 0 26 -5c3 -43 4 -101 3 -176c-1 -89 -2 -148 -1 -179v-121
c-14 -17 -29 -21 -46 -12c-1 13 -2 27 -2 41c-66 -48 -123 -57 -171 -28zM275 619c-13 -31 -23 -50 -30 -57c-17 -18 -44 -26 -82 -25c-39 8 -65 41 -77 98c2 6 11 9 26 9c1 -11 9 -24 22 -39c14 -16 27 -24 40 -25c26 -2 45 4 57 17c5 6 12 21 21 44c15 2 23 -5 23 -22z
" />
    <glyph glyph-name="Uring" unicode="&#x16e;" horiz-adv-x="357" 
d="M305 666c-2 -23 -3 -58 -2 -105c1 -49 0 -85 -1 -108c-2 -52 -2 -81 0 -87c-3 -26 -3 -67 0 -124c2 -60 2 -104 0 -131c-3 -12 -4 -21 -4 -26v-21c1 -8 0 -14 -1 -18c-6 -16 -23 -29 -50 -39c-25 -7 -52 -9 -82 -5c-28 3 -45 6 -52 9c-5 1 -15 11 -30 28
c-14 18 -21 28 -22 31c-7 18 -9 35 -8 50s2 36 1 64c-1 31 -1 53 0 67c1 32 0 76 -1 131c-1 66 -2 110 -2 132l-1 127c0 30 2 47 6 52c15 3 31 0 48 -11c-3 -47 -4 -112 -2 -195c2 -106 3 -174 2 -205c-2 -101 -2 -159 1 -173c7 -22 18 -37 32 -44c17 -9 47 -14 91 -15
l20 18c4 84 6 186 6 306c0 144 -2 249 -7 315c9 9 20 9 35 1c13 -8 20 -16 23 -24zM232 861c7 -37 6 -74 -3 -110c-13 -11 -30 -16 -52 -16s-41 5 -56 14c-4 43 -2 78 6 103c10 8 28 13 53 14c24 1 41 0 52 -5zM155 827c-8 -18 -8 -37 0 -57c21 -6 36 -4 47 5
c5 19 5 38 0 58c-22 5 -38 3 -47 -6z" />
    <glyph glyph-name="uring" unicode="&#x16f;" horiz-adv-x="360" 
d="M90 16l-35 42c0 248 -2 392 -5 433c21 15 38 17 53 8c7 -26 9 -75 5 -147c0 -19 -2 -67 -5 -142l3 -139c44 -31 96 -24 155 19l3 60l-2 78v137c0 11 -1 31 -4 60c-3 28 -4 49 -3 62c5 5 14 8 26 9c13 1 21 0 26 -5c3 -43 4 -101 3 -176c-1 -89 -2 -148 -1 -179v-121
c-14 -17 -29 -21 -46 -12c-1 13 -2 27 -2 41c-66 -48 -123 -57 -171 -28zM238 660c7 -37 6 -74 -3 -110c-13 -11 -30 -16 -52 -16s-41 5 -56 14c-4 43 -2 78 6 103c10 8 28 13 53 14c24 1 41 0 52 -5zM161 626c-8 -18 -8 -37 0 -57c21 -6 36 -4 47 5c5 19 5 38 0 58
c-22 5 -38 3 -47 -6z" />
    <glyph glyph-name="Uhungarumlaut" unicode="&#x170;" horiz-adv-x="372" 
d="M305 666c-2 -23 -3 -58 -2 -105c1 -49 0 -85 -1 -108c-2 -52 -2 -81 0 -87c-3 -26 -3 -67 0 -124c2 -60 2 -104 0 -131c-3 -12 -4 -21 -4 -26v-21c1 -8 0 -14 -1 -18c-6 -16 -23 -29 -50 -39c-25 -7 -52 -9 -82 -5c-28 3 -45 6 -52 9c-5 1 -15 11 -30 28
c-14 18 -21 28 -22 31c-7 18 -9 35 -8 50s2 36 1 64c-1 31 -1 53 0 67c1 32 0 76 -1 131c-1 66 -2 110 -2 132l-1 127c0 30 2 47 6 52c15 3 31 0 48 -11c-3 -47 -4 -112 -2 -195c2 -106 3 -174 2 -205c-2 -101 -2 -159 1 -173c7 -22 18 -37 32 -44c17 -9 47 -14 91 -15
l20 18c4 84 6 186 6 306c0 144 -2 249 -7 315c9 9 20 9 35 1c13 -8 20 -16 23 -24zM197 852c-11 -16 -26 -36 -47 -59c-29 -33 -46 -52 -50 -57l-28 3c9 28 36 73 82 136c19 -3 30 -6 35 -8c7 -3 9 -8 8 -15zM320 857c3 5 -32 -37 -103 -125l-23 19c6 19 30 57 73 116l19 8
c7 3 19 -3 34 -18z" />
    <glyph glyph-name="uhungarumlaut" unicode="&#x171;" horiz-adv-x="388" 
d="M90 16l-35 42c0 248 -2 392 -5 433c21 15 38 17 53 8c7 -26 9 -75 5 -147c0 -19 -2 -67 -5 -142l3 -139c44 -31 96 -24 155 19l3 60l-2 78v137c0 11 -1 31 -4 60c-3 28 -4 49 -3 62c5 5 14 8 26 9c13 1 21 0 26 -5c3 -43 4 -101 3 -176c-1 -89 -2 -148 -1 -179v-121
c-14 -17 -29 -21 -46 -12c-1 13 -2 27 -2 41c-66 -48 -123 -57 -171 -28zM215 653c-11 -16 -26 -36 -47 -59c-29 -33 -46 -52 -50 -57l-28 3c9 28 36 73 82 136c19 -3 30 -6 35 -8c7 -3 9 -8 8 -15zM338 658c3 5 -32 -37 -103 -125l-23 19c6 19 30 57 73 116l19 8
c7 3 19 -3 34 -18z" />
    <glyph glyph-name="Uogonek" unicode="&#x172;" horiz-adv-x="357" 
d="M305 666c-2 -23 -3 -58 -2 -105c1 -49 0 -85 -1 -108c-2 -52 -2 -81 0 -87c-3 -26 -3 -67 0 -124c2 -60 2 -104 0 -131c-3 -12 -4 -21 -4 -26v-21c1 -8 0 -14 -1 -18c-6 -16 -23 -29 -50 -39c-9 -3 -17 -4 -22 -5c-35 -17 -55 -38 -60 -63c-5 -24 3 -39 24 -45
c31 2 52 4 63 7c14 -3 21 -10 21 -21l-98 -19c-28 5 -46 18 -53 38c-15 38 5 72 62 101l-19 2c-28 3 -45 6 -52 9c-5 1 -15 11 -30 28c-14 18 -21 28 -22 31c-7 18 -9 35 -8 50s2 36 1 64c-1 31 -1 53 0 67c1 32 0 76 -1 131c-1 66 -2 110 -2 132l-1 127c0 30 2 47 6 52
c15 3 31 0 48 -11c-3 -47 -4 -112 -2 -195c2 -106 3 -174 2 -205c-2 -101 -2 -159 1 -173c7 -22 18 -37 32 -44c17 -9 47 -14 91 -15l20 18c4 84 6 186 6 306c0 144 -2 249 -7 315c9 9 20 9 35 1c13 -8 20 -16 23 -24z" />
    <glyph glyph-name="Ydieresis" unicode="&#x178;" horiz-adv-x="349" 
d="M296 689c2 -2 3 -6 3 -12c0 -9 -2 -19 -6 -28c-13 -33 -27 -89 -43 -168s-30 -135 -43 -168l-9 -16c-1 -6 -1 -16 -1 -29c0 -21 1 -53 2 -96s2 -74 2 -92c0 -45 -1 -69 -2 -70c-19 -7 -33 -9 -40 -6s-10 33 -10 90l2 156c0 26 -2 45 -6 57c-3 7 -31 113 -84 316
c-7 26 -11 44 -11 55c0 7 11 12 33 17c14 0 23 -22 28 -67l60 -257l11 8c15 50 32 124 49 221c11 65 22 97 33 97c9 0 19 -3 32 -8zM250 739c-15 -6 -31 -6 -47 -1c-5 31 -4 50 3 58c31 7 47 8 49 2c7 -16 5 -36 -5 -59zM139 739c-15 -6 -31 -6 -47 -1c-5 31 -4 50 3 58
c31 7 47 8 49 2c7 -16 5 -36 -5 -59z" />
    <glyph glyph-name="Zacute" unicode="&#x179;" horiz-adv-x="357" 
d="M280 695l23 -45l-15 -45c-11 -31 -26 -72 -47 -122c-25 -62 -41 -102 -48 -120c-50 -131 -80 -224 -90 -277l25 -36c51 -12 106 -9 166 9c11 -9 13 -24 7 -44c-17 -9 -60 -13 -130 -13c-57 0 -89 1 -94 2l-27 67c6 60 28 140 67 240c31 77 47 115 46 112l87 195
c1 3 -1 10 -7 19s-9 15 -8 18c-67 -1 -107 -4 -120 -9c-19 -7 -35 -10 -47 -7l-14 36c7 13 44 21 109 26c63 4 102 2 117 -6zM283 861c3 5 -32 -37 -103 -125c-8 1 -17 3 -28 7c8 25 34 67 78 128l19 8c13 -3 25 -9 34 -18z" />
    <glyph glyph-name="zacute" unicode="&#x17a;" horiz-adv-x="359" 
d="M281 497l24 -35c-1 -5 -3 -11 -8 -20l-6 -12c-11 -21 -30 -57 -59 -108l-53 -97c-37 -65 -60 -119 -71 -161l23 -22c20 -3 40 -5 61 -5c34 0 68 3 103 10c11 -7 15 -18 10 -31c0 -2 -1 -4 -3 -6c-16 -6 -54 -9 -114 -9h-30c-45 0 -72 1 -81 2l-27 49c5 44 27 101 66 171
l17 28c0 -1 9 14 26 43c21 35 50 82 86 143c-3 11 -8 18 -15 21h-25c-35 0 -65 -2 -89 -6c-21 -5 -38 -7 -51 -6c-7 1 -11 13 -12 34c12 15 65 22 160 22c38 0 61 -2 68 -5zM271 658c3 5 -32 -37 -103 -125c-8 1 -17 3 -28 7c8 25 34 67 78 128l19 8c13 -3 25 -9 34 -18z
" />
    <glyph glyph-name="Zdotaccent" unicode="&#x17b;" horiz-adv-x="357" 
d="M280 695l23 -45l-15 -45c-11 -31 -26 -72 -47 -122c-25 -62 -41 -102 -48 -120c-50 -131 -80 -224 -90 -277l25 -36c51 -12 106 -9 166 9c11 -9 13 -24 7 -44c-17 -9 -60 -13 -130 -13c-57 0 -89 1 -94 2l-27 67c6 60 28 140 67 240c31 77 47 115 46 112l87 195
c1 3 -1 10 -7 19s-9 15 -8 18c-67 -1 -107 -4 -120 -9c-19 -7 -35 -10 -47 -7l-14 36c7 13 44 21 109 26c63 4 102 2 117 -6zM207 741c-15 -6 -31 -6 -47 -1c-5 31 -4 50 3 58c31 7 47 8 49 2c7 -16 5 -36 -5 -59z" />
    <glyph glyph-name="zdotaccent" unicode="&#x17c;" horiz-adv-x="359" 
d="M281 497l24 -35c-1 -5 -3 -11 -8 -20l-6 -12c-11 -21 -30 -57 -59 -108l-53 -97c-37 -65 -60 -119 -71 -161l23 -22c20 -3 40 -5 61 -5c34 0 68 3 103 10c11 -7 15 -18 10 -31c0 -2 -1 -4 -3 -6c-16 -6 -54 -9 -114 -9h-30c-45 0 -72 1 -81 2l-27 49c5 44 27 101 66 171
l17 28c0 -1 9 14 26 43c21 35 50 82 86 143c-3 11 -8 18 -15 21h-25c-35 0 -65 -2 -89 -6c-21 -5 -38 -7 -51 -6c-7 1 -11 13 -12 34c12 15 65 22 160 22c38 0 61 -2 68 -5zM207 542c-15 -6 -31 -6 -47 -1c-5 31 -4 50 3 58c31 7 47 8 49 2c7 -16 5 -36 -5 -59z" />
    <glyph glyph-name="Zcaron" unicode="&#x17d;" horiz-adv-x="357" 
d="M280 695l23 -45l-15 -45c-11 -31 -26 -72 -47 -122c-25 -62 -41 -102 -48 -120c-50 -131 -80 -224 -90 -277l25 -36c51 -12 106 -9 166 9c11 -9 13 -24 7 -44c-17 -9 -60 -13 -130 -13c-57 0 -89 1 -94 2l-27 67c6 60 28 140 67 240c31 77 47 115 46 112l87 195
c1 3 -1 10 -7 19s-9 15 -8 18c-67 -1 -107 -4 -120 -9c-19 -7 -35 -10 -47 -7l-14 36c7 13 44 21 109 26c63 4 102 2 117 -6zM286 838c-2 -9 -10 -19 -24 -32l-65 -66l-30 -5c-39 40 -64 75 -77 105c3 0 7 1 13 3c5 2 10 3 15 3c23 -27 44 -48 61 -63c36 33 64 57 84 70
c10 -5 18 -10 23 -15z" />
    <glyph glyph-name="zcaron" unicode="&#x17e;" horiz-adv-x="359" 
d="M281 497l24 -35c-1 -5 -3 -11 -8 -20l-6 -12c-11 -21 -30 -57 -59 -108l-53 -97c-37 -65 -60 -119 -71 -161l23 -22c20 -3 40 -5 61 -5c34 0 68 3 103 10c11 -7 15 -18 10 -31c0 -2 -1 -4 -3 -6c-16 -6 -54 -9 -114 -9h-30c-45 0 -72 1 -81 2l-27 49c5 44 27 101 66 171
l17 28c0 -1 9 14 26 43c21 35 50 82 86 143c-3 11 -8 18 -15 21h-25c-35 0 -65 -2 -89 -6c-21 -5 -38 -7 -51 -6c-7 1 -11 13 -12 34c12 15 65 22 160 22c38 0 61 -2 68 -5zM277 637c-2 -9 -10 -19 -24 -32l-65 -66l-30 -5c-39 40 -64 75 -77 105c3 0 7 1 13 3
c5 2 10 3 15 3c23 -27 44 -48 61 -63c36 33 64 57 84 70c10 -5 18 -10 23 -15z" />
    <glyph glyph-name="florin" unicode="&#x192;" horiz-adv-x="334" 
d="M146 -69h-4c-29 -18 -55 -28 -80 -29c-11 12 -14 25 -11 40c24 5 44 14 61 29c19 16 30 53 32 111l1 130c1 57 1 101 0 132c-1 6 -1 15 -1 28c-15 -1 -28 -1 -40 -1l-12 12c-1 0 -1 13 -1 40c0 -1 17 -2 52 -2l1 19c1 16 1 40 1 73c-1 62 4 104 16 127
c18 33 57 53 117 61c3 4 4 -1 5 -16c1 -14 -1 -23 -5 -27c-35 -8 -59 -22 -70 -42c-11 -19 -15 -49 -14 -92v-103c24 0 43 0 57 1c6 1 9 -6 10 -23s0 -26 -5 -27l-45 3c-5 0 -10 0 -16 -1c1 -181 0 -293 -5 -336c-5 -52 -19 -88 -44 -107z" />
    <glyph glyph-name="Ohorn" unicode="&#x1a0;" horiz-adv-x="352" 
d="M97 531c3 -46 2 -98 -1 -155c-1 -23 -1 -53 2 -89c3 -41 5 -69 5 -84c0 -63 1 -102 4 -117c7 -34 29 -48 64 -43c42 4 70 23 84 58c-7 164 -6 336 4 515c-9 25 -35 36 -80 34c-46 -3 -73 -20 -80 -51c-3 -17 -3 -39 -2 -68zM297 639c2 -29 2 -68 1 -116
c-2 -51 -2 -94 1 -129c1 -21 1 -48 0 -82c-1 -41 -2 -68 -2 -81l-1 -77c0 -5 1 -18 3 -38c1 -16 1 -28 0 -37c1 5 -6 -9 -19 -43c-3 -1 -10 -6 -19 -15c-9 -8 -17 -13 -24 -15c-55 -17 -99 -18 -132 -3c-13 6 -30 26 -51 60c-1 14 -1 45 -1 94c-1 39 -2 72 -3 99s0 69 1 128
c1 53 1 95 -1 125c0 67 2 107 6 119c3 15 16 30 39 43c18 13 47 24 86 34c13 3 36 -1 68 -12c5 -2 10 -6 17 -13c13 -2 22 -1 28 4c13 17 15 40 4 67c9 7 20 6 31 -4c19 -26 22 -51 10 -74c-9 -19 -23 -30 -42 -34z" />
    <glyph glyph-name="ohorn" unicode="&#x1a1;" horiz-adv-x="353" 
d="M107 203l5 -117c7 -34 29 -48 64 -43c27 3 44 5 51 8c12 5 22 18 30 39c1 19 1 129 1 328c-9 25 -34 36 -77 33s-69 -20 -77 -51c-2 -18 -1 -84 3 -197zM301 447c1 0 1 0 1 -1c1 -8 2 -25 2 -52c1 -21 2 -49 2 -82l-1 -81c0 -97 0 -147 -1 -152c1 5 -6 -9 -19 -43
c-3 -1 -10 -6 -19 -15c-9 -8 -17 -13 -24 -15c-55 -17 -99 -18 -132 -3c-13 6 -30 26 -51 60c-1 14 -1 45 -1 94c-1 39 -2 72 -3 99v54c-8 47 -7 86 4 117c3 16 16 31 41 45c18 13 47 24 86 34c13 3 36 -1 68 -12c1 -1 2 -1 3 -1c21 -6 36 -6 44 0c13 17 15 40 4 67
c9 7 20 6 31 -4c19 -26 22 -51 10 -74c-10 -20 -25 -32 -45 -35z" />
    <glyph glyph-name="Uhorn" unicode="&#x1af;" horiz-adv-x="357" 
d="M303 639c-1 -21 -1 -47 0 -78c1 -49 0 -85 -1 -108c-2 -52 -2 -81 0 -87c-3 -26 -3 -67 0 -124c2 -60 2 -104 0 -131c-3 -12 -4 -21 -4 -26v-21c1 -8 0 -14 -1 -18c-6 -16 -23 -29 -50 -39c-25 -7 -52 -9 -82 -5c-28 3 -45 6 -52 9c-5 1 -15 11 -30 28
c-14 18 -21 28 -22 31c-7 18 -9 35 -8 50s2 36 1 64c-1 31 -1 53 0 67c1 32 0 76 -1 131c-1 66 -2 110 -2 132l-1 127c0 30 2 47 6 52c15 3 31 0 48 -11c-3 -47 -4 -112 -2 -195c2 -106 3 -174 2 -205c-2 -101 -2 -159 1 -173c7 -22 18 -37 32 -44c17 -9 47 -14 91 -15
l20 18c4 84 6 186 6 306c0 144 -2 249 -7 315c9 9 20 9 35 1c5 -3 10 -7 13 -10c13 -2 22 -1 28 4c13 17 15 40 4 67c9 7 20 6 31 -4c19 -26 22 -51 10 -74c-10 -20 -25 -32 -45 -35c-7 -1 -13 -1 -20 1z" />
    <glyph glyph-name="uhorn" unicode="&#x1b0;" horiz-adv-x="360" 
d="M309 449c1 -37 2 -81 1 -134c-1 -89 -2 -148 -1 -179v-121c-14 -17 -29 -21 -46 -12c-1 13 -2 27 -2 41c-66 -48 -123 -57 -171 -28l-35 42c0 248 -2 392 -5 433c21 15 38 17 53 8c7 -26 9 -75 5 -147c0 -19 -2 -67 -5 -142l3 -139c44 -31 96 -24 155 19l3 60l-2 78v137
c0 11 -1 31 -4 60c-3 28 -4 49 -3 62c5 5 14 8 26 9c13 1 21 0 26 -5v-1c8 -5 21 -2 38 8c10 18 5 38 -16 61c13 9 25 8 36 -2c19 -26 22 -51 10 -74c-10 -20 -25 -32 -45 -35c-7 -1 -14 -1 -21 1z" />
    <glyph glyph-name="circumflex" unicode="&#x2c6;" horiz-adv-x="296" 
d="M246 599l-24 -11c-48 33 -76 52 -83 59c-31 -27 -53 -48 -68 -65c-4 0 -8 2 -11 7s-7 8 -10 8c13 30 38 65 77 105l30 -5l65 -66c14 -13 22 -23 24 -32z" />
    <glyph glyph-name="caron" unicode="&#x2c7;" horiz-adv-x="296" 
d="M246 685c-2 -9 -10 -19 -24 -32l-65 -66l-30 -5c-39 40 -64 75 -77 105c3 0 7 1 13 3c5 2 10 3 15 3c23 -27 44 -48 61 -63c36 33 64 57 84 70c10 -5 18 -10 23 -15z" />
    <glyph glyph-name="breve" unicode="&#x2d8;" horiz-adv-x="289" 
d="M239 671c-13 -31 -23 -50 -30 -57c-17 -18 -44 -26 -82 -25c-39 8 -65 41 -77 98c2 6 11 9 26 9c1 -11 9 -24 22 -39c14 -16 27 -24 40 -25c26 -2 45 4 57 17c5 6 12 21 21 44c15 2 23 -5 23 -22z" />
    <glyph glyph-name="dotaccent" unicode="&#x2d9;" horiz-adv-x="159" 
d="M100 638c-15 -6 -31 -6 -47 -1c-5 31 -4 50 3 58c31 7 47 8 49 2c7 -16 5 -36 -5 -59z" />
    <glyph glyph-name="ring" unicode="&#x2da;" horiz-adv-x="218" 
d="M163 693c7 -37 6 -74 -3 -110c-13 -11 -30 -16 -52 -16s-41 5 -56 14c-4 43 -2 78 6 103c10 8 28 13 53 14c24 1 41 0 52 -5zM86 659c-8 -18 -8 -37 0 -57c21 -6 36 -4 47 5c5 19 5 38 0 58c-22 5 -38 3 -47 -6z" />
    <glyph glyph-name="ogonek" unicode="&#x2db;" horiz-adv-x="256" 
d="M143 0h41c-47 -15 -75 -38 -85 -68c-9 -27 -1 -44 23 -51c31 2 52 4 63 7c14 -3 21 -10 21 -21l-98 -19c-28 5 -46 18 -53 38c-17 43 12 81 88 114z" />
    <glyph glyph-name="tilde" unicode="&#x2dc;" horiz-adv-x="342" 
d="M131 314l-70 -21c-11 9 -14 21 -9 38l67 32c18 -1 37 -6 58 -15c26 -11 40 -16 41 -16l60 24c15 -19 17 -32 6 -40l-67 -31z" />
    <glyph glyph-name="hungarumlaut" unicode="&#x2dd;" horiz-adv-x="348" 
d="M175 679c-11 -16 -26 -36 -47 -59c-29 -33 -46 -52 -50 -57l-28 3c9 28 36 73 82 136c19 -3 30 -6 35 -8c7 -3 9 -8 8 -15zM298 684c3 5 -32 -37 -103 -125l-23 19c6 19 30 57 73 116l19 8c7 3 19 -3 34 -18z" />
    <glyph glyph-name="gravecomb" unicode="&#x300;" horiz-adv-x="0" 
d="M-338 684c9 9 21 15 34 18l19 -8c44 -61 70 -103 78 -128c-11 -4 -20 -6 -28 -7c-71 88 -106 130 -103 125z" />
    <glyph glyph-name="acutecomb" unicode="&#x301;" horiz-adv-x="0" 
d="M-196 684c3 5 -32 -37 -103 -125c-8 1 -17 3 -28 7c8 25 34 67 78 128l19 8c13 -3 25 -9 34 -18z" />
    <glyph glyph-name="tildecomb" unicode="&#x303;" horiz-adv-x="0" 
d="M-285 314l-70 -21c-11 9 -14 21 -9 38l67 32c18 -1 37 -6 58 -15c26 -11 40 -16 41 -16l60 24c15 -19 17 -32 6 -40l-67 -31z" />
    <glyph glyph-name="hookabovecomb" unicode="&#x309;" horiz-adv-x="16" 
d="M14 569l-48 4c33 18 51 32 56 43c7 15 4 24 -9 28c-19 -5 -34 -8 -43 -10c-13 3 -20 14 -22 31c37 21 65 27 84 18s31 -21 36 -38c6 -31 -12 -56 -54 -76z" />
    <glyph glyph-name="uni031B" unicode="&#x31b;" horiz-adv-x="0" 
 />
    <glyph glyph-name="dotbelowcomb" unicode="&#x323;" horiz-adv-x="0" 
d="M-218 -160c-15 -6 -31 -6 -47 -1c-5 31 -4 50 3 58c31 7 47 8 49 2c7 -17 5 -36 -5 -59z" />
    <glyph glyph-name="uni1EA0" unicode="&#x1ea0;" horiz-adv-x="345" 
d="M204 698c8 -33 15 -86 21 -159c7 -83 13 -137 18 -163c11 -63 16 -89 15 -79c21 -191 33 -286 36 -283c-1 -13 -18 -16 -53 -11c-1 3 -2 16 -4 38l-7 69c-8 69 -16 122 -24 158c-7 1 -22 1 -44 0l-42 -3c-8 -68 -13 -111 -14 -129c-3 -29 -4 -69 -4 -119
c0 -8 -7 -12 -20 -11l-32 1c14 175 28 317 43 427c24 176 35 262 33 258c29 11 55 13 78 6zM130 314l68 5c0 25 -3 78 -10 158c-7 84 -11 137 -12 160c-1 3 -4 5 -9 4s-9 -4 -10 -7c-3 -20 -7 -66 -12 -138c-5 -79 -10 -139 -15 -182zM193 -160c-15 -6 -31 -6 -47 -1
c-5 31 -4 50 3 58c31 7 47 8 49 2c7 -17 5 -36 -5 -59z" />
    <glyph glyph-name="uni1EA1" unicode="&#x1ea1;" horiz-adv-x="364" 
d="M67 402v53c0 12 18 23 54 34c35 10 72 15 111 15c26 0 41 -1 46 -2c17 -3 27 -13 30 -29l-2 -235c0 -85 3 -162 8 -229c-9 -7 -23 -11 -41 -11c-11 0 -17 14 -18 41c-37 -28 -73 -42 -110 -42c-18 0 -38 4 -60 11c-23 15 -35 56 -35 121c0 77 13 122 38 136
c5 3 37 12 94 27c43 11 69 26 79 44l-6 109c-11 7 -29 10 -55 10c-50 0 -82 -9 -95 -26v-36c-2 -7 -6 -10 -13 -10c-17 0 -25 6 -25 19zM256 148c0 11 2 54 7 131c-9 -11 -31 -21 -67 -32c-39 -11 -63 -20 -72 -27c-17 -12 -26 -44 -26 -97c0 -49 9 -77 26 -84
c52 0 95 15 130 45c0 27 1 48 2 64zM203 -160c-15 -6 -31 -6 -47 -1c-5 31 -4 50 3 58c31 7 47 8 49 2c7 -17 5 -36 -5 -59z" />
    <glyph glyph-name="uni1EA2" unicode="&#x1ea2;" horiz-adv-x="345" 
d="M204 698c8 -33 15 -86 21 -159c7 -83 13 -137 18 -163c11 -63 16 -89 15 -79c21 -191 33 -286 36 -283c-1 -13 -18 -16 -53 -11c-1 3 -2 16 -4 38l-7 69c-8 69 -16 122 -24 158c-7 1 -22 1 -44 0l-42 -3c-8 -68 -13 -111 -14 -129c-3 -29 -4 -69 -4 -119
c0 -8 -7 -12 -20 -11l-32 1c14 175 28 317 43 427c24 176 35 262 33 258c29 11 55 13 78 6zM130 314l68 5c0 25 -3 78 -10 158c-7 84 -11 137 -12 160c-1 3 -4 5 -9 4s-9 -4 -10 -7c-3 -20 -7 -66 -12 -138c-5 -79 -10 -139 -15 -182zM178 765l-48 4c33 18 51 32 56 43
c7 15 4 24 -9 28c-19 -5 -34 -8 -43 -10c-13 3 -20 14 -22 31c37 21 65 27 84 18s31 -21 36 -38c6 -31 -12 -56 -54 -76z" />
    <glyph glyph-name="uni1EA3" unicode="&#x1ea3;" horiz-adv-x="364" 
d="M67 402v53c0 12 18 23 54 34c35 10 72 15 111 15c26 0 41 -1 46 -2c17 -3 27 -13 30 -29l-2 -235c0 -85 3 -162 8 -229c-9 -7 -23 -11 -41 -11c-11 0 -17 14 -18 41c-37 -28 -73 -42 -110 -42c-18 0 -38 4 -60 11c-23 15 -35 56 -35 121c0 77 13 122 38 136
c5 3 37 12 94 27c43 11 69 26 79 44l-6 109c-11 7 -29 10 -55 10c-50 0 -82 -9 -95 -26v-36c-2 -7 -6 -10 -13 -10c-17 0 -25 6 -25 19zM256 148c0 11 2 54 7 131c-9 -11 -31 -21 -67 -32c-39 -11 -63 -20 -72 -27c-17 -12 -26 -44 -26 -97c0 -49 9 -77 26 -84
c52 0 95 15 130 45c0 27 1 48 2 64zM188 569l-48 4c33 18 51 32 56 43c7 15 4 24 -9 28c-19 -5 -34 -8 -43 -10c-13 3 -20 14 -22 31c37 21 65 27 84 18s31 -21 36 -38c6 -31 -12 -56 -54 -76z" />
    <glyph glyph-name="uni1EA4" unicode="&#x1ea4;" horiz-adv-x="345" 
d="M204 698c8 -33 15 -86 21 -159c7 -83 13 -137 18 -163c11 -63 16 -89 15 -79c21 -191 33 -286 36 -283c-1 -13 -18 -16 -53 -11c-1 3 -2 16 -4 38l-7 69c-8 69 -16 122 -24 158c-7 1 -22 1 -44 0l-42 -3c-8 -68 -13 -111 -14 -129c-3 -29 -4 -69 -4 -119
c0 -8 -7 -12 -20 -11l-32 1c14 175 28 317 43 427c24 176 35 262 33 258c29 11 55 13 78 6zM130 314l68 5c0 25 -3 78 -10 158c-7 84 -11 137 -12 160c-1 3 -4 5 -9 4s-9 -4 -10 -7c-3 -20 -7 -66 -12 -138c-5 -79 -10 -139 -15 -182zM261 752l-24 -11c-48 33 -76 52 -83 59
c-31 -27 -53 -48 -68 -65c-4 0 -8 2 -11 7s-7 8 -10 8c13 30 38 65 77 105l30 -5l65 -66c14 -13 22 -23 24 -32zM368 947c3 5 -32 -37 -103 -125c-8 1 -17 3 -28 7c8 25 34 67 78 128l19 8c13 -3 25 -9 34 -18z" />
    <glyph glyph-name="uni1EA5" unicode="&#x1ea5;" horiz-adv-x="364" 
d="M67 402v53c0 12 18 23 54 34c35 10 72 15 111 15c26 0 41 -1 46 -2c17 -3 27 -13 30 -29l-2 -235c0 -85 3 -162 8 -229c-9 -7 -23 -11 -41 -11c-11 0 -17 14 -18 41c-37 -28 -73 -42 -110 -42c-18 0 -38 4 -60 11c-23 15 -35 56 -35 121c0 77 13 122 38 136
c5 3 37 12 94 27c43 11 69 26 79 44l-6 109c-11 7 -29 10 -55 10c-50 0 -82 -9 -95 -26v-36c-2 -7 -6 -10 -13 -10c-17 0 -25 6 -25 19zM256 148c0 11 2 54 7 131c-9 -11 -31 -21 -67 -32c-39 -11 -63 -20 -72 -27c-17 -12 -26 -44 -26 -97c0 -49 9 -77 26 -84
c52 0 95 15 130 45c0 27 1 48 2 64zM288 549l-24 -11c-48 33 -76 52 -83 59c-31 -27 -53 -48 -68 -65c-4 0 -8 2 -11 7s-7 8 -10 8c13 30 38 65 77 105l30 -5l65 -66c14 -13 22 -23 24 -32zM390 760c3 5 -32 -37 -103 -125c-8 1 -17 3 -28 7c8 25 34 67 78 128l19 8
c13 -3 25 -9 34 -18z" />
    <glyph glyph-name="uni1EA6" unicode="&#x1ea6;" horiz-adv-x="345" 
d="M204 698c8 -33 15 -86 21 -159c7 -83 13 -137 18 -163c11 -63 16 -89 15 -79c21 -191 33 -286 36 -283c-1 -13 -18 -16 -53 -11c-1 3 -2 16 -4 38l-7 69c-8 69 -16 122 -24 158c-7 1 -22 1 -44 0l-42 -3c-8 -68 -13 -111 -14 -129c-3 -29 -4 -69 -4 -119
c0 -8 -7 -12 -20 -11l-32 1c14 175 28 317 43 427c24 176 35 262 33 258c29 11 55 13 78 6zM130 314l68 5c0 25 -3 78 -10 158c-7 84 -11 137 -12 160c-1 3 -4 5 -9 4s-9 -4 -10 -7c-3 -20 -7 -66 -12 -138c-5 -79 -10 -139 -15 -182zM261 752l-24 -11c-48 33 -76 52 -83 59
c-31 -27 -53 -48 -68 -65c-4 0 -8 2 -11 7s-7 8 -10 8c13 30 38 65 77 105l30 -5l65 -66c14 -13 22 -23 24 -32zM128 986c9 9 21 15 34 18l19 -8c44 -61 70 -103 78 -128c-11 -4 -20 -6 -28 -7c-71 88 -106 130 -103 125z" />
    <glyph glyph-name="uni1EA7" unicode="&#x1ea7;" horiz-adv-x="364" 
d="M67 402v53c0 12 18 23 54 34c35 10 72 15 111 15c26 0 41 -1 46 -2c17 -3 27 -13 30 -29l-2 -235c0 -85 3 -162 8 -229c-9 -7 -23 -11 -41 -11c-11 0 -17 14 -18 41c-37 -28 -73 -42 -110 -42c-18 0 -38 4 -60 11c-23 15 -35 56 -35 121c0 77 13 122 38 136
c5 3 37 12 94 27c43 11 69 26 79 44l-6 109c-11 7 -29 10 -55 10c-50 0 -82 -9 -95 -26v-36c-2 -7 -6 -10 -13 -10c-17 0 -25 6 -25 19zM256 148c0 11 2 54 7 131c-9 -11 -31 -21 -67 -32c-39 -11 -63 -20 -72 -27c-17 -12 -26 -44 -26 -97c0 -49 9 -77 26 -84
c52 0 95 15 130 45c0 27 1 48 2 64zM288 549l-24 -11c-48 33 -76 52 -83 59c-31 -27 -53 -48 -68 -65c-4 0 -8 2 -11 7s-7 8 -10 8c13 30 38 65 77 105l30 -5l65 -66c14 -13 22 -23 24 -32zM167 779c9 9 21 15 34 18l19 -8c44 -61 70 -103 78 -128c-11 -4 -20 -6 -28 -7
c-71 88 -106 130 -103 125z" />
    <glyph glyph-name="uni1EA8" unicode="&#x1ea8;" horiz-adv-x="345" 
d="M204 698c8 -33 15 -86 21 -159c7 -83 13 -137 18 -163c11 -63 16 -89 15 -79c21 -191 33 -286 36 -283c-1 -13 -18 -16 -53 -11c-1 3 -2 16 -4 38l-7 69c-8 69 -16 122 -24 158c-7 1 -22 1 -44 0l-42 -3c-8 -68 -13 -111 -14 -129c-3 -29 -4 -69 -4 -119
c0 -8 -7 -12 -20 -11l-32 1c14 175 28 317 43 427c24 176 35 262 33 258c29 11 55 13 78 6zM130 314l68 5c0 25 -3 78 -10 158c-7 84 -11 137 -12 160c-1 3 -4 5 -9 4s-9 -4 -10 -7c-3 -20 -7 -66 -12 -138c-5 -79 -10 -139 -15 -182zM261 752l-24 -11c-48 33 -76 52 -83 59
c-31 -27 -53 -48 -68 -65c-4 0 -8 2 -11 7s-7 8 -10 8c13 30 38 65 77 105l30 -5l65 -66c14 -13 22 -23 24 -32zM281 831l-48 4c33 18 51 32 56 43c7 15 4 24 -9 28c-19 -5 -34 -8 -43 -10c-13 3 -20 14 -22 31c37 21 65 27 84 18s31 -21 36 -38c6 -31 -12 -56 -54 -76z" />
    <glyph glyph-name="uni1EA9" unicode="&#x1ea9;" horiz-adv-x="364" 
d="M67 402v53c0 12 18 23 54 34c35 10 72 15 111 15c26 0 41 -1 46 -2c17 -3 27 -13 30 -29l-2 -235c0 -85 3 -162 8 -229c-9 -7 -23 -11 -41 -11c-11 0 -17 14 -18 41c-37 -28 -73 -42 -110 -42c-18 0 -38 4 -60 11c-23 15 -35 56 -35 121c0 77 13 122 38 136
c5 3 37 12 94 27c43 11 69 26 79 44l-6 109c-11 7 -29 10 -55 10c-50 0 -82 -9 -95 -26v-36c-2 -7 -6 -10 -13 -10c-17 0 -25 6 -25 19zM256 148c0 11 2 54 7 131c-9 -11 -31 -21 -67 -32c-39 -11 -63 -20 -72 -27c-17 -12 -26 -44 -26 -97c0 -49 9 -77 26 -84
c52 0 95 15 130 45c0 27 1 48 2 64zM288 549l-24 -11c-48 33 -76 52 -83 59c-31 -27 -53 -48 -68 -65c-4 0 -8 2 -11 7s-7 8 -10 8c13 30 38 65 77 105l30 -5l65 -66c14 -13 22 -23 24 -32zM296 634l-48 4c33 18 51 32 56 43c7 15 4 24 -9 28c-19 -5 -34 -8 -43 -10
c-13 3 -20 14 -22 31c37 21 65 27 84 18s31 -21 36 -38c6 -31 -12 -56 -54 -76z" />
    <glyph glyph-name="uni1EAA" unicode="&#x1eaa;" horiz-adv-x="345" 
d="M204 698c8 -33 15 -86 21 -159c7 -83 13 -137 18 -163c11 -63 16 -89 15 -79c21 -191 33 -286 36 -283c-1 -13 -18 -16 -53 -11c-1 3 -2 16 -4 38l-7 69c-8 69 -16 122 -24 158c-7 1 -22 1 -44 0l-42 -3c-8 -68 -13 -111 -14 -129c-3 -29 -4 -69 -4 -119
c0 -8 -7 -12 -20 -11l-32 1c14 175 28 317 43 427c24 176 35 262 33 258c29 11 55 13 78 6zM130 314l68 5c0 25 -3 78 -10 158c-7 84 -11 137 -12 160c-1 3 -4 5 -9 4s-9 -4 -10 -7c-3 -20 -7 -66 -12 -138c-5 -79 -10 -139 -15 -182zM261 752l-24 -11c-48 33 -76 52 -83 59
c-31 -27 -53 -48 -68 -65c-4 0 -8 2 -11 7s-7 8 -10 8c13 30 38 65 77 105l30 -5l65 -66c14 -13 22 -23 24 -32zM146 909l-70 -21c-11 9 -14 21 -9 38l67 32c18 -1 37 -6 58 -15c26 -11 40 -16 41 -16l60 24c15 -19 17 -32 6 -40l-67 -31z" />
    <glyph glyph-name="uni1EAB" unicode="&#x1eab;" horiz-adv-x="364" 
d="M67 402v53c0 12 18 23 54 34c35 10 72 15 111 15c26 0 41 -1 46 -2c17 -3 27 -13 30 -29l-2 -235c0 -85 3 -162 8 -229c-9 -7 -23 -11 -41 -11c-11 0 -17 14 -18 41c-37 -28 -73 -42 -110 -42c-18 0 -38 4 -60 11c-23 15 -35 56 -35 121c0 77 13 122 38 136
c5 3 37 12 94 27c43 11 69 26 79 44l-6 109c-11 7 -29 10 -55 10c-50 0 -82 -9 -95 -26v-36c-2 -7 -6 -10 -13 -10c-17 0 -25 6 -25 19zM256 148c0 11 2 54 7 131c-9 -11 -31 -21 -67 -32c-39 -11 -63 -20 -72 -27c-17 -12 -26 -44 -26 -97c0 -49 9 -77 26 -84
c52 0 95 15 130 45c0 27 1 48 2 64zM288 549l-24 -11c-48 33 -76 52 -83 59c-31 -27 -53 -48 -68 -65c-4 0 -8 2 -11 7s-7 8 -10 8c13 30 38 65 77 105l30 -5l65 -66c14 -13 22 -23 24 -32zM177 698l-70 -21c-11 9 -14 21 -9 38l67 32c18 -1 37 -6 58 -15
c26 -11 40 -16 41 -16l60 24c15 -19 17 -32 6 -40l-67 -31z" />
    <glyph glyph-name="uni1EAC" unicode="&#x1eac;" horiz-adv-x="345" 
d="M204 698c8 -33 15 -86 21 -159c7 -83 13 -137 18 -163c11 -63 16 -89 15 -79c21 -191 33 -286 36 -283c-1 -13 -18 -16 -53 -11c-1 3 -2 16 -4 38l-7 69c-8 69 -16 122 -24 158c-7 1 -22 1 -44 0l-42 -3c-8 -68 -13 -111 -14 -129c-3 -29 -4 -69 -4 -119
c0 -8 -7 -12 -20 -11l-32 1c14 175 28 317 43 427c24 176 35 262 33 258c29 11 55 13 78 6zM130 314l68 5c0 25 -3 78 -10 158c-7 84 -11 137 -12 160c-1 3 -4 5 -9 4s-9 -4 -10 -7c-3 -20 -7 -66 -12 -138c-5 -79 -10 -139 -15 -182zM261 752l-24 -11c-48 33 -76 52 -83 59
c-31 -27 -53 -48 -68 -65c-4 0 -8 2 -11 7s-7 8 -10 8c13 30 38 65 77 105l30 -5l65 -66c14 -13 22 -23 24 -32zM188 -160c-15 -6 -31 -6 -47 -1c-5 31 -4 50 3 58c31 7 47 8 49 2c7 -17 5 -36 -5 -59z" />
    <glyph glyph-name="uni1EAD" unicode="&#x1ead;" horiz-adv-x="364" 
d="M67 402v53c0 12 18 23 54 34c35 10 72 15 111 15c26 0 41 -1 46 -2c17 -3 27 -13 30 -29l-2 -235c0 -85 3 -162 8 -229c-9 -7 -23 -11 -41 -11c-11 0 -17 14 -18 41c-37 -28 -73 -42 -110 -42c-18 0 -38 4 -60 11c-23 15 -35 56 -35 121c0 77 13 122 38 136
c5 3 37 12 94 27c43 11 69 26 79 44l-6 109c-11 7 -29 10 -55 10c-50 0 -82 -9 -95 -26v-36c-2 -7 -6 -10 -13 -10c-17 0 -25 6 -25 19zM256 148c0 11 2 54 7 131c-9 -11 -31 -21 -67 -32c-39 -11 -63 -20 -72 -27c-17 -12 -26 -44 -26 -97c0 -49 9 -77 26 -84
c52 0 95 15 130 45c0 27 1 48 2 64zM288 549l-24 -11c-48 33 -76 52 -83 59c-31 -27 -53 -48 -68 -65c-4 0 -8 2 -11 7s-7 8 -10 8c13 30 38 65 77 105l30 -5l65 -66c14 -13 22 -23 24 -32zM208 -160c-15 -6 -31 -6 -47 -1c-5 31 -4 50 3 58c31 7 47 8 49 2
c7 -17 5 -36 -5 -59z" />
    <glyph glyph-name="uni1EAE" unicode="&#x1eae;" horiz-adv-x="345" 
d="M204 698c8 -33 15 -86 21 -159c7 -83 13 -137 18 -163c11 -63 16 -89 15 -79c21 -191 33 -286 36 -283c-1 -13 -18 -16 -53 -11c-1 3 -2 16 -4 38l-7 69c-8 69 -16 122 -24 158c-7 1 -22 1 -44 0l-42 -3c-8 -68 -13 -111 -14 -129c-3 -29 -4 -69 -4 -119
c0 -8 -7 -12 -20 -11l-32 1c14 175 28 317 43 427c24 176 35 262 33 258c29 11 55 13 78 6zM130 314l68 5c0 25 -3 78 -10 158c-7 84 -11 137 -12 160c-1 3 -4 5 -9 4s-9 -4 -10 -7c-3 -20 -7 -66 -12 -138c-5 -79 -10 -139 -15 -182zM262 814c-13 -31 -23 -50 -30 -57
c-17 -18 -44 -26 -82 -25c-39 8 -65 41 -77 98c2 6 11 9 26 9c1 -11 9 -24 22 -39c14 -16 27 -24 40 -25c26 -2 45 4 57 17c5 6 12 21 21 44c15 2 23 -5 23 -22zM287 976c3 5 -32 -37 -103 -125c-8 1 -17 3 -28 7c8 25 34 67 78 128l19 8c13 -3 25 -9 34 -18z" />
    <glyph glyph-name="uni1EAF" unicode="&#x1eaf;" horiz-adv-x="364" 
d="M67 402v53c0 12 18 23 54 34c35 10 72 15 111 15c26 0 41 -1 46 -2c17 -3 27 -13 30 -29l-2 -235c0 -85 3 -162 8 -229c-9 -7 -23 -11 -41 -11c-11 0 -17 14 -18 41c-37 -28 -73 -42 -110 -42c-18 0 -38 4 -60 11c-23 15 -35 56 -35 121c0 77 13 122 38 136
c5 3 37 12 94 27c43 11 69 26 79 44l-6 109c-11 7 -29 10 -55 10c-50 0 -82 -9 -95 -26v-36c-2 -7 -6 -10 -13 -10c-17 0 -25 6 -25 19zM256 148c0 11 2 54 7 131c-9 -11 -31 -21 -67 -32c-39 -11 -63 -20 -72 -27c-17 -12 -26 -44 -26 -97c0 -49 9 -77 26 -84
c52 0 95 15 130 45c0 27 1 48 2 64zM288 615c-13 -31 -23 -50 -30 -57c-17 -18 -44 -26 -82 -25c-39 8 -65 41 -77 98c2 6 11 9 26 9c1 -11 9 -24 22 -39c14 -16 27 -24 40 -25c26 -2 45 4 57 17c5 6 12 21 21 44c15 2 23 -5 23 -22zM312 771c3 5 -32 -37 -103 -125
c-8 1 -17 3 -28 7c8 25 34 67 78 128l19 8c13 -3 25 -9 34 -18z" />
    <glyph glyph-name="uni1EB0" unicode="&#x1eb0;" horiz-adv-x="345" 
d="M204 698c8 -33 15 -86 21 -159c7 -83 13 -137 18 -163c11 -63 16 -89 15 -79c21 -191 33 -286 36 -283c-1 -13 -18 -16 -53 -11c-1 3 -2 16 -4 38l-7 69c-8 69 -16 122 -24 158c-7 1 -22 1 -44 0l-42 -3c-8 -68 -13 -111 -14 -129c-3 -29 -4 -69 -4 -119
c0 -8 -7 -12 -20 -11l-32 1c14 175 28 317 43 427c24 176 35 262 33 258c29 11 55 13 78 6zM130 314l68 5c0 25 -3 78 -10 158c-7 84 -11 137 -12 160c-1 3 -4 5 -9 4s-9 -4 -10 -7c-3 -20 -7 -66 -12 -138c-5 -79 -10 -139 -15 -182zM262 814c-13 -31 -23 -50 -30 -57
c-17 -18 -44 -26 -82 -25c-39 8 -65 41 -77 98c2 6 11 9 26 9c1 -11 9 -24 22 -39c14 -16 27 -24 40 -25c26 -2 45 4 57 17c5 6 12 21 21 44c15 2 23 -5 23 -22zM54 965c9 9 21 15 34 18l19 -8c44 -61 70 -103 78 -128c-11 -4 -20 -6 -28 -7c-71 88 -106 130 -103 125z" />
    <glyph glyph-name="uni1EB1" unicode="&#x1eb1;" horiz-adv-x="364" 
d="M67 402v53c0 12 18 23 54 34c35 10 72 15 111 15c26 0 41 -1 46 -2c17 -3 27 -13 30 -29l-2 -235c0 -85 3 -162 8 -229c-9 -7 -23 -11 -41 -11c-11 0 -17 14 -18 41c-37 -28 -73 -42 -110 -42c-18 0 -38 4 -60 11c-23 15 -35 56 -35 121c0 77 13 122 38 136
c5 3 37 12 94 27c43 11 69 26 79 44l-6 109c-11 7 -29 10 -55 10c-50 0 -82 -9 -95 -26v-36c-2 -7 -6 -10 -13 -10c-17 0 -25 6 -25 19zM256 148c0 11 2 54 7 131c-9 -11 -31 -21 -67 -32c-39 -11 -63 -20 -72 -27c-17 -12 -26 -44 -26 -97c0 -49 9 -77 26 -84
c52 0 95 15 130 45c0 27 1 48 2 64zM288 615c-13 -31 -23 -50 -30 -57c-17 -18 -44 -26 -82 -25c-39 8 -65 41 -77 98c2 6 11 9 26 9c1 -11 9 -24 22 -39c14 -16 27 -24 40 -25c26 -2 45 4 57 17c5 6 12 21 21 44c15 2 23 -5 23 -22zM91 779c9 9 21 15 34 18l19 -8
c44 -61 70 -103 78 -128c-11 -4 -20 -6 -28 -7c-71 88 -106 130 -103 125z" />
    <glyph glyph-name="uni1EB2" unicode="&#x1eb2;" horiz-adv-x="345" 
d="M204 698c8 -33 15 -86 21 -159c7 -83 13 -137 18 -163c11 -63 16 -89 15 -79c21 -191 33 -286 36 -283c-1 -13 -18 -16 -53 -11c-1 3 -2 16 -4 38l-7 69c-8 69 -16 122 -24 158c-7 1 -22 1 -44 0l-42 -3c-8 -68 -13 -111 -14 -129c-3 -29 -4 -69 -4 -119
c0 -8 -7 -12 -20 -11l-32 1c14 175 28 317 43 427c24 176 35 262 33 258c29 11 55 13 78 6zM130 314l68 5c0 25 -3 78 -10 158c-7 84 -11 137 -12 160c-1 3 -4 5 -9 4s-9 -4 -10 -7c-3 -20 -7 -66 -12 -138c-5 -79 -10 -139 -15 -182zM262 814c-13 -31 -23 -50 -30 -57
c-17 -18 -44 -26 -82 -25c-39 8 -65 41 -77 98c2 6 11 9 26 9c1 -11 9 -24 22 -39c14 -16 27 -24 40 -25c26 -2 45 4 57 17c5 6 12 21 21 44c15 2 23 -5 23 -22zM188 846l-48 4c33 18 51 32 56 43c7 15 4 24 -9 28c-19 -5 -34 -8 -43 -10c-13 3 -20 14 -22 31
c37 21 65 27 84 18s31 -21 36 -38c6 -31 -12 -56 -54 -76z" />
    <glyph glyph-name="uni1EB3" unicode="&#x1eb3;" horiz-adv-x="364" 
d="M67 402v53c0 12 18 23 54 34c35 10 72 15 111 15c26 0 41 -1 46 -2c17 -3 27 -13 30 -29l-2 -235c0 -85 3 -162 8 -229c-9 -7 -23 -11 -41 -11c-11 0 -17 14 -18 41c-37 -28 -73 -42 -110 -42c-18 0 -38 4 -60 11c-23 15 -35 56 -35 121c0 77 13 122 38 136
c5 3 37 12 94 27c43 11 69 26 79 44l-6 109c-11 7 -29 10 -55 10c-50 0 -82 -9 -95 -26v-36c-2 -7 -6 -10 -13 -10c-17 0 -25 6 -25 19zM256 148c0 11 2 54 7 131c-9 -11 -31 -21 -67 -32c-39 -11 -63 -20 -72 -27c-17 -12 -26 -44 -26 -97c0 -49 9 -77 26 -84
c52 0 95 15 130 45c0 27 1 48 2 64zM288 615c-13 -31 -23 -50 -30 -57c-17 -18 -44 -26 -82 -25c-39 8 -65 41 -77 98c2 6 11 9 26 9c1 -11 9 -24 22 -39c14 -16 27 -24 40 -25c26 -2 45 4 57 17c5 6 12 21 21 44c15 2 23 -5 23 -22zM218 634l-48 4c33 18 51 32 56 43
c7 15 4 24 -9 28c-19 -5 -34 -8 -43 -10c-13 3 -20 14 -22 31c37 21 65 27 84 18s31 -21 36 -38c6 -31 -12 -56 -54 -76z" />
    <glyph glyph-name="uni1EB4" unicode="&#x1eb4;" horiz-adv-x="345" 
d="M204 698c8 -33 15 -86 21 -159c7 -83 13 -137 18 -163c11 -63 16 -89 15 -79c21 -191 33 -286 36 -283c-1 -13 -18 -16 -53 -11c-1 3 -2 16 -4 38l-7 69c-8 69 -16 122 -24 158c-7 1 -22 1 -44 0l-42 -3c-8 -68 -13 -111 -14 -129c-3 -29 -4 -69 -4 -119
c0 -8 -7 -12 -20 -11l-32 1c14 175 28 317 43 427c24 176 35 262 33 258c29 11 55 13 78 6zM130 314l68 5c0 25 -3 78 -10 158c-7 84 -11 137 -12 160c-1 3 -4 5 -9 4s-9 -4 -10 -7c-3 -20 -7 -66 -12 -138c-5 -79 -10 -139 -15 -182zM262 814c-13 -31 -23 -50 -30 -57
c-17 -18 -44 -26 -82 -25c-39 8 -65 41 -77 98c2 6 11 9 26 9c1 -11 9 -24 22 -39c14 -16 27 -24 40 -25c26 -2 45 4 57 17c5 6 12 21 21 44c15 2 23 -5 23 -22zM126 893l-70 -21c-11 9 -14 21 -9 38l67 32c18 -1 37 -6 58 -15c26 -11 40 -16 41 -16l60 24
c15 -19 17 -32 6 -40l-67 -31z" />
    <glyph glyph-name="uni1EB5" unicode="&#x1eb5;" horiz-adv-x="364" 
d="M67 402v53c0 12 18 23 54 34c35 10 72 15 111 15c26 0 41 -1 46 -2c17 -3 27 -13 30 -29l-2 -235c0 -85 3 -162 8 -229c-9 -7 -23 -11 -41 -11c-11 0 -17 14 -18 41c-37 -28 -73 -42 -110 -42c-18 0 -38 4 -60 11c-23 15 -35 56 -35 121c0 77 13 122 38 136
c5 3 37 12 94 27c43 11 69 26 79 44l-6 109c-11 7 -29 10 -55 10c-50 0 -82 -9 -95 -26v-36c-2 -7 -6 -10 -13 -10c-17 0 -25 6 -25 19zM256 148c0 11 2 54 7 131c-9 -11 -31 -21 -67 -32c-39 -11 -63 -20 -72 -27c-17 -12 -26 -44 -26 -97c0 -49 9 -77 26 -84
c52 0 95 15 130 45c0 27 1 48 2 64zM288 615c-13 -31 -23 -50 -30 -57c-17 -18 -44 -26 -82 -25c-39 8 -65 41 -77 98c2 6 11 9 26 9c1 -11 9 -24 22 -39c14 -16 27 -24 40 -25c26 -2 45 4 57 17c5 6 12 21 21 44c15 2 23 -5 23 -22zM152 696l-70 -21c-11 9 -14 21 -9 38
l67 32c18 -1 37 -6 58 -15c26 -11 40 -16 41 -16l60 24c15 -19 17 -32 6 -40l-67 -31z" />
    <glyph glyph-name="uni1EB6" unicode="&#x1eb6;" horiz-adv-x="345" 
d="M204 698c8 -33 15 -86 21 -159c7 -83 13 -137 18 -163c11 -63 16 -89 15 -79c21 -191 33 -286 36 -283c-1 -13 -18 -16 -53 -11c-1 3 -2 16 -4 38l-7 69c-8 69 -16 122 -24 158c-7 1 -22 1 -44 0l-42 -3c-8 -68 -13 -111 -14 -129c-3 -29 -4 -69 -4 -119
c0 -8 -7 -12 -20 -11l-32 1c14 175 28 317 43 427c24 176 35 262 33 258c29 11 55 13 78 6zM130 314l68 5c0 25 -3 78 -10 158c-7 84 -11 137 -12 160c-1 3 -4 5 -9 4s-9 -4 -10 -7c-3 -20 -7 -66 -12 -138c-5 -79 -10 -139 -15 -182zM262 814c-13 -31 -23 -50 -30 -57
c-17 -18 -44 -26 -82 -25c-39 8 -65 41 -77 98c2 6 11 9 26 9c1 -11 9 -24 22 -39c14 -16 27 -24 40 -25c26 -2 45 4 57 17c5 6 12 21 21 44c15 2 23 -5 23 -22zM186 -160c-15 -6 -31 -6 -47 -1c-5 31 -4 50 3 58c31 7 47 8 49 2c7 -17 5 -36 -5 -59z" />
    <glyph glyph-name="uni1EB7" unicode="&#x1eb7;" horiz-adv-x="364" 
d="M67 402v53c0 12 18 23 54 34c35 10 72 15 111 15c26 0 41 -1 46 -2c17 -3 27 -13 30 -29l-2 -235c0 -85 3 -162 8 -229c-9 -7 -23 -11 -41 -11c-11 0 -17 14 -18 41c-37 -28 -73 -42 -110 -42c-18 0 -38 4 -60 11c-23 15 -35 56 -35 121c0 77 13 122 38 136
c5 3 37 12 94 27c43 11 69 26 79 44l-6 109c-11 7 -29 10 -55 10c-50 0 -82 -9 -95 -26v-36c-2 -7 -6 -10 -13 -10c-17 0 -25 6 -25 19zM256 148c0 11 2 54 7 131c-9 -11 -31 -21 -67 -32c-39 -11 -63 -20 -72 -27c-17 -12 -26 -44 -26 -97c0 -49 9 -77 26 -84
c52 0 95 15 130 45c0 27 1 48 2 64zM288 615c-13 -31 -23 -50 -30 -57c-17 -18 -44 -26 -82 -25c-39 8 -65 41 -77 98c2 6 11 9 26 9c1 -11 9 -24 22 -39c14 -16 27 -24 40 -25c26 -2 45 4 57 17c5 6 12 21 21 44c15 2 23 -5 23 -22zM184 -160c-15 -6 -31 -6 -47 -1
c-5 31 -4 50 3 58c31 7 47 8 49 2c7 -17 5 -36 -5 -59z" />
    <glyph glyph-name="uni1EB8" unicode="&#x1eb8;" horiz-adv-x="332" 
d="M286 659c-7 0 -66 -6 -178 -19c-1 -14 -3 -47 -8 -100c-4 -43 -6 -81 -5 -112c2 -40 3 -61 4 -63c4 -14 24 -20 59 -19c49 1 76 1 81 0c9 -15 5 -27 -12 -38c-74 -6 -108 -8 -102 -6c-5 -2 -9 -4 -10 -6c-1 -3 -4 -5 -7 -6c-2 -4 -4 -52 -6 -145c-1 -31 1 -58 7 -81
c15 -10 57 -13 126 -10c7 0 18 2 34 6c13 3 24 3 31 2c2 -5 2 -20 0 -43l-74 -12c-43 -5 -69 -7 -77 -6c-10 1 -26 3 -47 7c-23 3 -38 5 -45 6c-2 17 -3 41 -4 73c-1 39 -2 65 -3 79c-1 6 -1 22 0 47l2 47c-2 27 -3 81 -3 162c0 16 1 41 2 76c1 34 2 60 2 78c0 50 2 81 7 92
c40 23 117 31 232 26c6 -1 7 -6 3 -15c-6 -15 -9 -22 -9 -20zM198 -160c-15 -6 -31 -6 -47 -1c-5 31 -4 50 3 58c31 7 47 8 49 2c7 -17 5 -36 -5 -59z" />
    <glyph glyph-name="uni1EB9" unicode="&#x1eb9;" 
d="M271 70c9 -3 15 -12 18 -29c-40 -27 -75 -41 -106 -43c-27 -1 -61 7 -100 25c-23 32 -34 104 -34 215c-1 115 13 192 41 231c15 21 48 33 98 35c51 2 83 -10 96 -36c33 -69 33 -156 0 -261l-29 -21c-69 -13 -121 -19 -156 -17c1 -47 11 -85 29 -116c51 -17 98 -11 143 17
zM250 431c-13 17 -32 25 -57 24s-49 -10 -72 -27c-23 -56 -32 -127 -27 -212c43 -1 87 2 132 9l24 14c15 55 15 119 0 192zM201 -160c-15 -6 -31 -6 -47 -1c-5 31 -4 50 3 58c31 7 47 8 49 2c7 -17 5 -36 -5 -59z" />
    <glyph glyph-name="uni1EBA" unicode="&#x1eba;" horiz-adv-x="332" 
d="M286 659c-7 0 -66 -6 -178 -19c-1 -14 -3 -47 -8 -100c-4 -43 -6 -81 -5 -112c2 -40 3 -61 4 -63c4 -14 24 -20 59 -19c49 1 76 1 81 0c9 -15 5 -27 -12 -38c-74 -6 -108 -8 -102 -6c-5 -2 -9 -4 -10 -6c-1 -3 -4 -5 -7 -6c-2 -4 -4 -52 -6 -145c-1 -31 1 -58 7 -81
c15 -10 57 -13 126 -10c7 0 18 2 34 6c13 3 24 3 31 2c2 -5 2 -20 0 -43l-74 -12c-43 -5 -69 -7 -77 -6c-10 1 -26 3 -47 7c-23 3 -38 5 -45 6c-2 17 -3 41 -4 73c-1 39 -2 65 -3 79c-1 6 -1 22 0 47l2 47c-2 27 -3 81 -3 162c0 16 1 41 2 76c1 34 2 60 2 78c0 50 2 81 7 92
c40 23 117 31 232 26c6 -1 7 -6 3 -15c-6 -15 -9 -22 -9 -20zM183 765l-48 4c33 18 51 32 56 43c7 15 4 24 -9 28c-19 -5 -34 -8 -43 -10c-13 3 -20 14 -22 31c37 21 65 27 84 18s31 -21 36 -38c6 -31 -12 -56 -54 -76z" />
    <glyph glyph-name="uni1EBB" unicode="&#x1ebb;" 
d="M271 70c9 -3 15 -12 18 -29c-40 -27 -75 -41 -106 -43c-27 -1 -61 7 -100 25c-23 32 -34 104 -34 215c-1 115 13 192 41 231c15 21 48 33 98 35c51 2 83 -10 96 -36c33 -69 33 -156 0 -261l-29 -21c-69 -13 -121 -19 -156 -17c1 -47 11 -85 29 -116c51 -17 98 -11 143 17
zM250 431c-13 17 -32 25 -57 24s-49 -10 -72 -27c-23 -56 -32 -127 -27 -212c43 -1 87 2 132 9l24 14c15 55 15 119 0 192zM186 569l-48 4c33 18 51 32 56 43c7 15 4 24 -9 28c-19 -5 -34 -8 -43 -10c-13 3 -20 14 -22 31c37 21 65 27 84 18s31 -21 36 -38
c6 -31 -12 -56 -54 -76z" />
    <glyph glyph-name="uni1EBC" unicode="&#x1ebc;" horiz-adv-x="332" 
d="M286 659c-7 0 -66 -6 -178 -19c-1 -14 -3 -47 -8 -100c-4 -43 -6 -81 -5 -112c2 -40 3 -61 4 -63c4 -14 24 -20 59 -19c49 1 76 1 81 0c9 -15 5 -27 -12 -38c-74 -6 -108 -8 -102 -6c-5 -2 -9 -4 -10 -6c-1 -3 -4 -5 -7 -6c-2 -4 -4 -52 -6 -145c-1 -31 1 -58 7 -81
c15 -10 57 -13 126 -10c7 0 18 2 34 6c13 3 24 3 31 2c2 -5 2 -20 0 -43l-74 -12c-43 -5 -69 -7 -77 -6c-10 1 -26 3 -47 7c-23 3 -38 5 -45 6c-2 17 -3 41 -4 73c-1 39 -2 65 -3 79c-1 6 -1 22 0 47l2 47c-2 27 -3 81 -3 162c0 16 1 41 2 76c1 34 2 60 2 78c0 50 2 81 7 92
c40 23 117 31 232 26c6 -1 7 -6 3 -15c-6 -15 -9 -22 -9 -20zM138 781l-70 -21c-11 9 -14 21 -9 38l67 32c18 -1 37 -6 58 -15c26 -11 40 -16 41 -16l60 24c15 -19 17 -32 6 -40l-67 -31z" />
    <glyph glyph-name="uni1EBD" unicode="&#x1ebd;" 
d="M271 70c9 -3 15 -12 18 -29c-40 -27 -75 -41 -106 -43c-27 -1 -61 7 -100 25c-23 32 -34 104 -34 215c-1 115 13 192 41 231c15 21 48 33 98 35c51 2 83 -10 96 -36c33 -69 33 -156 0 -261l-29 -21c-69 -13 -121 -19 -156 -17c1 -47 11 -85 29 -116c51 -17 98 -11 143 17
zM250 431c-13 17 -32 25 -57 24s-49 -10 -72 -27c-23 -56 -32 -127 -27 -212c43 -1 87 2 132 9l24 14c15 55 15 119 0 192zM152 570l-70 -21c-11 9 -14 21 -9 38l67 32c18 -1 37 -6 58 -15c26 -11 40 -16 41 -16l60 24c15 -19 17 -32 6 -40l-67 -31z" />
    <glyph glyph-name="uni1EBE" unicode="&#x1ebe;" horiz-adv-x="354" 
d="M287 659c-7 0 -66 -6 -178 -19c-1 -14 -3 -47 -8 -100c-4 -43 -6 -81 -5 -112c2 -40 3 -61 4 -63c4 -14 24 -20 59 -19c49 1 76 1 81 0c9 -15 5 -27 -12 -38c-74 -6 -108 -8 -102 -6c-5 -2 -9 -4 -10 -6c-1 -3 -4 -5 -7 -6c-2 -4 -4 -52 -6 -145c-1 -31 1 -58 7 -81
c15 -10 57 -13 126 -10c7 0 18 2 34 6c13 3 24 3 31 2c2 -5 2 -20 0 -43l-74 -12c-43 -5 -69 -7 -77 -6c-10 1 -26 3 -47 7c-23 3 -38 5 -45 6c-2 17 -3 41 -4 73c-1 39 -2 65 -3 79c-1 6 -1 22 0 47l2 47c-2 27 -3 81 -3 162c0 16 1 41 2 76c1 34 2 60 2 78c0 50 2 81 7 92
c40 23 117 31 232 26c6 -1 7 -6 3 -15c-6 -15 -9 -22 -9 -20zM273 752l-24 -11c-48 33 -76 52 -83 59c-31 -27 -53 -48 -68 -65c-4 0 -8 2 -11 7s-7 8 -10 8c13 30 38 65 77 105l30 -5l65 -66c14 -13 22 -23 24 -32zM392 952c3 5 -32 -37 -103 -125c-8 1 -17 3 -28 7
c8 25 34 67 78 128l19 8c13 -3 25 -9 34 -18z" />
    <glyph glyph-name="uni1EBF" unicode="&#x1ebf;" 
d="M272 70c9 -3 15 -12 18 -29c-40 -27 -75 -41 -106 -43c-27 -1 -61 7 -100 25c-23 32 -34 104 -34 215c-1 115 13 192 41 231c15 21 48 33 98 35c51 2 83 -10 96 -36c33 -69 33 -156 0 -261l-29 -21c-69 -13 -121 -19 -156 -17c1 -47 11 -85 29 -116c51 -17 98 -11 143 17
zM251 431c-13 17 -32 25 -57 24s-49 -10 -72 -27c-23 -56 -32 -127 -27 -212c43 -1 87 2 132 9l24 14c15 55 15 119 0 192zM280 550l-24 -11c-48 33 -76 52 -83 59c-31 -27 -53 -48 -68 -65c-4 0 -8 2 -11 7s-7 8 -10 8c13 30 38 65 77 105l30 -5l65 -66
c14 -13 22 -23 24 -32zM384 758c3 5 -32 -37 -103 -125c-8 1 -17 3 -28 7c8 25 34 67 78 128l19 8c13 -3 25 -9 34 -18z" />
    <glyph glyph-name="uni1EC0" unicode="&#x1ec0;" horiz-adv-x="354" 
d="M287 659c-7 0 -66 -6 -178 -19c-1 -14 -3 -47 -8 -100c-4 -43 -6 -81 -5 -112c2 -40 3 -61 4 -63c4 -14 24 -20 59 -19c49 1 76 1 81 0c9 -15 5 -27 -12 -38c-74 -6 -108 -8 -102 -6c-5 -2 -9 -4 -10 -6c-1 -3 -4 -5 -7 -6c-2 -4 -4 -52 -6 -145c-1 -31 1 -58 7 -81
c15 -10 57 -13 126 -10c7 0 18 2 34 6c13 3 24 3 31 2c2 -5 2 -20 0 -43l-74 -12c-43 -5 -69 -7 -77 -6c-10 1 -26 3 -47 7c-23 3 -38 5 -45 6c-2 17 -3 41 -4 73c-1 39 -2 65 -3 79c-1 6 -1 22 0 47l2 47c-2 27 -3 81 -3 162c0 16 1 41 2 76c1 34 2 60 2 78c0 50 2 81 7 92
c40 23 117 31 232 26c6 -1 7 -6 3 -15c-6 -15 -9 -22 -9 -20zM273 752l-24 -11c-48 33 -76 52 -83 59c-31 -27 -53 -48 -68 -65c-4 0 -8 2 -11 7s-7 8 -10 8c13 30 38 65 77 105l30 -5l65 -66c14 -13 22 -23 24 -32zM127 986c9 9 21 15 34 18l19 -8c44 -61 70 -103 78 -128
c-11 -4 -20 -6 -28 -7c-71 88 -106 130 -103 125z" />
    <glyph glyph-name="uni1EC1" unicode="&#x1ec1;" 
d="M272 70c9 -3 15 -12 18 -29c-40 -27 -75 -41 -106 -43c-27 -1 -61 7 -100 25c-23 32 -34 104 -34 215c-1 115 13 192 41 231c15 21 48 33 98 35c51 2 83 -10 96 -36c33 -69 33 -156 0 -261l-29 -21c-69 -13 -121 -19 -156 -17c1 -47 11 -85 29 -116c51 -17 98 -11 143 17
zM251 431c-13 17 -32 25 -57 24s-49 -10 -72 -27c-23 -56 -32 -127 -27 -212c43 -1 87 2 132 9l24 14c15 55 15 119 0 192zM280 550l-24 -11c-48 33 -76 52 -83 59c-31 -27 -53 -48 -68 -65c-4 0 -8 2 -11 7s-7 8 -10 8c13 30 38 65 77 105l30 -5l65 -66
c14 -13 22 -23 24 -32zM153 779c9 9 21 15 34 18l19 -8c44 -61 70 -103 78 -128c-11 -4 -20 -6 -28 -7c-71 88 -106 130 -103 125z" />
    </font>
</defs>
</svg>
